{"glyphs":{"0":{"ha":614,"x_min":0,"x_max":0,"o":"m 483 485 l 482 457 l 482 431 l 478 413 l 476 392 l 472 375 l 474 357 l 468 338 l 464 318 l 464 300 l 457 282 l 456 264 l 450 246 l 443 228 l 439 211 l 432 194 l 408 146 l 397 132 l 385 121 l 374 108 l 363 99 l 346 90 l 331 86 l 314 82 l 290 81 l 263 82 l 229 93 l 214 104 l 201 115 l 190 129 l 179 143 l 171 158 l 167 175 l 156 192 l 150 210 l 147 226 l 143 246 l 140 263 l 138 279 l 136 299 l 133 315 l 132 333 l 132 350 l 129 371 l 128 389 l 131 404 l 132 424 l 132 442 l 135 494 l 135 515 l 139 533 l 139 551 l 139 569 l 147 606 l 153 642 l 157 661 l 160 678 l 165 697 l 168 713 l 178 731 l 186 747 l 190 763 l 222 804 l 236 817 l 249 825 l 261 835 l 278 842 l 292 846 l 318 847 l 342 843 l 376 832 l 392 822 l 410 803 l 426 785 l 439 768 l 446 750 l 454 735 l 458 719 l 461 701 l 472 667 l 471 647 l 475 629 l 478 610 l 479 593 l 483 574 l 482 557 l 482 539 l 485 522 l 485 504 z m 564 425 l 565 500 l 564 518 l 564 539 l 563 556 l 560 575 l 561 593 l 561 611 l 558 631 l 553 647 l 546 704 l 536 739 l 528 754 l 524 772 l 508 806 l 499 824 l 488 838 l 481 850 l 456 878 l 438 893 l 399 915 l 381 922 l 367 926 l 351 929 l 293 929 l 275 925 l 260 922 l 235 914 l 197 892 l 171 871 l 158 856 l 146 842 l 136 826 l 115 799 l 111 782 l 103 764 l 96 746 l 88 729 l 85 713 l 81 694 l 74 678 l 72 661 l 68 642 l 64 626 l 61 608 l 60 574 l 51 535 l 49 518 l 51 501 l 49 472 l 46 389 l 47 371 l 46 354 l 50 335 l 50 315 l 54 297 l 56 281 l 58 261 l 58 240 l 67 222 l 68 204 l 72 188 l 78 172 l 86 153 l 90 136 l 97 119 l 107 104 l 114 89 l 136 63 l 147 51 l 163 39 l 174 29 l 207 13 l 242 1 l 256 -1 l 311 0 l 329 1 l 346 6 l 363 10 l 396 25 l 410 33 l 422 46 l 436 54 l 451 67 l 464 82 l 472 96 l 485 111 l 492 128 l 500 143 l 507 161 l 521 196 l 525 213 l 532 229 l 540 264 l 543 281 l 546 299 l 551 318 l 556 336 l 554 356 l 557 372 l 556 389 l 561 407 z m 68 528 l 71 525 l 79 524 l 86 526 l 90 532 l 100 542 l 106 533 l 99 525 l 94 522 l 86 513 l 75 513 l 74 518 l 71 525 z m 386 82 l 381 83 l 379 89 l 383 89 l 388 83 l 390 79 l 397 75 l 404 71 l 403 65 l 396 65 l 393 74 l 390 79 z m 122 181 l 128 176 l 128 167 l 118 168 l 115 175 z m 468 206 l 463 208 l 461 218 l 469 217 l 472 211 l 475 204 l 482 203 l 489 200 l 492 192 l 482 192 l 478 197 z m 456 139 l 464 135 l 467 128 l 458 128 l 453 136 l 447 142 l 440 147 l 446 153 l 450 144 z m 111 467 l 113 472 l 119 476 l 119 468 l 115 464 l 110 453 l 103 442 l 96 450 l 103 458 z m 532 568 l 521 578 l 529 583 l 536 575 l 538 569 l 542 565 l 547 564 l 549 560 l 544 560 l 540 564 z m 411 99 l 417 96 l 422 93 l 426 89 l 429 79 l 419 81 l 415 86 l 413 92 l 407 100 l 401 104 l 401 108 l 406 108 l 408 101 z m 75 399 l 81 399 l 88 408 l 85 414 l 78 422 l 76 431 l 83 432 l 90 426 l 96 421 l 100 415 l 106 406 l 97 397 l 93 390 l 86 381 l 75 382 l 69 393 l 61 401 l 58 414 l 69 415 l 68 404 z m 124 599 l 117 600 l 110 607 l 104 610 l 100 610 l 96 604 l 88 593 l 78 600 l 85 611 l 88 615 l 90 621 l 94 625 l 107 625 l 111 621 l 119 611 l 125 604 z m 192 64 l 186 61 l 178 71 l 174 75 l 169 81 l 164 86 l 160 90 l 154 96 l 149 100 l 140 107 l 146 115 l 156 110 l 160 104 l 164 100 l 174 90 l 179 86 l 183 82 l 192 74 z m 383 894 l 376 890 l 372 886 l 371 881 l 372 875 l 376 869 l 382 860 l 375 854 l 369 863 l 358 869 l 353 874 l 357 885 l 363 890 l 367 894 l 372 899 l 382 900 z m 88 468 l 79 460 l 76 456 l 69 446 l 64 443 l 58 449 l 60 454 l 69 463 l 71 468 l 75 478 l 86 476 z m 126 678 l 122 672 l 118 668 l 113 664 l 107 660 l 100 657 l 96 663 l 103 671 l 110 676 l 115 681 l 124 688 l 129 685 z m 313 22 l 307 31 l 304 36 l 299 40 l 290 44 l 293 51 l 303 49 l 308 46 l 314 42 l 319 38 l 324 26 z m 119 735 l 128 740 l 133 746 l 143 754 l 149 746 l 140 739 l 135 733 l 126 722 l 118 726 z m 526 274 l 522 268 l 517 263 l 513 258 l 503 256 l 500 264 l 507 271 l 514 274 l 519 278 l 526 282 z m 514 639 l 507 635 l 501 643 l 497 649 l 492 657 l 494 661 l 503 656 l 507 653 l 513 650 z m 110 149 l 115 144 l 121 139 l 124 131 l 114 133 l 108 138 l 104 142 l 103 151 z m 488 742 l 482 738 l 474 733 l 476 743 l 475 747 l 476 753 l 489 753 z m 331 889 l 331 903 l 343 901 l 343 889 z m 533 614 l 524 615 l 524 625 l 535 625 z m 107 361 l 99 360 l 97 371 l 106 372 z m 407 874 l 396 872 l 394 882 l 406 883 z m 311 872 l 310 883 l 322 882 l 324 871 z m 342 53 l 342 42 l 331 42 l 332 51 z m 107 486 l 97 486 l 96 496 l 107 499 z m 149 156 l 149 146 l 140 146 l 140 156 z m 86 347 l 88 339 l 78 339 l 76 347 z m 513 682 l 503 681 l 503 692 l 511 692 z m 299 892 l 288 893 l 289 904 l 299 903 z m 85 297 l 75 297 l 75 306 l 85 307 z m 511 382 l 503 382 l 501 392 l 510 390 z m 97 318 l 97 328 l 106 328 l 106 318 z m 513 297 l 503 297 l 504 306 l 513 307 z m 256 43 l 246 43 l 246 54 l 256 53 z m 489 788 l 481 789 l 481 796 l 489 796 z m 81 551 l 72 553 l 74 561 l 82 560 z m 531 528 l 522 531 l 526 539 l 535 535 z m 106 190 l 99 190 l 99 199 l 106 199 z m 532 322 l 525 322 l 525 329 l 532 329 z m 460 813 l 460 821 l 467 819 l 467 811 z m 236 882 l 238 874 l 231 871 l 228 881 z m 106 274 l 99 275 l 100 283 l 107 282 z m 222 832 l 224 838 l 232 838 l 231 832 z m 256 892 l 247 893 l 249 901 l 257 899 z m 463 767 l 463 775 l 469 775 l 469 768 z m 490 318 l 483 318 l 485 325 l 490 325 z m 447 838 l 450 832 l 442 831 l 440 838 z m 361 65 l 354 67 l 354 74 l 361 74 z m 275 874 l 267 874 l 268 881 l 275 881 z m 486 706 l 481 704 l 479 711 l 486 711 z m 256 860 l 254 851 l 247 854 l 249 861 z m 447 117 l 446 108 l 439 108 l 439 115 z m 128 646 l 128 638 l 119 638 l 121 644 z m 533 488 l 526 489 l 528 496 l 535 494 z m 511 596 l 506 597 l 506 604 l 513 604 z m 511 514 l 507 513 l 506 519 l 511 519 z m 535 453 l 535 446 l 526 447 l 528 454 z m 533 404 l 525 406 l 526 414 l 533 413 z m 169 126 l 164 126 l 163 135 l 169 133 z m 468 174 l 468 167 l 461 167 l 461 174 z m 510 729 l 504 728 l 503 735 l 508 735 z m 531 657 l 524 658 l 525 665 l 531 665 z m 513 342 l 506 340 l 504 346 l 511 347 z m 276 28 l 276 24 l 269 24 l 271 28 z m 118 254 l 119 258 l 124 258 l 122 253 z m 490 232 l 483 232 l 483 239 l 489 239 z m 211 861 l 213 854 l 206 853 l 206 860 z m 508 213 l 503 211 l 504 219 l 508 219 z m 422 125 l 417 124 l 417 129 l 422 131 z m 78 254 l 78 260 l 85 260 l 83 253 z m 504 556 l 506 561 l 511 561 l 510 554 z m 319 913 l 314 914 l 314 919 l 319 918 z m 144 788 l 144 793 l 150 793 l 149 788 z m 511 469 l 507 469 l 507 475 l 511 475 z m 171 807 l 164 807 l 164 813 l 171 813 z m 233 64 l 228 65 l 229 69 l 233 69 z m 104 233 l 100 232 l 99 239 l 103 239 z m 531 363 l 525 363 l 525 368 l 531 368 z m 489 286 l 488 281 l 482 282 l 483 288 z m 360 26 l 357 26 l 358 29 l 361 28 z m 447 793 l 443 792 l 442 796 l 446 796 z m 232 22 l 228 24 l 229 28 l 233 26 z m 168 771 l 163 771 l 163 776 l 168 776 z m 510 432 l 507 431 l 507 433 l 508 433 z m 417 856 l 418 860 l 422 860 l 422 854 z m 124 210 l 119 213 l 121 217 l 125 215 z m 104 581 l 103 574 l 99 578 l 100 582 z m 211 44 l 208 47 l 210 51 l 214 49 z "},"1":{"ha":392,"x_min":0,"x_max":0,"o":"m 286 3 l 297 21 l 304 46 l 306 65 l 307 82 l 313 99 l 314 118 l 314 135 l 319 153 l 317 171 l 318 189 l 322 207 l 319 243 l 324 260 l 326 279 l 325 297 l 326 331 l 329 350 l 326 368 l 328 386 l 331 403 l 333 421 l 329 438 l 331 456 l 332 475 l 331 492 l 335 510 l 335 528 l 333 547 l 335 564 l 333 583 l 335 601 l 336 638 l 332 656 l 332 671 l 335 689 l 332 743 l 331 764 l 331 782 l 331 800 l 332 817 l 326 833 l 329 850 l 326 869 l 321 896 l 311 919 l 294 926 l 274 922 l 257 913 l 247 890 l 240 858 l 233 838 l 225 821 l 204 788 l 194 774 l 185 758 l 164 729 l 156 718 l 142 706 l 131 692 l 118 679 l 103 667 l 90 656 l 72 636 l 60 615 l 63 596 l 72 582 l 90 571 l 113 576 l 139 592 l 151 604 l 167 615 l 179 629 l 189 643 l 203 658 l 214 671 l 224 688 l 236 701 l 244 708 l 253 699 l 249 682 l 250 663 l 250 625 l 249 610 l 249 590 l 251 572 l 249 554 l 249 536 l 249 518 l 247 500 l 247 482 l 251 463 l 249 426 l 247 407 l 246 392 l 247 374 l 244 353 l 244 335 l 246 317 l 242 299 l 243 279 l 240 261 l 240 225 l 238 208 l 238 189 l 236 171 l 233 154 l 231 138 l 232 119 l 229 101 l 231 83 l 226 65 l 226 50 l 229 28 l 235 7 l 250 1 l 268 -1 z m 214 751 l 219 747 l 225 744 l 229 739 l 235 736 l 238 724 l 228 719 l 222 731 l 218 736 l 203 743 l 206 753 z m 300 785 l 292 781 l 286 776 l 281 769 l 276 763 l 269 764 l 269 774 l 272 779 l 278 786 l 283 789 l 290 794 l 300 792 z m 278 115 l 269 108 l 263 103 l 254 96 l 250 99 l 253 107 l 257 113 l 261 119 l 275 124 z m 300 740 l 290 740 l 288 746 l 288 757 l 300 754 z m 300 829 l 292 829 l 292 839 l 300 839 z m 167 667 l 167 657 l 158 660 l 157 668 z m 229 761 l 229 772 l 236 776 l 238 767 z m 299 232 l 297 222 l 290 225 l 292 233 z m 278 719 l 268 718 l 267 728 l 276 731 z m 250 743 l 250 754 l 258 751 l 258 742 z m 299 136 l 292 136 l 290 144 l 297 144 z m 300 622 l 301 611 l 292 613 l 292 622 z m 268 850 l 269 861 l 278 861 l 278 850 z m 301 701 l 292 699 l 292 708 l 300 710 z m 279 71 l 271 72 l 271 81 l 279 79 z m 300 313 l 292 311 l 292 319 l 299 321 z m 279 161 l 271 161 l 271 169 l 281 168 z m 279 382 l 281 372 l 271 374 l 271 382 z m 301 664 l 300 656 l 292 657 l 293 664 z m 292 535 l 300 536 l 300 528 l 292 528 z m 300 396 l 292 396 l 292 403 l 299 403 z m 256 789 l 249 789 l 250 799 l 257 796 z m 300 183 l 293 183 l 293 190 l 301 189 z m 271 289 l 271 296 l 279 296 l 278 289 z m 300 494 l 300 486 l 292 488 l 292 496 z m 256 138 l 250 139 l 250 143 l 257 143 z m 278 247 l 271 246 l 271 254 l 278 254 z m 275 635 l 268 636 l 269 642 l 275 642 z m 208 707 l 208 701 l 204 701 l 206 707 z m 300 440 l 293 439 l 293 446 l 299 446 z m 278 599 l 276 592 l 271 593 l 271 600 z m 279 204 l 271 204 l 271 210 l 279 210 z m 192 724 l 188 725 l 189 729 l 194 729 z m 279 549 l 274 549 l 274 554 l 279 554 z m 272 507 l 268 507 l 269 510 l 274 510 z m 258 828 l 251 829 l 251 833 l 257 833 z m 318 632 l 313 633 l 313 638 l 318 638 z m 299 267 l 293 267 l 293 272 l 300 272 z m 292 350 l 292 354 l 299 354 l 299 350 z m 278 674 l 272 675 l 272 682 l 279 681 z m 296 94 l 292 94 l 292 99 l 296 100 z m 317 597 l 318 592 l 313 592 l 313 596 z m 274 28 l 271 28 l 271 32 l 274 32 z m 260 222 l 256 219 l 253 225 l 258 225 z m 279 465 l 276 461 l 272 463 l 272 465 z m 299 569 l 293 569 l 293 575 l 299 575 z m 275 810 l 271 813 l 272 818 l 279 814 z m 315 808 l 314 813 l 318 813 l 319 808 z m 144 639 l 139 640 l 140 643 l 144 642 z m 276 424 l 278 422 l 275 421 l 272 424 z "},"2":{"ha":674,"x_min":0,"x_max":0,"o":"m 574 240 l 560 219 l 546 176 l 540 161 l 535 143 l 528 126 l 517 111 l 489 89 l 474 82 l 457 76 l 438 75 l 403 76 l 385 78 l 369 81 l 350 88 l 322 94 l 299 106 l 281 113 l 271 124 l 274 143 l 285 157 l 294 169 l 307 185 l 318 200 l 326 214 l 338 229 l 346 243 l 358 260 l 365 276 l 378 292 l 399 339 l 411 354 l 419 371 l 425 389 l 435 404 l 442 421 l 449 438 l 453 456 l 461 471 l 468 489 l 471 507 l 478 524 l 483 540 l 486 558 l 499 613 l 499 629 l 507 665 l 506 685 l 508 703 l 506 736 l 503 756 l 493 792 l 490 808 l 485 822 l 468 853 l 443 879 l 431 889 l 400 907 l 382 914 l 365 918 l 313 928 l 296 925 l 258 922 l 225 911 l 206 906 l 190 897 l 164 875 l 150 860 l 142 849 l 131 833 l 119 817 l 113 800 l 107 781 l 106 764 l 100 747 l 94 710 l 93 693 l 99 650 l 114 626 l 128 622 l 143 619 l 160 628 l 171 649 l 174 676 l 172 693 l 174 713 l 194 782 l 201 799 l 211 813 l 228 822 l 240 833 l 256 840 l 274 843 l 290 844 l 321 843 l 346 838 l 361 831 l 376 819 l 388 807 l 399 794 l 411 760 l 419 724 l 418 706 l 422 688 l 419 671 l 419 651 l 417 633 l 414 614 l 400 561 l 397 543 l 393 526 l 385 511 l 381 492 l 374 476 l 367 460 l 360 442 l 353 425 l 346 407 l 338 393 l 332 375 l 321 360 l 313 344 l 306 328 l 296 313 l 285 294 l 275 281 l 267 265 l 256 250 l 246 236 l 235 221 l 225 207 l 213 192 l 200 179 l 190 164 l 171 147 l 128 128 l 96 111 l 86 96 l 74 83 l 69 68 l 63 51 l 65 35 l 74 19 l 89 11 l 101 6 l 121 4 l 139 10 l 157 18 l 183 39 l 206 49 l 228 47 l 247 42 l 276 31 l 315 18 l 331 13 l 350 7 l 368 4 l 393 0 l 424 -3 l 438 -6 l 475 -1 l 493 1 l 525 17 l 539 28 l 557 38 l 574 57 l 589 81 l 599 99 l 607 115 l 613 132 l 618 150 l 626 167 l 628 213 l 622 233 l 608 240 l 592 244 z m 449 650 l 446 644 l 439 644 l 440 651 l 446 654 l 451 663 l 453 667 l 464 669 l 464 660 l 458 656 z m 481 725 l 472 729 l 467 733 l 463 738 l 457 743 l 453 751 l 460 757 l 469 749 l 474 743 l 476 738 l 482 731 z m 436 515 l 432 522 l 440 531 l 444 535 l 450 539 l 458 546 l 460 536 l 456 531 l 451 528 l 447 522 l 443 518 z m 403 849 l 390 849 l 390 861 l 403 863 z m 146 765 l 135 767 l 131 772 l 131 783 l 142 781 l 146 776 z m 474 681 l 474 694 l 485 694 l 486 682 z m 424 838 l 422 826 l 411 829 l 414 839 z m 444 778 l 442 767 l 432 771 l 435 781 z m 251 107 l 239 107 l 240 119 l 253 118 z m 464 588 l 465 576 l 456 575 l 454 585 z m 435 683 l 436 693 l 444 690 l 444 681 z m 382 875 l 371 874 l 369 883 l 379 885 z m 463 708 l 453 710 l 454 719 l 464 717 z m 165 789 l 157 789 l 157 797 l 167 797 z m 463 797 l 464 790 l 456 789 l 454 796 z m 219 89 l 222 99 l 233 99 l 231 90 z m 421 451 l 413 451 l 413 461 l 422 460 z m 454 621 l 453 631 l 463 631 l 464 621 z m 144 47 l 136 49 l 138 57 l 146 54 z m 188 92 l 178 92 l 178 100 l 188 100 z m 167 839 l 165 832 l 158 832 l 158 839 z m 156 118 l 165 117 l 164 108 l 156 108 z m 357 894 l 349 894 l 347 901 l 356 903 z m 114 67 l 115 76 l 124 76 l 124 67 z m 188 858 l 186 851 l 178 853 l 179 860 z m 182 808 l 175 808 l 176 817 l 183 817 z m 143 93 l 135 93 l 136 100 l 144 100 z m 272 901 l 272 893 l 264 894 l 264 901 z m 335 875 l 326 876 l 329 883 l 336 881 z m 399 429 l 392 431 l 393 438 l 399 436 z m 158 78 l 167 78 l 167 69 l 160 68 z m 271 92 l 263 92 l 264 99 l 271 97 z m 314 893 l 307 893 l 307 901 l 314 901 z m 143 733 l 143 726 l 135 726 l 136 735 z m 436 726 l 436 733 l 443 733 l 443 728 z m 463 28 l 456 28 l 457 36 l 464 35 z m 433 813 l 435 819 l 442 819 l 442 813 z m 249 68 l 242 69 l 243 76 l 251 76 z m 206 68 l 197 68 l 199 76 l 206 76 z m 379 368 l 372 368 l 374 375 l 379 375 z m 306 49 l 306 54 l 313 53 l 313 47 z m 101 50 l 94 49 l 96 53 l 101 54 z m 263 181 l 269 181 l 271 175 l 264 175 z m 482 768 l 475 767 l 475 774 l 481 774 z m 481 651 l 481 646 l 475 646 l 475 651 z m 442 608 l 440 603 l 435 603 l 435 608 z m 396 396 l 396 390 l 390 390 l 390 396 z m 218 133 l 219 138 l 226 138 l 225 132 z m 188 129 l 181 129 l 179 138 l 186 136 z m 356 346 l 350 346 l 350 353 l 356 351 z m 333 285 l 329 285 l 329 290 l 335 290 z m 292 878 l 286 879 l 286 885 l 293 883 z m 221 856 l 221 861 l 228 861 l 226 854 z m 438 474 l 433 476 l 435 481 l 439 479 z m 122 31 l 118 29 l 117 33 l 121 35 z m 546 71 l 540 71 l 540 76 l 546 76 z m 292 78 l 293 72 l 286 71 l 286 76 z m 419 792 l 415 792 l 417 794 l 421 794 z m 313 261 l 308 261 l 308 264 l 313 265 z m 461 831 l 457 829 l 456 835 l 460 835 z m 249 876 l 244 879 l 246 883 l 251 881 z m 418 28 l 413 28 l 413 32 l 417 33 z m 353 50 l 347 50 l 350 54 l 354 54 z m 182 50 l 178 50 l 178 54 l 182 54 z m 244 197 l 246 201 l 250 200 l 249 196 z m 481 50 l 476 50 l 476 54 l 482 54 z m 503 74 l 507 71 l 504 67 l 501 69 z m 414 411 l 414 414 l 418 413 l 417 410 z m 439 856 l 435 854 l 433 858 l 438 861 z m 418 540 l 421 538 l 417 536 l 415 539 z m 206 117 l 206 110 l 199 111 l 200 117 z m 250 156 l 244 156 l 243 161 l 250 161 z m 524 50 l 519 51 l 521 54 l 524 53 z m 226 179 l 226 175 l 224 178 l 224 181 z m 439 563 l 436 563 l 438 567 l 440 565 z "},"3":{"ha":594,"x_min":0,"x_max":0,"o":"m 400 515 l 388 526 l 399 546 l 433 581 l 440 596 l 461 626 l 469 643 l 476 661 l 481 678 l 483 699 l 486 715 l 488 732 l 486 751 l 488 771 l 483 788 l 475 807 l 468 822 l 460 838 l 453 854 l 442 869 l 415 893 l 399 903 l 347 924 l 311 929 l 285 929 l 238 919 l 222 917 l 206 907 l 188 900 l 174 890 l 161 881 l 138 857 l 125 843 l 115 826 l 107 811 l 101 794 l 97 776 l 90 742 l 88 722 l 88 707 l 88 689 l 93 671 l 96 644 l 111 625 l 128 621 l 146 624 l 158 632 l 164 654 l 161 715 l 167 732 l 168 751 l 169 769 l 176 783 l 189 800 l 201 813 l 213 825 l 225 832 l 258 844 l 286 850 l 311 850 l 329 847 l 346 842 l 361 832 l 374 821 l 389 808 l 399 794 l 403 776 l 404 758 l 410 739 l 407 721 l 406 703 l 390 653 l 382 636 l 364 607 l 350 593 l 336 579 l 322 568 l 297 556 l 272 550 l 257 543 l 244 535 l 235 519 l 231 504 l 231 488 l 244 474 l 258 468 l 286 465 l 311 467 l 347 457 l 367 451 l 382 444 l 410 421 l 421 408 l 433 393 l 453 361 l 456 343 l 460 325 l 467 307 l 464 251 l 463 233 l 457 215 l 456 197 l 447 181 l 438 164 l 421 142 l 403 124 l 386 113 l 374 104 l 338 90 l 311 85 l 278 82 l 249 83 l 231 86 l 211 92 l 189 101 l 167 114 l 153 128 l 139 140 l 128 156 l 121 172 l 117 196 l 107 219 l 88 225 l 69 224 l 53 218 l 40 193 l 40 167 l 44 150 l 51 135 l 58 118 l 64 103 l 78 89 l 86 75 l 100 61 l 114 50 l 129 40 l 142 29 l 210 4 l 226 4 l 247 0 l 272 0 l 299 0 l 317 3 l 335 3 l 351 8 l 369 15 l 390 21 l 407 26 l 424 36 l 436 44 l 451 54 l 496 100 l 513 125 l 518 142 l 526 157 l 533 174 l 538 192 l 544 208 l 551 274 l 551 300 l 547 318 l 544 354 l 536 371 l 529 389 l 521 407 l 511 424 l 497 438 l 486 451 l 474 464 l 463 478 l 447 489 l 424 504 z m 113 721 l 108 726 l 114 728 z m 144 715 l 140 708 l 136 704 l 128 706 l 132 713 l 138 713 z m 268 42 l 271 46 l 279 49 l 278 42 l 272 38 l 265 31 l 260 24 l 251 26 l 253 35 l 263 36 z m 349 532 l 338 533 l 340 543 l 351 542 z m 306 503 l 307 492 l 297 490 l 296 500 z m 319 890 l 319 900 l 328 900 l 329 892 z m 115 126 l 106 128 l 106 135 l 115 133 z m 326 510 l 317 510 l 318 521 l 329 521 z m 263 871 l 256 874 l 256 881 l 264 881 z m 89 118 l 90 111 l 82 111 l 82 118 z m 411 468 l 404 467 l 404 474 l 411 475 z m 239 44 l 231 44 l 231 53 l 240 53 z m 447 724 l 444 731 l 453 732 l 454 725 z m 201 44 l 193 43 l 192 50 l 200 53 z m 200 856 l 200 849 l 193 850 l 194 857 z m 497 385 l 492 383 l 492 390 l 497 390 z m 360 554 l 361 563 l 369 563 l 368 554 z m 218 71 l 218 64 l 213 64 l 213 71 z m 178 67 l 171 65 l 169 74 l 178 74 z m 136 67 l 128 67 l 128 74 l 136 74 z m 368 511 l 361 514 l 364 521 l 371 518 z m 390 61 l 383 60 l 383 67 l 390 68 z m 306 25 l 299 25 l 300 32 l 306 32 z m 221 26 l 213 25 l 214 32 l 221 32 z m 307 533 l 300 531 l 299 538 l 304 538 z m 326 46 l 325 42 l 319 43 l 321 49 z m 285 517 l 278 515 l 276 522 l 283 522 z m 222 879 l 221 872 l 214 872 l 215 879 z m 499 306 l 496 299 l 492 300 l 493 307 z m 451 681 l 446 681 l 446 685 l 451 685 z m 428 704 l 428 710 l 433 711 l 433 704 z m 169 832 l 171 836 l 176 835 l 175 831 z m 410 817 l 410 813 l 406 813 l 406 817 z m 431 447 l 428 444 l 426 449 l 429 450 z m 494 261 l 494 256 l 492 254 l 490 260 z m 519 236 l 513 238 l 514 244 l 521 243 z m 235 892 l 236 897 l 240 896 l 240 892 z m 153 93 l 153 89 l 149 88 l 147 92 z m 517 279 l 510 283 l 514 288 l 519 285 z m 410 857 l 410 851 l 404 851 l 404 857 z m 274 899 l 275 904 l 281 903 l 279 897 z m 371 47 l 368 43 l 364 44 l 365 49 z m 149 817 l 149 821 l 153 819 l 153 815 z m 349 493 l 342 492 l 342 497 l 347 500 z m 390 496 l 390 490 l 386 490 l 385 494 z m 432 667 l 429 661 l 425 664 l 426 668 z m 431 794 l 431 789 l 426 789 l 425 793 z m 338 26 l 339 31 l 343 29 l 342 25 z m 368 857 l 369 854 l 367 851 l 364 856 z m 515 358 l 511 358 l 510 364 l 515 365 z m 431 744 l 426 746 l 428 747 l 432 747 z m 429 835 l 432 831 l 428 831 l 425 833 z m 497 217 l 493 217 l 493 221 l 497 219 z m 408 51 l 408 47 l 404 49 l 404 53 z m 494 174 l 492 171 l 490 175 l 493 178 z m 133 749 l 135 746 l 131 744 l 129 747 z m 476 150 l 472 151 l 472 156 l 476 154 z m 388 575 l 383 576 l 385 581 l 388 578 z m 368 474 l 364 471 l 363 475 l 367 476 z m 494 349 l 494 344 l 492 344 l 492 349 z "},"4":{"ha":650,"x_min":0,"x_max":0,"o":"m 394 53 l 399 28 l 411 7 l 431 0 l 446 -1 l 463 6 l 471 29 l 476 75 l 475 92 l 474 111 l 476 128 l 474 146 l 475 165 l 475 182 l 478 201 l 475 219 l 476 236 l 479 254 l 481 274 l 492 286 l 503 288 l 518 281 l 553 257 l 578 251 l 592 258 l 601 274 l 604 290 l 597 313 l 579 332 l 564 342 l 546 351 l 532 361 l 515 369 l 499 385 l 492 408 l 494 425 l 496 444 l 503 479 l 503 499 l 508 517 l 508 535 l 513 553 l 514 572 l 518 590 l 521 608 l 519 626 l 529 682 l 533 699 l 535 726 l 528 751 l 508 760 l 489 761 l 474 754 l 460 732 l 453 707 l 449 688 l 447 671 l 443 651 l 440 633 l 438 615 l 436 599 l 432 579 l 432 560 l 428 544 l 422 524 l 422 506 l 422 488 l 417 469 l 414 453 l 414 433 l 404 419 l 386 414 l 368 418 l 336 424 l 317 425 l 282 429 l 246 431 l 229 429 l 214 429 l 196 438 l 194 453 l 203 469 l 210 486 l 214 503 l 219 518 l 225 538 l 229 554 l 232 568 l 236 588 l 239 604 l 240 622 l 243 640 l 249 675 l 250 693 l 250 710 l 254 728 l 254 747 l 258 765 l 257 782 l 260 797 l 260 817 l 260 835 l 258 851 l 260 869 l 256 897 l 244 922 l 225 931 l 206 929 l 188 922 l 176 900 l 178 871 l 178 851 l 179 835 l 176 817 l 178 800 l 174 779 l 178 761 l 175 743 l 171 728 l 169 690 l 167 656 l 161 638 l 161 619 l 158 601 l 153 583 l 149 567 l 136 532 l 133 517 l 126 497 l 121 482 l 117 467 l 108 451 l 94 431 l 75 414 l 58 403 l 46 388 l 43 371 l 40 353 l 47 339 l 60 325 l 78 319 l 97 319 l 117 324 l 132 331 l 157 344 l 182 353 l 201 354 l 217 353 l 236 354 l 274 356 l 292 353 l 310 351 l 335 346 l 363 342 l 378 338 l 397 324 l 406 306 l 403 286 l 401 267 l 403 250 l 400 232 l 396 197 l 394 161 l 396 142 l 394 124 l 394 108 l 396 89 l 393 72 z m 317 404 l 313 394 l 303 389 l 306 399 l 317 404 l 322 408 l 322 406 z m 549 294 l 551 299 l 556 306 l 563 306 l 560 299 l 554 297 l 549 294 l 546 290 l 542 288 l 544 290 z m 211 701 l 221 696 l 219 686 l 211 689 l 210 699 l 203 704 l 196 706 l 194 714 l 203 713 l 206 707 z m 193 682 l 201 679 l 201 665 l 196 661 l 190 665 l 189 679 z m 174 532 l 181 532 l 186 536 l 194 546 l 201 540 l 193 531 l 185 518 l 182 514 l 168 518 l 167 525 l 160 533 l 157 540 l 164 538 z m 446 408 l 447 414 l 451 418 l 464 418 l 463 407 l 457 403 l 450 403 l 446 396 l 447 389 l 451 385 l 463 374 l 463 369 l 451 361 l 447 364 l 442 374 l 439 378 l 428 386 l 429 397 l 435 400 l 442 403 z m 524 304 l 518 300 l 511 307 l 506 310 l 500 313 l 494 310 l 490 307 l 485 304 l 475 296 l 469 290 l 465 288 l 460 278 l 449 278 l 442 282 l 438 288 l 432 292 l 428 297 l 428 308 l 438 313 l 446 303 l 450 299 l 457 299 l 460 303 l 469 313 l 475 317 l 481 321 l 485 325 l 490 328 l 500 336 l 508 326 l 513 321 l 518 315 l 524 308 z m 438 182 l 454 161 l 454 153 l 446 142 l 442 136 l 444 131 l 447 125 l 457 117 l 458 110 l 451 100 l 449 94 l 449 88 l 451 81 l 457 72 l 451 68 l 446 75 l 435 85 l 431 89 l 435 96 l 444 107 l 442 114 l 435 124 l 429 131 l 429 136 l 432 142 l 442 153 l 442 160 l 438 164 l 428 172 l 429 182 z m 438 354 l 446 346 l 450 343 l 456 338 l 465 332 l 467 325 l 458 317 l 454 317 l 446 326 l 440 331 l 438 335 l 432 338 l 424 349 l 431 354 z m 142 426 l 132 424 l 126 418 l 122 414 l 114 404 l 108 408 l 113 418 l 117 424 l 119 431 l 122 435 l 131 443 l 140 438 z m 204 407 l 196 400 l 192 396 l 186 390 l 178 381 l 168 388 l 168 392 l 176 400 l 183 406 l 189 410 l 196 418 l 204 415 z m 354 385 l 342 378 l 338 372 l 332 368 l 324 376 l 328 381 l 336 390 l 342 399 l 353 396 z m 460 497 l 451 494 l 446 499 l 439 508 l 440 517 l 451 513 l 458 508 z m 376 368 l 382 364 l 386 360 l 392 356 l 399 350 l 392 343 l 383 350 l 378 354 l 374 360 l 367 368 l 369 372 z m 511 681 l 508 676 l 504 669 l 496 663 l 490 668 l 494 678 l 500 682 l 504 686 l 513 690 z m 142 396 l 140 382 l 129 382 l 128 388 l 129 397 z m 164 408 l 160 406 l 149 406 l 149 418 l 163 419 z m 419 364 l 406 363 l 406 376 l 419 378 z m 481 692 l 482 683 l 469 682 l 469 692 z m 439 258 l 428 256 l 429 268 l 439 268 z m 446 549 l 454 549 l 458 546 l 458 538 l 449 538 z m 119 364 l 108 363 l 108 372 l 118 374 z m 222 772 l 213 774 l 214 783 l 224 782 z m 201 760 l 201 750 l 192 751 l 192 761 z m 482 643 l 474 643 l 475 653 l 483 651 z m 222 385 l 214 386 l 217 396 l 224 392 z m 267 388 l 257 389 l 260 397 l 268 396 z m 181 428 l 171 426 l 171 436 l 181 438 z m 217 731 l 217 740 l 226 740 l 226 732 z m 149 492 l 150 501 l 158 500 l 158 490 z m 478 515 l 469 515 l 469 525 l 481 525 z m 454 451 l 454 460 l 463 461 l 463 453 z m 504 707 l 496 708 l 499 715 l 504 714 z m 438 224 l 438 214 l 428 215 l 429 224 z m 458 246 l 457 239 l 449 239 l 450 246 z m 200 622 l 192 622 l 193 632 l 201 631 z m 474 474 l 474 482 l 482 482 l 482 476 z m 94 385 l 86 385 l 86 392 l 94 390 z m 418 324 l 408 322 l 408 332 l 417 332 z m 419 158 l 419 151 l 413 151 l 413 158 z m 93 344 l 86 344 l 86 353 l 94 353 z m 181 564 l 181 558 l 174 558 l 174 564 z m 481 610 l 481 601 l 472 600 l 472 608 z m 436 51 l 435 44 l 428 46 l 428 51 z m 399 386 l 388 386 l 390 396 l 399 394 z m 181 643 l 174 644 l 175 651 l 182 650 z m 178 474 l 171 476 l 172 485 l 181 481 z m 200 579 l 193 581 l 194 588 l 201 586 z m 501 625 l 493 625 l 494 632 l 503 632 z m 153 363 l 150 371 l 158 371 l 158 364 z m 68 364 l 67 372 l 74 372 l 75 367 z m 436 471 l 431 472 l 435 478 l 439 476 z m 478 431 l 472 428 l 469 435 l 476 438 z m 158 458 l 157 451 l 150 453 l 153 460 z m 457 194 l 450 196 l 451 200 l 457 200 z m 178 600 l 172 601 l 175 607 l 181 607 z m 478 560 l 472 564 l 475 569 l 482 567 z m 193 794 l 193 799 l 199 799 l 199 794 z m 200 836 l 194 836 l 194 842 l 200 842 z m 417 68 l 413 68 l 413 71 l 417 71 z m 222 649 l 221 643 l 217 644 l 218 649 z m 132 349 l 129 346 l 128 351 l 132 353 z m 540 325 l 536 326 l 538 331 l 542 331 z m 417 110 l 413 108 l 411 114 l 417 114 z m 500 588 l 501 581 l 494 581 l 494 586 z m 214 864 l 221 864 l 221 858 l 214 858 z m 458 582 l 451 583 l 454 589 l 458 589 z m 458 628 l 458 625 l 454 626 l 456 631 z m 239 410 l 239 415 l 244 414 l 242 410 z m 131 472 l 132 478 l 138 476 l 138 471 z "},"5":{"ha":593,"x_min":0,"x_max":0,"o":"m 99 599 l 92 574 l 90 547 l 100 533 l 114 524 l 139 526 l 167 536 l 182 543 l 200 549 l 217 551 l 235 556 l 264 561 l 300 564 l 325 563 l 343 558 l 361 554 l 390 540 l 407 529 l 417 517 l 431 504 l 439 490 l 446 472 l 453 458 l 461 421 l 467 404 l 468 333 l 465 314 l 461 297 l 460 279 l 456 261 l 453 243 l 446 226 l 435 193 l 414 161 l 404 146 l 394 133 l 382 122 l 368 113 l 354 101 l 336 92 l 304 81 l 285 76 l 261 76 l 224 76 l 200 86 l 183 94 l 169 106 l 154 118 l 146 132 l 133 167 l 125 201 l 119 218 l 115 246 l 104 267 l 89 271 l 68 274 l 51 267 l 44 243 l 42 218 l 40 200 l 43 181 l 49 163 l 53 144 l 60 128 l 64 110 l 85 78 l 94 65 l 107 51 l 133 31 l 149 21 l 185 4 l 218 -3 l 235 -4 l 264 -3 l 289 -1 l 325 6 l 342 10 l 360 14 l 407 39 l 419 49 l 435 61 l 449 71 l 461 83 l 472 99 l 483 113 l 492 126 l 499 143 l 510 160 l 524 192 l 529 208 l 535 226 l 540 243 l 540 263 l 544 278 l 549 297 l 547 314 l 551 332 l 550 386 l 550 404 l 549 422 l 539 475 l 533 492 l 525 510 l 517 524 l 508 540 l 500 556 l 488 567 l 476 581 l 447 604 l 435 613 l 419 621 l 383 632 l 328 639 l 314 638 l 293 639 l 275 635 l 261 633 l 242 631 l 224 626 l 208 619 l 193 622 l 188 636 l 192 651 l 196 668 l 201 686 l 208 722 l 211 756 l 217 792 l 224 807 l 244 817 l 261 814 l 315 817 l 333 815 l 351 815 l 386 822 l 401 826 l 421 828 l 451 840 l 471 847 l 483 857 l 497 868 l 514 889 l 521 914 l 514 933 l 501 943 l 486 947 l 461 936 l 435 921 l 421 914 l 403 907 l 385 903 l 344 897 l 329 894 l 310 893 l 290 890 l 274 892 l 236 889 l 210 890 l 183 889 l 163 883 l 149 872 l 140 857 l 135 831 l 135 803 l 132 786 l 133 771 l 128 753 l 128 735 l 119 697 l 117 681 l 107 631 l 103 615 z m 428 140 l 425 133 l 418 132 l 421 140 l 425 143 l 433 151 l 436 157 l 443 158 l 443 150 l 438 147 z m 486 325 l 485 328 l 492 335 l 494 339 l 496 346 l 493 351 l 488 360 l 492 364 l 500 358 l 507 356 l 510 351 l 508 339 l 506 335 l 499 332 l 494 328 z m 478 194 l 479 206 l 490 204 l 489 194 z m 488 236 l 476 238 l 478 247 l 488 246 z m 508 257 l 497 257 l 497 267 l 507 267 z m 339 54 l 338 44 l 329 44 l 329 56 z m 424 554 l 417 554 l 413 567 l 422 565 z m 167 596 l 157 594 l 158 604 l 167 606 z m 379 857 l 369 857 l 371 867 l 381 865 z m 488 490 l 478 490 l 478 500 l 488 501 z m 422 90 l 413 90 l 413 99 l 421 99 z m 499 429 l 500 440 l 508 439 l 508 428 z m 464 131 l 457 132 l 458 142 l 467 140 z m 165 44 l 157 46 l 160 54 l 167 53 z m 317 25 l 311 25 l 311 33 l 318 33 z m 211 607 l 211 600 l 204 600 l 201 607 z m 103 203 l 104 194 l 94 194 l 94 203 z m 464 517 l 457 514 l 456 522 l 463 525 z m 507 215 l 497 215 l 499 224 l 508 224 z m 351 67 l 351 74 l 358 75 l 360 67 z m 392 579 l 392 588 l 400 586 l 400 579 z m 167 810 l 160 810 l 158 817 l 165 818 z m 293 44 l 285 46 l 288 53 l 294 53 z m 521 414 l 529 415 l 529 407 l 522 407 z m 167 769 l 160 771 l 158 781 l 165 778 z m 293 864 l 294 857 l 286 856 l 285 863 z m 165 568 l 167 563 l 160 560 l 158 568 z m 339 603 l 336 596 l 329 597 l 332 604 z m 251 43 l 244 44 l 246 51 l 253 51 z m 182 579 l 181 585 l 188 586 l 189 579 z m 144 588 l 144 581 l 139 581 l 139 588 z m 379 599 l 371 600 l 372 606 l 381 604 z m 125 88 l 118 86 l 117 93 l 124 94 z m 188 756 l 185 747 l 179 749 l 181 757 z m 467 182 l 467 175 l 460 174 l 460 181 z m 401 75 l 400 69 l 393 71 l 393 76 z m 146 69 l 140 67 l 139 74 l 144 75 z m 503 301 l 500 307 l 508 307 l 508 301 z m 508 386 l 504 386 l 504 393 l 508 393 z m 403 878 l 397 878 l 394 883 l 403 883 z m 486 281 l 479 281 l 479 286 l 486 286 z m 421 856 l 415 856 l 417 863 l 421 863 z m 125 601 l 119 600 l 117 606 l 122 607 z m 186 793 l 179 793 l 178 800 l 185 800 z m 181 831 l 181 838 l 188 838 l 188 831 z m 158 725 l 158 732 l 165 732 l 165 724 z m 360 585 l 360 579 l 354 579 l 353 585 z m 443 578 l 438 579 l 438 585 l 443 583 z m 479 450 l 479 457 l 486 457 l 486 450 z m 253 603 l 253 599 l 247 599 l 247 604 z m 165 640 l 160 642 l 160 649 l 167 647 z m 504 182 l 503 176 l 499 179 l 500 183 z m 446 113 l 440 111 l 439 118 l 444 118 z m 99 113 l 96 118 l 104 118 l 104 114 z m 164 686 l 158 686 l 158 693 l 164 693 z m 179 706 l 181 711 l 185 710 l 183 706 z m 463 554 l 458 556 l 460 563 l 464 561 z m 508 476 l 504 478 l 504 482 l 508 482 z m 275 25 l 268 26 l 269 33 l 276 31 z m 208 861 l 208 856 l 201 856 l 201 860 z m 271 843 l 272 840 l 268 838 l 267 842 z m 464 899 l 461 899 l 461 903 l 464 903 z m 528 321 l 524 321 l 522 325 l 528 325 z m 226 33 l 231 31 l 229 26 l 225 26 z m 103 157 l 101 153 l 96 153 l 99 160 z m 336 864 l 336 860 l 331 860 l 332 865 z m 246 860 l 247 864 l 251 863 l 251 858 z m 443 536 l 439 538 l 440 543 l 444 542 z m 75 132 l 74 136 l 78 139 l 79 135 z m 482 154 l 482 158 l 488 158 l 486 154 z m 186 67 l 183 65 l 182 71 l 186 71 z m 419 601 l 417 601 l 417 604 l 418 604 z m 144 621 l 140 622 l 140 625 l 144 625 z m 228 835 l 225 838 l 229 840 l 231 836 z "},"6":{"ha":694,"x_min":0,"x_max":0,"o":"m 374 81 l 354 81 l 339 83 l 321 89 l 306 96 l 289 106 l 278 119 l 253 147 l 244 163 l 238 178 l 229 196 l 222 213 l 219 231 l 213 249 l 213 267 l 210 283 l 207 301 l 208 321 l 204 336 l 206 364 l 208 390 l 215 410 l 226 429 l 242 440 l 254 453 l 271 463 l 288 469 l 303 476 l 319 483 l 333 490 l 404 499 l 433 499 l 460 494 l 478 489 l 490 482 l 519 458 l 533 443 l 538 428 l 544 413 l 551 394 l 556 378 l 558 357 l 560 339 l 558 321 l 556 304 l 554 286 l 551 267 l 547 249 l 540 231 l 536 215 l 528 197 l 518 182 l 506 168 l 499 153 l 474 124 l 460 113 l 446 103 l 428 96 l 411 88 l 392 83 z m 475 572 l 438 578 l 413 576 l 376 575 l 346 571 l 307 560 l 289 551 l 272 544 l 257 538 l 243 528 l 229 526 l 224 542 l 224 558 l 228 578 l 229 594 l 235 614 l 242 631 l 246 647 l 254 665 l 260 683 l 267 700 l 281 733 l 289 750 l 297 765 l 308 778 l 319 793 l 332 807 l 347 817 l 378 835 l 411 846 l 435 847 l 461 847 l 479 843 l 497 838 l 511 829 l 529 818 l 542 808 l 551 793 l 561 776 l 569 756 l 589 739 l 606 738 l 622 743 l 636 753 l 639 776 l 635 801 l 618 833 l 611 849 l 588 875 l 572 888 l 557 896 l 542 904 l 526 914 l 510 919 l 494 924 l 476 926 l 458 928 l 432 929 l 404 926 l 368 918 l 353 913 l 338 904 l 324 894 l 306 885 l 292 874 l 276 863 l 264 850 l 254 836 l 231 808 l 224 792 l 213 776 l 199 744 l 189 728 l 183 711 l 178 693 l 171 676 l 165 658 l 158 642 l 157 624 l 153 606 l 149 569 l 142 551 l 138 532 l 139 514 l 133 497 l 133 478 l 131 460 l 126 435 l 115 413 l 104 400 l 86 378 l 60 343 l 46 319 l 42 294 l 49 279 l 60 269 l 75 267 l 94 279 l 113 299 l 125 301 l 131 289 l 132 272 l 133 251 l 136 235 l 142 218 l 149 189 l 160 163 l 165 146 l 174 131 l 181 114 l 190 99 l 200 83 l 226 58 l 239 44 l 254 33 l 265 25 l 285 17 l 301 10 l 329 4 l 365 1 l 393 1 l 407 4 l 426 7 l 442 13 l 460 19 l 475 26 l 508 49 l 521 58 l 549 85 l 557 99 l 569 111 l 592 143 l 599 157 l 604 174 l 613 192 l 618 210 l 624 225 l 629 244 l 633 261 l 635 279 l 636 299 l 640 314 l 636 332 l 639 350 l 636 371 l 636 386 l 624 439 l 615 457 l 607 474 l 600 489 l 590 503 l 575 515 l 564 528 l 550 540 l 536 549 l 517 558 z m 219 504 l 222 511 l 226 513 l 226 507 l 221 503 l 218 497 l 215 489 l 210 488 l 201 488 l 204 497 l 215 500 z m 178 481 l 192 478 l 192 467 l 182 464 l 174 472 l 164 482 l 158 486 l 161 497 l 172 494 l 174 488 z m 167 453 l 171 446 l 164 438 l 158 433 l 154 429 l 142 424 l 142 435 l 146 440 l 150 444 l 154 447 l 157 451 z m 200 447 l 206 460 l 210 465 l 215 469 l 224 476 l 229 472 l 225 465 l 222 460 l 218 454 l 214 449 l 207 444 z m 186 214 l 176 219 l 171 225 l 165 228 l 158 238 l 163 242 l 171 236 l 175 232 l 178 228 l 183 225 l 189 219 z m 249 110 l 244 103 l 240 97 l 236 93 l 228 88 l 224 90 l 228 97 l 233 103 l 239 108 l 246 113 z m 178 422 l 178 433 l 190 435 l 190 422 z m 150 339 l 138 338 l 138 350 l 150 351 z m 169 318 l 157 317 l 157 331 l 168 331 z m 126 371 l 126 358 l 114 358 l 113 371 z m 126 328 l 126 317 l 115 317 l 114 328 z m 157 404 l 158 417 l 169 415 l 168 404 z m 231 721 l 222 724 l 222 731 l 232 729 z m 528 129 l 518 128 l 517 138 l 526 138 z m 524 846 l 514 843 l 517 854 l 526 856 z m 85 317 l 75 318 l 75 328 l 85 326 z m 139 296 l 138 306 l 147 308 l 149 297 z m 149 393 l 149 382 l 138 382 l 138 393 z m 104 338 l 94 338 l 96 349 l 107 347 z m 379 22 l 371 22 l 369 31 l 378 32 z m 525 510 l 518 510 l 519 518 l 526 515 z m 189 510 l 179 510 l 179 519 l 189 518 z m 265 814 l 272 814 l 274 806 l 265 806 z m 356 854 l 354 846 l 347 847 l 350 856 z m 188 558 l 188 553 l 181 553 l 179 560 z m 563 426 l 563 433 l 569 433 l 571 426 z m 207 614 l 200 614 l 201 619 l 208 619 z m 314 44 l 307 46 l 310 53 l 315 50 z m 274 51 l 272 46 l 265 47 l 265 53 z m 485 889 l 479 890 l 479 897 l 485 896 z m 253 790 l 250 783 l 244 783 l 244 792 z m 592 236 l 585 235 l 582 243 l 590 243 z m 499 868 l 499 876 l 506 876 l 507 868 z m 251 68 l 244 67 l 244 72 l 250 74 z m 432 897 l 439 897 l 440 890 l 433 890 z m 165 363 l 157 363 l 157 369 l 164 371 z m 440 44 l 435 44 l 435 50 l 440 50 z m 589 194 l 585 194 l 585 200 l 590 200 z m 485 88 l 479 89 l 481 94 l 485 94 z m 496 111 l 496 117 l 504 115 l 503 111 z m 293 833 l 293 826 l 288 826 l 288 833 z m 397 46 l 392 46 l 392 51 l 397 50 z m 356 46 l 351 46 l 351 50 l 356 50 z m 288 786 l 285 786 l 283 792 l 288 792 z m 564 256 l 565 261 l 569 260 l 569 256 z m 547 192 l 543 193 l 543 197 l 547 197 z m 333 835 l 335 831 l 332 829 l 331 833 z m 182 174 l 178 178 l 181 182 l 186 179 z m 588 278 l 582 279 l 582 285 l 588 285 z m 265 510 l 267 515 l 271 514 l 271 510 z m 160 279 l 160 286 l 165 285 l 165 279 z m 567 854 l 567 849 l 561 847 l 563 853 z m 250 747 l 251 743 l 247 742 l 246 746 z m 586 829 l 582 831 l 583 835 l 588 833 z m 231 771 l 232 767 l 226 764 l 226 769 z m 183 346 l 185 342 l 179 342 l 179 346 z m 590 326 l 589 321 l 583 321 l 585 326 z m 439 514 l 435 514 l 435 518 l 439 518 z m 608 299 l 604 301 l 607 304 l 611 303 z m 179 301 l 182 307 l 186 306 l 185 300 z m 100 306 l 100 301 l 96 301 l 96 306 z m 201 150 l 201 156 l 207 156 l 207 150 z m 539 151 l 539 157 l 544 157 l 544 151 z m 588 447 l 583 446 l 583 450 l 588 451 z m 547 829 l 542 828 l 540 833 l 546 835 z m 167 199 l 169 193 l 164 192 l 163 197 z m 188 597 l 182 597 l 183 601 l 188 601 z m 124 403 l 119 406 l 121 410 l 126 408 z m 143 468 l 139 468 l 139 472 l 143 472 z m 567 468 l 563 469 l 564 474 l 568 472 z m 288 64 l 285 65 l 286 71 l 289 69 z m 333 532 l 329 533 l 331 538 l 335 538 z m 163 533 l 158 535 l 160 539 l 164 539 z m 210 707 l 208 703 l 204 703 l 206 707 z m 335 24 l 331 24 l 332 28 l 335 28 z m 565 172 l 561 174 l 563 178 l 565 176 z m 267 768 l 268 765 l 265 764 l 265 768 z m 204 533 l 200 535 l 200 539 l 204 538 z m 463 533 l 458 533 l 458 538 l 463 538 z m 185 385 l 181 386 l 182 390 l 186 390 z m 376 872 l 375 867 l 371 869 l 372 874 z m 525 94 l 525 89 l 521 92 l 522 94 z m 333 869 l 332 872 l 332 874 l 335 872 z "},"7":{"ha":629,"x_min":0,"x_max":0,"o":"m 463 876 l 447 874 l 428 872 l 388 876 l 372 878 l 338 886 l 321 890 l 267 903 l 250 908 l 235 914 l 217 917 l 203 918 l 183 922 l 147 921 l 132 918 l 114 910 l 100 900 l 86 889 l 74 872 l 67 857 l 54 822 l 53 799 l 56 774 l 69 764 l 82 758 l 103 761 l 121 781 l 138 819 l 149 829 l 165 836 l 186 840 l 203 840 l 256 828 l 271 822 l 301 813 l 329 807 l 344 806 l 363 803 l 378 803 l 396 793 l 396 778 l 386 764 l 378 749 l 372 732 l 365 715 l 361 700 l 351 682 l 344 667 l 340 650 l 332 633 l 326 618 l 319 600 l 315 583 l 310 568 l 306 550 l 297 532 l 296 514 l 289 497 l 285 481 l 281 464 l 278 447 l 261 429 l 244 421 l 225 422 l 208 425 l 193 424 l 174 422 l 150 417 l 125 406 l 119 388 l 122 371 l 128 356 l 156 349 l 186 349 l 225 351 l 243 340 l 249 321 l 247 304 l 244 288 l 240 268 l 236 250 l 232 232 l 231 215 l 231 196 l 224 161 l 224 142 l 218 104 l 218 85 l 215 67 l 219 49 l 222 24 l 232 4 l 250 -1 l 267 -1 l 285 6 l 297 26 l 300 51 l 303 68 l 306 106 l 307 124 l 310 140 l 310 158 l 314 175 l 315 192 l 318 210 l 319 229 l 324 265 l 329 282 l 328 300 l 335 317 l 346 333 l 364 343 l 386 342 l 404 342 l 439 342 l 464 349 l 488 361 l 496 376 l 494 396 l 485 413 l 457 415 l 431 413 l 413 413 l 399 413 l 382 413 l 364 422 l 363 439 l 368 457 l 376 493 l 396 544 l 400 564 l 408 582 l 418 618 l 426 633 l 433 650 l 439 668 l 447 685 l 457 700 l 464 715 l 483 749 l 492 764 l 510 781 l 535 790 l 549 794 l 565 804 l 578 817 l 588 829 l 589 847 l 583 865 l 575 878 l 563 889 l 547 897 l 528 900 l 510 899 l 494 894 l 475 886 z m 308 367 l 303 357 l 293 358 l 292 368 l 303 375 l 310 376 l 310 385 l 314 390 l 326 390 l 326 378 l 319 375 l 310 375 z m 372 632 l 367 633 l 357 638 l 357 643 l 365 650 l 369 654 l 374 658 l 379 669 l 390 665 l 390 660 l 382 651 l 378 646 l 376 639 l 381 632 l 389 622 l 385 613 l 376 617 l 376 628 z m 97 822 l 88 824 l 82 826 l 81 838 l 90 849 l 94 853 l 104 864 l 114 857 l 106 847 l 101 840 l 99 835 l 97 828 l 101 818 l 100 821 z m 369 379 l 363 376 l 353 385 l 347 390 l 343 396 l 333 404 l 340 413 l 350 407 l 357 403 l 361 397 l 365 393 l 372 388 z m 306 403 l 299 397 l 289 406 l 285 411 l 281 417 l 275 426 l 279 432 l 286 428 l 292 424 l 297 418 l 301 413 z m 197 382 l 193 378 l 183 371 l 179 365 l 175 361 l 167 368 l 171 374 l 176 378 l 183 388 l 190 393 l 197 390 z m 261 107 l 265 103 l 272 99 l 278 93 l 282 89 l 281 78 l 271 83 l 265 89 l 261 93 l 250 104 l 253 108 z m 133 874 l 124 872 l 119 875 l 117 881 l 114 890 l 124 888 l 131 885 z m 314 421 l 313 433 l 325 435 l 326 422 z m 432 754 l 432 740 l 421 740 l 421 751 z m 272 338 l 271 349 l 281 351 l 285 349 l 285 338 z m 260 58 l 250 60 l 250 69 l 261 69 z m 379 357 l 378 367 l 388 367 l 389 358 z m 497 807 l 486 807 l 488 818 l 499 818 z m 401 722 l 401 733 l 413 732 l 413 722 z m 424 786 l 424 797 l 433 797 l 435 788 z m 475 786 l 464 786 l 465 797 l 476 796 z m 347 358 l 336 360 l 335 371 l 346 371 z m 369 594 l 360 593 l 361 604 l 371 604 z m 261 154 l 260 144 l 251 147 l 251 156 z m 488 850 l 486 860 l 496 860 l 497 849 z m 518 829 l 507 829 l 507 839 l 517 840 z m 456 808 l 446 807 l 444 818 l 454 818 z m 410 681 l 400 681 l 400 692 l 410 690 z m 324 476 l 325 468 l 315 468 l 315 476 z m 389 831 l 381 831 l 381 840 l 389 839 z m 251 231 l 251 239 l 260 238 l 258 229 z m 261 188 l 251 188 l 250 197 l 260 197 z m 282 296 l 272 296 l 271 306 l 279 306 z m 368 560 l 367 550 l 357 551 l 360 561 z m 401 808 l 403 818 l 411 817 l 411 808 z m 344 489 l 338 489 l 338 497 l 346 496 z m 186 894 l 188 901 l 194 903 l 194 894 z m 304 326 l 303 317 l 294 317 l 296 326 z m 390 708 l 390 700 l 382 700 l 382 708 z m 346 585 l 347 576 l 340 575 l 338 582 z m 239 382 l 232 382 l 231 390 l 239 390 z m 303 838 l 306 832 l 299 831 l 296 838 z m 296 442 l 294 450 l 304 451 l 304 443 z m 336 449 l 338 456 l 344 454 l 344 446 z m 322 853 l 317 854 l 319 861 l 325 858 z m 533 851 l 532 860 l 539 860 l 539 853 z m 453 851 l 446 850 l 447 857 l 454 857 z m 153 893 l 146 894 l 147 901 l 154 900 z m 343 831 l 338 832 l 338 838 l 344 838 z m 282 125 l 275 126 l 275 133 l 282 132 z m 431 828 l 422 828 l 422 835 l 431 835 z m 165 876 l 164 883 l 171 885 l 172 878 z m 260 315 l 254 315 l 253 324 l 260 322 z m 276 382 l 275 389 l 283 390 l 283 382 z m 218 367 l 218 361 l 211 361 l 211 367 z m 275 172 l 275 176 l 282 176 l 281 169 z m 260 404 l 254 403 l 254 408 l 260 408 z m 306 494 l 307 489 l 301 488 l 300 493 z m 239 83 l 233 83 l 235 89 l 239 89 z m 253 275 l 254 282 l 260 281 l 260 274 z m 301 281 l 301 274 l 296 272 l 294 279 z m 464 838 l 474 838 l 471 829 l 463 831 z m 411 776 l 410 769 l 403 769 l 404 776 z m 403 640 l 403 644 l 408 646 l 407 640 z m 282 257 l 276 256 l 278 261 l 282 261 z m 426 703 l 428 707 l 432 708 l 432 703 z m 325 338 l 318 339 l 319 344 l 325 344 z m 238 126 l 233 126 l 235 131 l 239 131 z m 151 861 l 150 856 l 146 857 l 146 863 z m 317 511 l 318 515 l 324 515 l 322 510 z m 407 383 l 404 383 l 404 388 l 408 386 z m 257 358 l 250 358 l 251 365 l 258 364 z m 210 874 l 207 879 l 213 879 l 215 874 z m 385 576 l 385 574 l 381 574 l 382 578 z m 279 211 l 274 210 l 274 217 l 279 215 z m 239 42 l 236 42 l 236 46 l 240 44 z m 294 233 l 296 238 l 301 238 l 300 232 z m 410 857 l 410 851 l 404 851 l 404 857 z m 453 731 l 450 726 l 447 729 l 449 732 z m 344 535 l 340 533 l 339 538 l 343 539 z m 451 768 l 447 768 l 447 774 l 453 772 z m 254 874 l 254 876 l 258 875 l 257 872 z "},"8":{"ha":575,"x_min":0,"x_max":0,"o":"m 307 79 l 251 79 l 233 82 l 217 89 l 200 96 l 185 104 l 168 115 l 157 129 l 144 143 l 136 160 l 128 196 l 125 214 l 126 243 l 126 271 l 133 286 l 135 304 l 143 319 l 150 336 l 165 360 l 181 381 l 189 394 l 206 407 l 232 428 l 244 440 l 258 450 l 272 463 l 294 467 l 318 461 l 328 449 l 365 413 l 379 401 l 392 386 l 410 360 l 421 344 l 429 329 l 438 313 l 442 296 l 442 279 l 444 263 l 447 235 l 447 207 l 440 189 l 438 172 l 428 154 l 418 139 l 406 125 l 393 111 l 379 103 l 343 88 z m 200 710 l 193 735 l 196 779 l 203 797 l 210 811 l 224 825 l 250 842 l 268 849 l 294 850 l 319 849 l 340 847 l 357 839 l 369 832 l 382 822 l 393 808 l 403 790 l 408 774 l 410 758 l 410 738 l 406 713 l 397 685 l 392 671 l 381 654 l 374 640 l 346 613 l 333 599 l 318 588 l 299 581 l 278 586 l 264 601 l 251 614 l 226 643 l 215 658 l 208 674 l 200 692 z m 378 506 l 374 525 l 381 540 l 394 551 l 406 564 l 426 582 l 442 604 l 454 617 l 463 633 l 475 664 l 481 681 l 489 736 l 489 754 l 488 772 l 483 790 l 482 808 l 476 824 l 471 840 l 458 856 l 447 872 l 436 886 l 424 897 l 407 904 l 392 913 l 376 919 l 357 924 l 338 926 l 321 928 l 294 929 l 269 928 l 250 922 l 225 913 l 200 903 l 183 893 l 169 882 l 161 869 l 147 857 l 139 842 l 128 826 l 122 810 l 117 792 l 114 775 l 108 757 l 107 729 l 110 704 l 114 689 l 122 671 l 124 656 l 133 638 l 143 624 l 151 608 l 163 592 l 174 581 l 186 567 l 200 554 l 213 543 l 219 528 l 210 511 l 171 475 l 158 464 l 146 451 l 135 439 l 110 411 l 99 397 l 86 382 l 69 351 l 63 335 l 53 318 l 49 301 l 43 285 l 39 240 l 38 213 l 42 196 l 43 178 l 46 161 l 51 143 l 54 126 l 64 110 l 74 94 l 82 81 l 106 53 l 118 42 l 135 32 l 147 24 l 165 17 l 178 10 l 214 1 l 247 -4 l 297 -4 l 325 -1 l 368 11 l 408 26 l 424 36 l 456 60 l 469 71 l 479 83 l 492 99 l 503 115 l 508 132 l 517 147 l 528 183 l 529 201 l 535 229 l 532 256 l 529 275 l 526 292 l 526 308 l 519 325 l 513 343 l 499 374 l 488 389 l 478 406 l 467 419 l 456 432 l 446 444 l 432 458 l 417 471 l 406 482 l 392 493 z m 474 251 l 478 250 l 488 247 l 490 238 l 481 235 l 472 243 l 471 249 z m 421 83 l 414 79 l 403 64 l 393 64 l 392 74 l 396 78 l 406 86 l 408 90 l 417 96 l 422 92 z m 453 129 l 450 136 l 450 146 l 461 144 l 465 140 l 465 128 z m 489 279 l 476 279 l 476 293 l 489 292 z m 318 533 l 306 535 l 307 544 l 311 549 l 321 546 z m 253 526 l 253 515 l 243 513 l 242 525 z m 510 214 l 497 215 l 500 225 l 510 225 z m 488 193 l 475 194 l 478 204 l 489 203 z m 263 538 l 264 550 l 276 549 l 275 536 z m 231 576 l 221 578 l 222 589 l 232 588 z m 325 558 l 326 568 l 338 568 l 336 558 z m 306 21 l 306 31 l 317 29 l 315 19 z m 456 769 l 456 781 l 467 781 l 467 769 z m 240 558 l 239 568 l 247 567 l 250 558 z m 315 492 l 306 489 l 306 501 l 317 501 z m 479 322 l 479 332 l 489 332 l 489 322 z m 338 515 l 329 515 l 326 522 l 338 525 z m 219 881 l 219 889 l 228 888 l 228 881 z m 358 503 l 358 493 l 349 492 l 347 503 z m 210 39 l 201 42 l 203 51 l 211 49 z m 433 68 l 435 75 l 443 74 l 442 67 z m 338 43 l 329 43 l 329 53 l 338 53 z m 167 694 l 167 685 l 158 686 l 158 694 z m 446 111 l 438 113 l 439 118 l 447 117 z m 157 85 l 157 93 l 164 93 l 164 85 z m 164 772 l 157 772 l 157 781 l 165 779 z m 443 414 l 446 406 l 438 406 l 436 414 z m 444 844 l 443 838 l 438 838 l 436 844 z m 507 171 l 499 172 l 501 181 l 510 179 z m 186 68 l 185 61 l 178 61 l 179 68 z m 203 478 l 208 476 l 206 471 l 201 472 z m 164 653 l 164 644 l 157 644 l 157 651 z m 443 674 l 443 665 l 436 665 l 436 674 z m 293 556 l 286 557 l 288 565 l 294 564 z m 360 581 l 353 579 l 351 586 l 358 589 z m 371 481 l 379 481 l 381 474 l 372 474 z m 378 600 l 369 601 l 372 608 l 379 608 z m 228 453 l 221 454 l 222 461 l 229 460 z m 435 753 l 438 758 l 443 757 l 443 751 z m 339 906 l 338 899 l 332 901 l 333 907 z m 165 726 l 158 726 l 158 735 l 165 735 z m 228 24 l 219 25 l 219 33 l 228 32 z m 179 836 l 178 843 l 186 843 l 186 836 z m 293 50 l 293 42 l 286 42 l 286 51 z m 165 46 l 157 47 l 158 56 l 167 54 z m 444 794 l 435 796 l 435 804 l 443 803 z m 76 258 l 69 258 l 69 267 l 78 267 z m 467 353 l 467 344 l 458 344 l 458 353 z m 503 258 l 503 267 l 510 264 l 508 256 z m 138 704 l 140 713 l 147 710 l 146 703 z m 69 214 l 71 222 l 79 221 l 79 213 z m 186 668 l 178 668 l 176 678 l 185 675 z m 313 881 l 307 881 l 307 886 l 314 885 z m 293 513 l 286 513 l 288 519 l 293 519 z m 138 67 l 138 72 l 143 72 l 144 68 z m 351 64 l 351 68 l 358 68 l 356 64 z m 293 10 l 293 4 l 288 6 l 289 11 z m 244 44 l 246 51 l 251 51 l 250 44 z m 486 158 l 485 151 l 479 153 l 479 158 z m 401 458 l 401 453 l 394 451 l 396 458 z m 264 492 l 264 500 l 271 500 l 272 492 z m 336 476 l 329 475 l 329 483 l 336 485 z m 422 431 l 417 431 l 417 436 l 422 436 z m 143 753 l 138 753 l 138 758 l 143 758 z m 465 689 l 460 689 l 460 694 l 465 694 z m 165 818 l 158 819 l 158 825 l 165 825 z m 422 389 l 418 390 l 419 394 l 424 393 z m 185 803 l 185 797 l 179 796 l 179 801 z m 207 601 l 203 601 l 203 607 l 207 607 z m 247 603 l 244 601 l 243 606 l 247 606 z m 458 89 l 460 94 l 464 93 l 464 88 z m 376 53 l 378 47 l 371 47 l 371 53 z m 122 88 l 117 89 l 117 94 l 124 94 z m 185 624 l 179 624 l 178 629 l 183 631 z m 101 153 l 96 153 l 94 158 l 101 158 z m 465 729 l 460 728 l 460 733 l 464 735 z m 101 199 l 96 197 l 96 204 l 101 204 z m 288 906 l 293 906 l 293 900 l 288 900 z m 142 364 l 136 365 l 138 369 l 143 369 z m 356 886 l 356 881 l 351 882 l 349 888 z m 485 113 l 479 111 l 479 114 l 483 117 z m 100 111 l 93 110 l 92 115 l 99 115 z m 101 328 l 101 322 l 96 322 l 96 328 z m 424 861 l 417 858 l 415 865 l 422 868 z m 376 860 l 371 863 l 374 868 l 379 864 z m 381 564 l 378 558 l 374 560 l 375 564 z m 358 544 l 358 538 l 351 536 l 351 543 z m 225 492 l 221 496 l 224 500 l 228 497 z m 424 651 l 422 646 l 417 644 l 417 651 z m 97 289 l 99 283 l 93 283 l 92 288 z m 204 643 l 201 643 l 200 647 l 204 647 z m 118 339 l 113 339 l 114 344 l 119 346 z m 507 299 l 503 300 l 504 304 l 508 304 z m 424 686 l 419 688 l 419 693 l 425 692 z m 357 453 l 351 454 l 353 458 l 357 458 z m 231 543 l 229 538 l 225 540 l 226 544 z m 422 610 l 422 607 l 417 607 l 418 610 z m 78 172 l 74 176 l 76 181 l 81 178 z m 99 236 l 94 239 l 96 243 l 100 242 z m 274 21 l 267 21 l 267 26 l 272 26 z m 464 172 l 461 175 l 463 178 l 465 176 z m 442 710 l 438 711 l 436 715 l 442 715 z m 78 132 l 74 132 l 74 136 l 78 136 z m 400 881 l 396 881 l 394 883 l 399 885 z m 394 624 l 396 628 l 400 626 l 399 622 z m 422 818 l 418 819 l 421 824 l 425 821 z m 204 863 l 201 863 l 201 867 l 206 867 z "},"9":{"ha":585,"x_min":0,"x_max":0,"o":"m 289 444 l 263 444 l 236 447 l 218 453 l 201 463 l 189 471 l 176 483 l 153 513 l 149 529 l 140 546 l 138 561 l 125 597 l 126 615 l 129 632 l 128 649 l 142 721 l 147 739 l 158 753 l 165 769 l 176 783 l 192 796 l 204 808 l 218 818 l 233 826 l 251 835 l 267 839 l 290 842 l 319 842 l 336 840 l 353 833 l 371 828 l 386 818 l 397 807 l 408 794 l 419 778 l 425 764 l 433 746 l 440 729 l 447 714 l 447 697 l 454 679 l 456 661 l 458 643 l 458 626 l 457 599 l 447 575 l 439 558 l 433 544 l 422 528 l 413 511 l 401 500 l 388 488 l 371 476 l 356 467 l 340 460 l 324 453 z m 317 922 l 265 919 l 244 917 l 225 911 l 207 907 l 192 900 l 163 883 l 146 872 l 132 860 l 121 850 l 110 835 l 99 821 l 76 790 l 68 774 l 61 758 l 56 740 l 47 707 l 44 688 l 42 668 l 39 653 l 40 617 l 39 597 l 44 579 l 43 561 l 47 544 l 53 525 l 60 508 l 65 492 l 75 476 l 82 461 l 103 432 l 119 419 l 131 407 l 146 397 l 160 386 l 175 378 l 194 372 l 211 369 l 231 364 l 283 365 l 304 368 l 321 372 l 338 381 l 358 388 l 403 415 l 432 442 l 443 456 l 450 461 l 454 451 l 449 435 l 450 415 l 444 397 l 443 379 l 439 363 l 433 344 l 429 326 l 421 310 l 418 293 l 411 276 l 401 258 l 393 243 l 382 229 l 375 213 l 353 185 l 339 171 l 321 154 l 297 135 l 256 108 l 238 100 l 213 89 l 186 82 l 158 74 l 139 61 l 133 43 l 138 25 l 149 11 l 175 4 l 199 3 l 219 8 l 286 33 l 300 42 l 317 50 l 332 61 l 346 71 l 364 83 l 376 94 l 388 108 l 401 122 l 417 135 l 432 157 l 444 176 l 467 210 l 475 225 l 481 242 l 497 276 l 501 293 l 507 311 l 513 328 l 515 347 l 529 382 l 532 400 l 532 419 l 536 436 l 536 454 l 539 472 l 540 490 l 543 510 l 543 529 l 540 557 l 542 583 l 540 603 l 540 618 l 539 639 l 533 674 l 531 693 l 528 710 l 517 746 l 511 763 l 503 781 l 497 799 l 490 814 l 482 829 l 469 843 l 458 857 l 449 869 l 417 890 l 400 897 l 386 907 l 371 911 l 353 915 l 333 921 z m 482 529 l 490 540 l 497 539 l 499 531 l 489 524 l 481 514 l 475 503 l 464 504 l 464 515 l 476 519 z m 133 463 l 126 458 l 117 449 l 110 457 l 119 465 l 124 469 l 133 472 z m 453 483 l 442 482 l 443 494 l 454 494 z m 496 567 l 486 567 l 483 571 l 483 581 l 494 579 z m 515 544 l 504 549 l 506 558 l 517 557 z m 93 590 l 82 589 l 82 601 l 93 601 z m 517 510 l 506 508 l 506 518 l 515 519 z m 483 486 l 485 496 l 494 493 l 492 483 z m 233 411 l 243 413 l 242 401 l 233 401 z m 85 636 l 83 644 l 94 646 l 94 636 z m 113 749 l 113 740 l 103 736 l 104 744 z m 178 846 l 168 847 l 169 854 l 178 853 z m 219 425 l 210 424 l 211 431 l 219 432 z m 389 849 l 381 849 l 381 856 l 389 857 z m 219 846 l 210 846 l 210 854 l 219 854 z m 486 365 l 494 367 l 493 357 l 485 356 z m 92 547 l 83 550 l 86 557 l 94 554 z m 94 672 l 85 671 l 85 682 l 93 682 z m 111 614 l 103 614 l 104 622 l 111 622 z m 113 493 l 113 485 l 106 486 l 106 494 z m 447 525 l 447 532 l 453 531 l 454 525 z m 104 529 l 104 536 l 111 535 l 111 528 z m 475 464 l 465 465 l 465 472 l 475 474 z m 515 465 l 507 465 l 507 472 l 515 472 z m 517 594 l 508 594 l 507 600 l 514 600 z m 92 508 l 83 510 l 83 517 l 92 515 z m 515 422 l 507 422 l 508 429 l 515 429 z m 496 413 l 494 403 l 488 403 l 489 413 z m 153 782 l 147 782 l 146 788 l 153 789 z m 93 765 l 94 758 l 88 758 l 88 765 z m 135 763 l 128 761 l 126 768 l 135 768 z m 83 721 l 83 726 l 92 726 l 92 719 z m 172 810 l 174 803 l 168 801 l 167 808 z m 111 703 l 111 696 l 104 697 l 104 704 z m 281 868 l 275 868 l 276 875 l 282 874 z m 211 44 l 211 50 l 219 50 l 218 44 z m 346 885 l 339 885 l 340 892 l 346 892 z m 154 444 l 149 444 l 150 450 l 157 449 z m 189 404 l 190 411 l 197 411 l 196 403 z m 282 75 l 282 68 l 276 67 l 276 74 z m 474 761 l 467 761 l 465 768 l 472 768 z m 517 635 l 511 636 l 511 642 l 517 640 z m 114 782 l 110 782 l 110 788 l 114 786 z m 147 825 l 149 831 l 154 831 l 154 825 z m 488 742 l 488 747 l 493 749 l 493 742 z m 296 88 l 297 92 l 303 92 l 303 88 z m 281 400 l 274 400 l 274 406 l 281 406 z m 365 868 l 361 868 l 361 872 l 365 872 z m 199 867 l 194 868 l 194 871 l 199 871 z m 496 447 l 489 446 l 488 454 l 494 454 z m 365 153 l 365 147 l 361 149 l 361 154 z m 422 215 l 422 221 l 429 221 l 428 215 z m 68 656 l 63 656 l 65 663 l 71 661 z m 132 514 l 132 508 l 126 508 l 125 514 z m 468 385 l 471 388 l 475 388 l 474 383 z m 69 699 l 67 699 l 68 703 l 71 703 z m 403 826 l 404 831 l 407 829 l 407 825 z m 240 868 l 235 868 l 235 874 l 240 874 z m 489 657 l 490 663 l 493 661 l 493 657 z m 113 657 l 108 657 l 108 664 l 114 664 z m 322 107 l 318 107 l 318 111 l 322 113 z m 451 783 l 447 783 l 447 789 l 450 789 z m 111 572 l 107 572 l 108 578 l 111 576 z m 474 553 l 468 554 l 469 558 l 474 558 z m 256 885 l 257 889 l 260 892 l 260 886 z m 344 131 l 340 129 l 340 133 l 343 133 z m 493 617 l 490 615 l 488 619 l 492 621 z m 69 618 l 67 618 l 68 622 l 69 621 z m 513 381 l 508 381 l 510 386 l 514 383 z m 339 421 l 340 425 l 344 424 l 342 421 z "}," ":{"ha":250,"x_min":0,"x_max":0,"o":""},"A":{"ha":1057,"x_min":0,"x_max":0,"o":"m 760 486 l 749 467 l 729 457 l 685 453 l 636 450 l 622 457 l 621 471 l 626 490 l 633 508 l 638 524 l 646 542 l 653 556 l 661 572 l 672 607 l 681 625 l 689 640 l 694 657 l 703 672 l 711 690 l 726 721 l 738 739 l 744 757 l 756 771 l 763 786 l 774 801 l 782 817 l 794 831 l 804 838 l 806 825 l 801 810 l 801 792 l 799 772 l 792 756 l 792 736 l 789 719 l 785 701 l 782 683 l 778 647 l 778 629 l 774 611 l 771 594 l 771 575 l 767 557 l 763 540 l 765 522 l 760 503 z m 1115 299 l 1096 286 l 1082 267 l 1075 249 l 1065 232 l 1058 215 l 1040 185 l 1032 168 l 1019 151 l 1008 140 l 999 125 l 988 111 l 976 103 l 961 93 l 943 86 l 918 85 l 894 88 l 881 97 l 869 114 l 858 129 l 856 146 l 850 164 l 846 185 l 846 203 l 843 221 l 840 249 l 842 275 l 840 293 l 836 311 l 836 329 l 839 347 l 839 367 l 842 403 l 842 418 l 839 439 l 842 456 l 846 510 l 847 529 l 850 549 l 849 567 l 861 656 l 865 672 l 867 692 l 867 710 l 869 726 l 875 746 l 878 763 l 878 782 l 879 800 l 882 817 l 885 836 l 888 854 l 894 871 l 893 890 l 897 907 l 901 935 l 900 960 l 889 972 l 875 979 l 857 982 l 843 979 l 819 964 l 799 950 l 788 938 l 776 924 l 751 896 l 731 868 l 718 854 l 701 824 l 690 808 l 679 792 l 674 776 l 665 761 l 653 746 l 646 728 l 638 713 l 629 696 l 624 681 l 613 665 l 607 650 l 596 631 l 592 614 l 583 600 l 578 581 l 568 565 l 556 532 l 544 517 l 539 500 l 531 485 l 525 467 l 506 451 l 486 442 l 468 440 l 449 439 l 429 440 l 413 440 l 354 444 l 329 443 l 311 432 l 301 417 l 301 399 l 307 383 l 322 371 l 350 364 l 369 361 l 389 361 l 404 363 l 424 361 l 442 361 l 458 356 l 461 339 l 450 322 l 433 289 l 422 275 l 393 228 l 382 210 l 374 194 l 349 168 l 325 140 l 301 115 l 283 106 l 272 96 l 254 89 l 238 83 l 210 81 l 185 82 l 164 85 l 150 90 l 136 104 l 119 125 l 97 140 l 78 139 l 61 131 l 49 115 l 47 88 l 58 61 l 71 46 l 83 33 l 100 22 l 124 10 l 171 -1 l 186 -3 l 215 -1 l 244 1 l 278 13 l 313 28 l 328 38 l 340 50 l 361 67 l 383 85 l 392 97 l 404 113 l 418 126 l 429 142 l 440 157 l 454 172 l 461 185 l 469 203 l 482 218 l 494 232 l 503 247 l 511 264 l 519 281 l 538 311 l 546 328 l 557 344 l 575 361 l 596 371 l 615 372 l 633 374 l 654 375 l 693 376 l 707 379 l 726 381 l 744 374 l 754 356 l 754 338 l 754 321 l 754 286 l 756 271 l 753 253 l 754 225 l 758 199 l 760 181 l 765 163 l 768 143 l 775 110 l 781 92 l 789 75 l 797 61 l 811 47 l 821 33 l 833 25 l 850 14 l 882 4 l 910 1 l 935 4 l 954 7 l 971 13 l 983 22 l 1001 32 l 1013 42 l 1025 54 l 1039 68 l 1051 79 l 1075 111 l 1082 124 l 1099 157 l 1111 169 l 1125 201 l 1136 218 l 1143 236 l 1147 261 l 1143 285 l 1132 296 z m 815 629 l 814 625 l 810 618 l 804 621 l 808 628 l 811 631 l 814 632 l 818 636 l 819 644 l 824 649 l 831 647 l 832 640 l 831 636 l 828 635 l 821 633 z m 493 383 l 490 379 l 482 379 l 478 382 l 478 389 l 481 392 l 489 393 l 492 390 z m 856 874 l 853 869 l 844 869 l 842 872 l 843 881 l 846 885 l 854 885 l 856 882 z m 458 396 l 456 399 l 454 407 l 457 410 l 460 411 l 468 411 l 471 408 l 469 400 l 467 397 z m 253 64 l 257 61 l 260 57 l 263 54 l 265 51 l 268 49 l 268 42 l 263 44 l 260 47 l 257 50 l 254 53 l 251 57 l 249 61 l 249 64 z m 517 403 l 514 400 l 510 399 l 500 400 l 499 408 l 501 413 l 507 415 l 515 414 l 517 411 z m 810 456 l 813 453 l 813 444 l 808 442 l 800 443 l 799 450 l 801 453 z m 554 443 l 551 442 l 543 442 l 540 444 l 542 451 l 546 456 l 554 453 z m 532 393 l 535 390 l 533 383 l 525 382 l 522 389 l 524 393 z m 878 939 l 875 936 l 867 936 l 864 939 l 864 949 l 872 950 l 876 947 z m 789 424 l 788 421 l 778 421 l 776 425 l 776 433 l 788 435 l 790 432 z m 789 851 l 779 851 l 778 854 l 778 863 l 782 865 l 789 864 l 790 860 z m 810 414 l 811 404 l 808 401 l 801 401 l 800 410 l 801 413 z m 813 489 l 804 488 l 800 494 l 801 497 l 808 499 l 811 497 z m 804 874 l 801 876 l 801 885 l 810 888 l 813 885 l 813 876 z m 706 419 l 699 419 l 696 422 l 694 425 l 697 432 l 704 432 l 707 428 z m 514 357 l 504 357 l 499 360 l 500 369 l 510 369 l 514 367 z m 793 517 l 793 508 l 792 507 l 785 507 l 782 508 l 783 517 l 785 518 z m 533 431 l 533 422 l 532 419 l 524 418 l 522 421 l 524 429 l 525 431 z m 789 383 l 779 383 l 778 386 l 778 393 l 786 393 l 789 390 z m 618 553 l 610 553 l 608 560 l 610 563 l 615 564 l 618 561 z m 831 861 l 833 858 l 833 850 l 825 849 l 822 851 l 822 858 z m 621 433 l 621 425 l 618 422 l 611 424 l 611 431 l 614 433 z m 438 382 l 439 389 l 446 386 l 444 381 z m 833 940 l 831 938 l 822 938 l 821 944 l 824 949 l 831 949 z m 767 400 l 758 401 l 757 410 l 760 411 l 767 411 l 769 408 z m 572 390 l 575 388 l 574 382 l 565 382 l 565 389 z m 790 904 l 792 896 l 790 893 l 788 890 l 779 893 l 779 901 l 783 904 z m 851 833 l 843 832 l 843 840 l 851 842 z m 572 476 l 575 468 l 572 465 l 565 465 l 563 468 l 564 476 z m 749 426 l 746 424 l 738 424 l 735 432 l 738 433 l 744 433 l 747 432 z m 782 478 l 790 478 l 790 468 l 789 465 l 782 467 l 778 469 z m 769 874 l 763 874 l 760 881 l 767 882 l 769 881 z m 824 897 l 822 906 l 831 907 l 831 899 z m 404 167 l 397 167 l 399 174 l 406 174 z m 661 425 l 658 422 l 650 424 l 651 432 l 654 433 l 661 431 z m 767 443 l 758 443 l 758 450 l 767 450 z m 467 369 l 467 361 l 464 360 l 457 361 l 458 369 z m 575 508 l 567 508 l 568 517 l 575 515 z m 810 358 l 803 358 l 803 368 l 810 368 z m 846 788 l 843 794 l 844 797 l 851 797 l 853 789 z m 124 61 l 117 63 l 119 69 l 126 67 z m 813 535 l 806 533 l 806 540 l 813 540 z m 597 404 l 594 401 l 586 401 l 585 408 l 586 411 l 594 413 z m 589 489 l 592 497 l 599 494 l 599 488 z m 639 413 l 640 406 l 632 403 l 632 411 z m 547 496 l 554 494 l 554 486 l 546 489 z m 597 442 l 588 442 l 586 449 l 597 450 z m 811 274 l 803 274 l 804 282 l 811 281 z m 872 897 l 865 897 l 868 904 l 875 903 z m 490 294 l 483 296 l 485 303 l 492 301 z m 672 404 l 672 410 l 681 410 l 679 403 z m 789 174 l 789 167 l 783 167 l 783 172 z m 551 361 l 544 361 l 546 369 l 551 371 z m 811 240 l 813 232 l 804 231 l 803 239 z m 574 424 l 567 424 l 567 432 l 569 435 l 576 432 z m 599 574 l 592 574 l 589 581 l 597 581 z m 819 467 l 818 472 l 825 474 l 825 468 z m 829 510 l 824 511 l 824 518 l 829 517 z m 856 958 l 850 957 l 847 964 l 854 964 z m 426 192 l 421 192 l 421 197 l 428 197 z m 831 819 l 831 813 l 826 813 l 825 819 z m 724 790 l 718 790 l 718 797 l 724 796 z m 460 275 l 460 282 l 467 282 l 468 275 z m 846 915 l 846 922 l 853 925 l 853 918 z m 467 322 l 467 317 l 461 317 l 461 322 z m 829 685 l 829 679 l 824 678 l 824 683 z m 811 668 l 810 663 l 804 664 l 806 669 z m 544 403 l 543 410 l 544 411 l 553 411 l 553 403 z m 317 88 l 315 81 l 311 81 l 311 88 z m 489 429 l 489 424 l 482 424 l 482 429 z m 790 210 l 783 210 l 783 215 l 789 215 z m 851 67 l 851 63 l 846 64 l 847 68 z m 806 704 l 806 710 l 811 711 l 811 704 z m 828 426 l 824 426 l 824 431 l 828 431 z m 783 297 l 783 303 l 789 303 l 789 297 z m 811 146 l 806 146 l 806 153 l 811 153 z m 529 350 l 529 343 l 524 343 l 524 349 z m 810 189 l 804 188 l 804 194 l 810 194 z m 724 403 l 718 403 l 718 408 l 724 408 z m 789 342 l 782 342 l 782 347 l 789 347 z m 425 410 l 425 403 l 419 403 l 419 408 z m 382 149 l 376 150 l 378 154 l 383 154 z m 489 340 l 482 339 l 483 346 l 489 347 z m 504 318 l 501 324 l 510 328 l 513 321 l 511 318 z m 638 664 l 633 664 l 635 668 l 638 668 z m 657 636 l 651 640 l 654 644 l 658 643 z m 825 82 l 826 90 l 833 90 l 832 81 z m 149 46 l 147 39 l 142 42 l 142 47 z m 224 39 l 222 46 l 231 46 l 229 40 z m 658 689 l 660 683 l 654 683 l 653 689 z m 828 553 l 822 554 l 825 558 l 831 558 z m 825 126 l 825 132 l 831 132 l 831 126 z m 808 918 l 803 918 l 803 925 l 810 922 z m 811 576 l 804 576 l 804 582 l 810 582 z m 829 769 l 825 771 l 826 774 l 829 774 z m 100 46 l 106 44 l 103 40 l 99 40 z m 868 42 l 869 47 l 872 46 l 872 40 z m 914 40 l 911 42 l 911 46 l 915 46 z m 788 253 l 783 254 l 785 258 l 789 258 z m 426 235 l 422 236 l 424 240 l 426 239 z m 806 318 l 807 324 l 810 322 l 811 318 z m 864 853 l 864 858 l 869 858 l 869 853 z m 767 836 l 763 835 l 763 838 l 767 839 z m 767 368 l 767 361 l 761 364 l 763 368 z m 846 749 l 846 754 l 851 754 l 850 747 z m 829 726 l 825 726 l 826 731 l 829 731 z m 617 514 l 611 514 l 614 519 l 618 519 z m 463 236 l 463 231 l 457 232 l 458 236 z m 360 128 l 356 128 l 356 132 l 360 132 z m 789 556 l 786 557 l 788 560 l 789 558 z m 438 211 l 438 214 l 442 214 l 440 210 z m 826 214 l 828 210 l 825 211 l 824 213 z m 826 600 l 825 599 l 824 601 l 826 601 z m 619 600 l 615 599 l 615 603 l 619 601 z m 186 40 l 182 39 l 182 46 l 188 46 z m 701 774 l 697 772 l 697 776 l 701 775 z m 103 83 l 99 82 l 100 88 l 103 86 z m 1000 86 l 1000 83 l 997 86 z m 954 42 l 956 46 l 957 46 l 957 43 z m 810 108 l 810 106 l 807 106 l 807 108 z m 165 65 l 164 63 l 163 64 l 163 65 z m 674 706 l 675 703 l 672 701 l 672 704 z m 846 664 l 846 667 l 849 667 l 849 664 z m 357 422 l 354 425 l 357 426 l 358 425 z m 743 857 l 740 856 l 740 858 l 742 858 z m 443 258 l 443 254 l 439 256 l 440 258 z m 381 406 l 379 404 l 378 407 l 381 407 z m 867 82 l 867 86 l 868 88 l 869 83 z m 293 67 l 294 64 l 293 63 l 290 65 z "},"":{"ha":1057,"x_min":0,"x_max":0,"o":"m 760 486 l 749 467 l 729 457 l 685 453 l 636 450 l 622 457 l 621 471 l 626 490 l 633 508 l 638 524 l 646 542 l 653 556 l 661 572 l 672 607 l 681 625 l 689 640 l 694 657 l 703 672 l 711 690 l 726 721 l 738 739 l 744 757 l 756 771 l 763 786 l 774 801 l 782 817 l 794 831 l 804 838 l 806 825 l 801 810 l 801 792 l 799 772 l 792 756 l 792 736 l 789 719 l 785 701 l 782 683 l 778 647 l 778 629 l 774 611 l 771 594 l 771 575 l 767 557 l 763 540 l 765 522 l 760 503 z m 1115 299 l 1096 286 l 1082 267 l 1075 249 l 1065 232 l 1058 215 l 1040 185 l 1032 168 l 1019 151 l 1008 140 l 999 125 l 988 111 l 976 103 l 961 93 l 943 86 l 918 85 l 894 88 l 881 97 l 869 114 l 858 129 l 856 146 l 850 164 l 846 185 l 846 203 l 843 221 l 840 249 l 842 275 l 840 293 l 836 311 l 836 329 l 839 347 l 839 367 l 842 403 l 842 418 l 839 439 l 842 456 l 846 510 l 847 529 l 850 549 l 849 567 l 861 656 l 865 672 l 867 692 l 867 710 l 869 726 l 875 746 l 878 763 l 878 782 l 879 800 l 882 817 l 885 836 l 888 854 l 894 871 l 893 890 l 897 907 l 901 935 l 900 960 l 889 972 l 875 979 l 857 982 l 843 979 l 819 964 l 799 950 l 788 938 l 776 924 l 751 896 l 731 868 l 718 854 l 701 824 l 690 808 l 679 792 l 674 776 l 665 761 l 653 746 l 646 728 l 638 713 l 629 696 l 624 681 l 613 665 l 607 650 l 596 631 l 592 614 l 583 600 l 578 581 l 568 565 l 556 532 l 544 517 l 539 500 l 531 485 l 525 467 l 506 451 l 486 442 l 468 440 l 449 439 l 429 440 l 413 440 l 354 444 l 329 443 l 311 432 l 301 417 l 301 399 l 307 383 l 322 371 l 350 364 l 369 361 l 389 361 l 404 363 l 424 361 l 442 361 l 458 356 l 461 339 l 450 322 l 433 289 l 422 275 l 393 228 l 382 210 l 374 194 l 349 168 l 325 140 l 301 115 l 283 106 l 272 96 l 254 89 l 238 83 l 210 81 l 185 82 l 164 85 l 150 90 l 136 104 l 119 125 l 97 140 l 78 139 l 61 131 l 49 115 l 47 88 l 58 61 l 71 46 l 83 33 l 100 22 l 124 10 l 171 -1 l 186 -3 l 215 -1 l 244 1 l 278 13 l 313 28 l 328 38 l 340 50 l 361 67 l 383 85 l 392 97 l 404 113 l 418 126 l 429 142 l 440 157 l 454 172 l 461 185 l 469 203 l 482 218 l 494 232 l 503 247 l 511 264 l 519 281 l 538 311 l 546 328 l 557 344 l 575 361 l 596 371 l 615 372 l 633 374 l 654 375 l 693 376 l 707 379 l 726 381 l 744 374 l 754 356 l 754 338 l 754 321 l 754 286 l 756 271 l 753 253 l 754 225 l 758 199 l 760 181 l 765 163 l 768 143 l 775 110 l 781 92 l 789 75 l 797 61 l 811 47 l 821 33 l 833 25 l 850 14 l 882 4 l 910 1 l 935 4 l 954 7 l 971 13 l 983 22 l 1001 32 l 1013 42 l 1025 54 l 1039 68 l 1051 79 l 1075 111 l 1082 124 l 1099 157 l 1111 169 l 1125 201 l 1136 218 l 1143 236 l 1147 261 l 1143 285 l 1132 296 z m 815 629 l 814 625 l 810 618 l 804 621 l 808 628 l 811 631 l 814 632 l 818 636 l 819 644 l 824 649 l 831 647 l 832 640 l 831 636 l 828 635 l 821 633 z m 493 383 l 490 379 l 482 379 l 478 382 l 478 389 l 481 392 l 489 393 l 492 390 z m 856 874 l 853 869 l 844 869 l 842 872 l 843 881 l 846 885 l 854 885 l 856 882 z m 458 396 l 456 399 l 454 407 l 457 410 l 460 411 l 468 411 l 471 408 l 469 400 l 467 397 z m 253 64 l 257 61 l 260 57 l 263 54 l 265 51 l 268 49 l 268 42 l 263 44 l 260 47 l 257 50 l 254 53 l 251 57 l 249 61 l 249 64 z m 517 403 l 514 400 l 510 399 l 500 400 l 499 408 l 501 413 l 507 415 l 515 414 l 517 411 z m 810 456 l 813 453 l 813 444 l 808 442 l 800 443 l 799 450 l 801 453 z m 554 443 l 551 442 l 543 442 l 540 444 l 542 451 l 546 456 l 554 453 z m 532 393 l 535 390 l 533 383 l 525 382 l 522 389 l 524 393 z m 878 939 l 875 936 l 867 936 l 864 939 l 864 949 l 872 950 l 876 947 z m 789 424 l 788 421 l 778 421 l 776 425 l 776 433 l 788 435 l 790 432 z m 789 851 l 779 851 l 778 854 l 778 863 l 782 865 l 789 864 l 790 860 z m 810 414 l 811 404 l 808 401 l 801 401 l 800 410 l 801 413 z m 813 489 l 804 488 l 800 494 l 801 497 l 808 499 l 811 497 z m 804 874 l 801 876 l 801 885 l 810 888 l 813 885 l 813 876 z m 706 419 l 699 419 l 696 422 l 694 425 l 697 432 l 704 432 l 707 428 z m 514 357 l 504 357 l 499 360 l 500 369 l 510 369 l 514 367 z m 793 517 l 793 508 l 792 507 l 785 507 l 782 508 l 783 517 l 785 518 z m 533 431 l 533 422 l 532 419 l 524 418 l 522 421 l 524 429 l 525 431 z m 789 383 l 779 383 l 778 386 l 778 393 l 786 393 l 789 390 z m 618 553 l 610 553 l 608 560 l 610 563 l 615 564 l 618 561 z m 831 861 l 833 858 l 833 850 l 825 849 l 822 851 l 822 858 z m 621 433 l 621 425 l 618 422 l 611 424 l 611 431 l 614 433 z m 438 382 l 439 389 l 446 386 l 444 381 z m 833 940 l 831 938 l 822 938 l 821 944 l 824 949 l 831 949 z m 767 400 l 758 401 l 757 410 l 760 411 l 767 411 l 769 408 z m 572 390 l 575 388 l 574 382 l 565 382 l 565 389 z m 790 904 l 792 896 l 790 893 l 788 890 l 779 893 l 779 901 l 783 904 z m 851 833 l 843 832 l 843 840 l 851 842 z m 572 476 l 575 468 l 572 465 l 565 465 l 563 468 l 564 476 z m 749 426 l 746 424 l 738 424 l 735 432 l 738 433 l 744 433 l 747 432 z m 782 478 l 790 478 l 790 468 l 789 465 l 782 467 l 778 469 z m 769 874 l 763 874 l 760 881 l 767 882 l 769 881 z m 824 897 l 822 906 l 831 907 l 831 899 z m 404 167 l 397 167 l 399 174 l 406 174 z m 661 425 l 658 422 l 650 424 l 651 432 l 654 433 l 661 431 z m 767 443 l 758 443 l 758 450 l 767 450 z m 467 369 l 467 361 l 464 360 l 457 361 l 458 369 z m 575 508 l 567 508 l 568 517 l 575 515 z m 810 358 l 803 358 l 803 368 l 810 368 z m 846 788 l 843 794 l 844 797 l 851 797 l 853 789 z m 124 61 l 117 63 l 119 69 l 126 67 z m 813 535 l 806 533 l 806 540 l 813 540 z m 597 404 l 594 401 l 586 401 l 585 408 l 586 411 l 594 413 z m 589 489 l 592 497 l 599 494 l 599 488 z m 639 413 l 640 406 l 632 403 l 632 411 z m 547 496 l 554 494 l 554 486 l 546 489 z m 597 442 l 588 442 l 586 449 l 597 450 z m 811 274 l 803 274 l 804 282 l 811 281 z m 872 897 l 865 897 l 868 904 l 875 903 z m 490 294 l 483 296 l 485 303 l 492 301 z m 672 404 l 672 410 l 681 410 l 679 403 z m 789 174 l 789 167 l 783 167 l 783 172 z m 551 361 l 544 361 l 546 369 l 551 371 z m 811 240 l 813 232 l 804 231 l 803 239 z m 574 424 l 567 424 l 567 432 l 569 435 l 576 432 z m 599 574 l 592 574 l 589 581 l 597 581 z m 819 467 l 818 472 l 825 474 l 825 468 z m 829 510 l 824 511 l 824 518 l 829 517 z m 856 958 l 850 957 l 847 964 l 854 964 z m 426 192 l 421 192 l 421 197 l 428 197 z m 831 819 l 831 813 l 826 813 l 825 819 z m 724 790 l 718 790 l 718 797 l 724 796 z m 460 275 l 460 282 l 467 282 l 468 275 z m 846 915 l 846 922 l 853 925 l 853 918 z m 467 322 l 467 317 l 461 317 l 461 322 z m 829 685 l 829 679 l 824 678 l 824 683 z m 811 668 l 810 663 l 804 664 l 806 669 z m 544 403 l 543 410 l 544 411 l 553 411 l 553 403 z m 317 88 l 315 81 l 311 81 l 311 88 z m 489 429 l 489 424 l 482 424 l 482 429 z m 790 210 l 783 210 l 783 215 l 789 215 z m 851 67 l 851 63 l 846 64 l 847 68 z m 806 704 l 806 710 l 811 711 l 811 704 z m 828 426 l 824 426 l 824 431 l 828 431 z m 783 297 l 783 303 l 789 303 l 789 297 z m 811 146 l 806 146 l 806 153 l 811 153 z m 529 350 l 529 343 l 524 343 l 524 349 z m 810 189 l 804 188 l 804 194 l 810 194 z m 724 403 l 718 403 l 718 408 l 724 408 z m 789 342 l 782 342 l 782 347 l 789 347 z m 425 410 l 425 403 l 419 403 l 419 408 z m 382 149 l 376 150 l 378 154 l 383 154 z m 489 340 l 482 339 l 483 346 l 489 347 z m 504 318 l 501 324 l 510 328 l 513 321 l 511 318 z m 638 664 l 633 664 l 635 668 l 638 668 z m 657 636 l 651 640 l 654 644 l 658 643 z m 825 82 l 826 90 l 833 90 l 832 81 z m 149 46 l 147 39 l 142 42 l 142 47 z m 224 39 l 222 46 l 231 46 l 229 40 z m 658 689 l 660 683 l 654 683 l 653 689 z m 828 553 l 822 554 l 825 558 l 831 558 z m 825 126 l 825 132 l 831 132 l 831 126 z m 808 918 l 803 918 l 803 925 l 810 922 z m 811 576 l 804 576 l 804 582 l 810 582 z m 829 769 l 825 771 l 826 774 l 829 774 z m 100 46 l 106 44 l 103 40 l 99 40 z m 868 42 l 869 47 l 872 46 l 872 40 z m 914 40 l 911 42 l 911 46 l 915 46 z m 788 253 l 783 254 l 785 258 l 789 258 z m 426 235 l 422 236 l 424 240 l 426 239 z m 806 318 l 807 324 l 810 322 l 811 318 z m 864 853 l 864 858 l 869 858 l 869 853 z m 767 836 l 763 835 l 763 838 l 767 839 z m 767 368 l 767 361 l 761 364 l 763 368 z m 846 749 l 846 754 l 851 754 l 850 747 z m 829 726 l 825 726 l 826 731 l 829 731 z m 617 514 l 611 514 l 614 519 l 618 519 z m 463 236 l 463 231 l 457 232 l 458 236 z m 360 128 l 356 128 l 356 132 l 360 132 z m 789 556 l 786 557 l 788 560 l 789 558 z m 438 211 l 438 214 l 442 214 l 440 210 z m 826 214 l 828 210 l 825 211 l 824 213 z m 826 600 l 825 599 l 824 601 l 826 601 z m 619 600 l 615 599 l 615 603 l 619 601 z m 186 40 l 182 39 l 182 46 l 188 46 z m 701 774 l 697 772 l 697 776 l 701 775 z m 103 83 l 99 82 l 100 88 l 103 86 z m 1000 86 l 1000 83 l 997 86 z m 954 42 l 956 46 l 957 46 l 957 43 z m 810 108 l 810 106 l 807 106 l 807 108 z m 165 65 l 164 63 l 163 64 l 163 65 z m 674 706 l 675 703 l 672 701 l 672 704 z m 846 664 l 846 667 l 849 667 l 849 664 z m 357 422 l 354 425 l 357 426 l 358 425 z m 743 857 l 740 856 l 740 858 l 742 858 z m 443 258 l 443 254 l 439 256 l 440 258 z m 381 406 l 379 404 l 378 407 l 381 407 z m 867 82 l 867 86 l 868 88 l 869 83 z m 293 67 l 294 64 l 293 63 l 290 65 z m 943 1235 l 924 1221 l 906 1201 l 893 1188 l 876 1175 l 868 1160 l 856 1149 l 840 1135 l 826 1113 l 818 1088 l 825 1074 l 838 1064 l 858 1064 l 881 1076 l 901 1093 l 913 1106 l 926 1119 l 938 1133 l 951 1143 l 964 1157 l 982 1175 l 992 1200 l 988 1215 l 979 1226 l 961 1235 z m 881 1107 l 872 1107 l 872 1115 l 882 1117 l 883 1108 z m 960 1199 l 967 1199 l 967 1190 l 958 1190 z m 950 1179 l 947 1171 l 940 1172 l 940 1179 l 943 1182 z m 903 1138 l 903 1129 l 896 1129 l 896 1138 z m 918 1157 l 925 1158 l 926 1151 l 918 1150 z m 918 1185 l 915 1193 l 922 1196 l 926 1189 z m 882 1150 l 876 1144 l 872 1144 l 872 1149 l 881 1151 l 885 1158 l 888 1164 l 897 1165 l 894 1156 l 889 1154 z m 839 1088 l 842 1097 l 844 1101 l 847 1107 l 856 1115 l 861 1104 l 851 1096 l 846 1090 z "},"":{"ha":1057,"x_min":0,"x_max":0,"o":"m 760 486 l 749 467 l 729 457 l 685 453 l 636 450 l 622 457 l 621 471 l 626 490 l 633 508 l 638 524 l 646 542 l 653 556 l 661 572 l 672 607 l 681 625 l 689 640 l 694 657 l 703 672 l 711 690 l 726 721 l 738 739 l 744 757 l 756 771 l 763 786 l 774 801 l 782 817 l 794 831 l 804 838 l 806 825 l 801 810 l 801 792 l 799 772 l 792 756 l 792 736 l 789 719 l 785 701 l 782 683 l 778 647 l 778 629 l 774 611 l 771 594 l 771 575 l 767 557 l 763 540 l 765 522 l 760 503 z m 1115 299 l 1096 286 l 1082 267 l 1075 249 l 1065 232 l 1058 215 l 1040 185 l 1032 168 l 1019 151 l 1008 140 l 999 125 l 988 111 l 976 103 l 961 93 l 943 86 l 918 85 l 894 88 l 881 97 l 869 114 l 858 129 l 856 146 l 850 164 l 846 185 l 846 203 l 843 221 l 840 249 l 842 275 l 840 293 l 836 311 l 836 329 l 839 347 l 839 367 l 842 403 l 842 418 l 839 439 l 842 456 l 846 510 l 847 529 l 850 549 l 849 567 l 861 656 l 865 672 l 867 692 l 867 710 l 869 726 l 875 746 l 878 763 l 878 782 l 879 800 l 882 817 l 885 836 l 888 854 l 894 871 l 893 890 l 897 907 l 901 935 l 900 960 l 889 972 l 875 979 l 857 982 l 843 979 l 819 964 l 799 950 l 788 938 l 776 924 l 751 896 l 731 868 l 718 854 l 701 824 l 690 808 l 679 792 l 674 776 l 665 761 l 653 746 l 646 728 l 638 713 l 629 696 l 624 681 l 613 665 l 607 650 l 596 631 l 592 614 l 583 600 l 578 581 l 568 565 l 556 532 l 544 517 l 539 500 l 531 485 l 525 467 l 506 451 l 486 442 l 468 440 l 449 439 l 429 440 l 413 440 l 354 444 l 329 443 l 311 432 l 301 417 l 301 399 l 307 383 l 322 371 l 350 364 l 369 361 l 389 361 l 404 363 l 424 361 l 442 361 l 458 356 l 461 339 l 450 322 l 433 289 l 422 275 l 393 228 l 382 210 l 374 194 l 349 168 l 325 140 l 301 115 l 283 106 l 272 96 l 254 89 l 238 83 l 210 81 l 185 82 l 164 85 l 150 90 l 136 104 l 119 125 l 97 140 l 78 139 l 61 131 l 49 115 l 47 88 l 58 61 l 71 46 l 83 33 l 100 22 l 124 10 l 171 -1 l 186 -3 l 215 -1 l 244 1 l 278 13 l 313 28 l 328 38 l 340 50 l 361 67 l 383 85 l 392 97 l 404 113 l 418 126 l 429 142 l 440 157 l 454 172 l 461 185 l 469 203 l 482 218 l 494 232 l 503 247 l 511 264 l 519 281 l 538 311 l 546 328 l 557 344 l 575 361 l 596 371 l 615 372 l 633 374 l 654 375 l 693 376 l 707 379 l 726 381 l 744 374 l 754 356 l 754 338 l 754 321 l 754 286 l 756 271 l 753 253 l 754 225 l 758 199 l 760 181 l 765 163 l 768 143 l 775 110 l 781 92 l 789 75 l 797 61 l 811 47 l 821 33 l 833 25 l 850 14 l 882 4 l 910 1 l 935 4 l 954 7 l 971 13 l 983 22 l 1001 32 l 1013 42 l 1025 54 l 1039 68 l 1051 79 l 1075 111 l 1082 124 l 1099 157 l 1111 169 l 1125 201 l 1136 218 l 1143 236 l 1147 261 l 1143 285 l 1132 296 z m 815 629 l 814 625 l 810 618 l 804 621 l 808 628 l 811 631 l 814 632 l 818 636 l 819 644 l 824 649 l 831 647 l 832 640 l 831 636 l 828 635 l 821 633 z m 493 383 l 490 379 l 482 379 l 478 382 l 478 389 l 481 392 l 489 393 l 492 390 z m 856 874 l 853 869 l 844 869 l 842 872 l 843 881 l 846 885 l 854 885 l 856 882 z m 458 396 l 456 399 l 454 407 l 457 410 l 460 411 l 468 411 l 471 408 l 469 400 l 467 397 z m 253 64 l 257 61 l 260 57 l 263 54 l 265 51 l 268 49 l 268 42 l 263 44 l 260 47 l 257 50 l 254 53 l 251 57 l 249 61 l 249 64 z m 517 403 l 514 400 l 510 399 l 500 400 l 499 408 l 501 413 l 507 415 l 515 414 l 517 411 z m 810 456 l 813 453 l 813 444 l 808 442 l 800 443 l 799 450 l 801 453 z m 554 443 l 551 442 l 543 442 l 540 444 l 542 451 l 546 456 l 554 453 z m 532 393 l 535 390 l 533 383 l 525 382 l 522 389 l 524 393 z m 878 939 l 875 936 l 867 936 l 864 939 l 864 949 l 872 950 l 876 947 z m 789 424 l 788 421 l 778 421 l 776 425 l 776 433 l 788 435 l 790 432 z m 789 851 l 779 851 l 778 854 l 778 863 l 782 865 l 789 864 l 790 860 z m 810 414 l 811 404 l 808 401 l 801 401 l 800 410 l 801 413 z m 813 489 l 804 488 l 800 494 l 801 497 l 808 499 l 811 497 z m 804 874 l 801 876 l 801 885 l 810 888 l 813 885 l 813 876 z m 706 419 l 699 419 l 696 422 l 694 425 l 697 432 l 704 432 l 707 428 z m 514 357 l 504 357 l 499 360 l 500 369 l 510 369 l 514 367 z m 793 517 l 793 508 l 792 507 l 785 507 l 782 508 l 783 517 l 785 518 z m 533 431 l 533 422 l 532 419 l 524 418 l 522 421 l 524 429 l 525 431 z m 789 383 l 779 383 l 778 386 l 778 393 l 786 393 l 789 390 z m 618 553 l 610 553 l 608 560 l 610 563 l 615 564 l 618 561 z m 831 861 l 833 858 l 833 850 l 825 849 l 822 851 l 822 858 z m 621 433 l 621 425 l 618 422 l 611 424 l 611 431 l 614 433 z m 438 382 l 439 389 l 446 386 l 444 381 z m 833 940 l 831 938 l 822 938 l 821 944 l 824 949 l 831 949 z m 767 400 l 758 401 l 757 410 l 760 411 l 767 411 l 769 408 z m 572 390 l 575 388 l 574 382 l 565 382 l 565 389 z m 790 904 l 792 896 l 790 893 l 788 890 l 779 893 l 779 901 l 783 904 z m 851 833 l 843 832 l 843 840 l 851 842 z m 572 476 l 575 468 l 572 465 l 565 465 l 563 468 l 564 476 z m 749 426 l 746 424 l 738 424 l 735 432 l 738 433 l 744 433 l 747 432 z m 782 478 l 790 478 l 790 468 l 789 465 l 782 467 l 778 469 z m 769 874 l 763 874 l 760 881 l 767 882 l 769 881 z m 824 897 l 822 906 l 831 907 l 831 899 z m 404 167 l 397 167 l 399 174 l 406 174 z m 661 425 l 658 422 l 650 424 l 651 432 l 654 433 l 661 431 z m 767 443 l 758 443 l 758 450 l 767 450 z m 467 369 l 467 361 l 464 360 l 457 361 l 458 369 z m 575 508 l 567 508 l 568 517 l 575 515 z m 810 358 l 803 358 l 803 368 l 810 368 z m 846 788 l 843 794 l 844 797 l 851 797 l 853 789 z m 124 61 l 117 63 l 119 69 l 126 67 z m 813 535 l 806 533 l 806 540 l 813 540 z m 597 404 l 594 401 l 586 401 l 585 408 l 586 411 l 594 413 z m 589 489 l 592 497 l 599 494 l 599 488 z m 639 413 l 640 406 l 632 403 l 632 411 z m 547 496 l 554 494 l 554 486 l 546 489 z m 597 442 l 588 442 l 586 449 l 597 450 z m 811 274 l 803 274 l 804 282 l 811 281 z m 872 897 l 865 897 l 868 904 l 875 903 z m 490 294 l 483 296 l 485 303 l 492 301 z m 672 404 l 672 410 l 681 410 l 679 403 z m 789 174 l 789 167 l 783 167 l 783 172 z m 551 361 l 544 361 l 546 369 l 551 371 z m 811 240 l 813 232 l 804 231 l 803 239 z m 574 424 l 567 424 l 567 432 l 569 435 l 576 432 z m 599 574 l 592 574 l 589 581 l 597 581 z m 819 467 l 818 472 l 825 474 l 825 468 z m 829 510 l 824 511 l 824 518 l 829 517 z m 856 958 l 850 957 l 847 964 l 854 964 z m 426 192 l 421 192 l 421 197 l 428 197 z m 831 819 l 831 813 l 826 813 l 825 819 z m 724 790 l 718 790 l 718 797 l 724 796 z m 460 275 l 460 282 l 467 282 l 468 275 z m 846 915 l 846 922 l 853 925 l 853 918 z m 467 322 l 467 317 l 461 317 l 461 322 z m 829 685 l 829 679 l 824 678 l 824 683 z m 811 668 l 810 663 l 804 664 l 806 669 z m 544 403 l 543 410 l 544 411 l 553 411 l 553 403 z m 317 88 l 315 81 l 311 81 l 311 88 z m 489 429 l 489 424 l 482 424 l 482 429 z m 790 210 l 783 210 l 783 215 l 789 215 z m 851 67 l 851 63 l 846 64 l 847 68 z m 806 704 l 806 710 l 811 711 l 811 704 z m 828 426 l 824 426 l 824 431 l 828 431 z m 783 297 l 783 303 l 789 303 l 789 297 z m 811 146 l 806 146 l 806 153 l 811 153 z m 529 350 l 529 343 l 524 343 l 524 349 z m 810 189 l 804 188 l 804 194 l 810 194 z m 724 403 l 718 403 l 718 408 l 724 408 z m 789 342 l 782 342 l 782 347 l 789 347 z m 425 410 l 425 403 l 419 403 l 419 408 z m 382 149 l 376 150 l 378 154 l 383 154 z m 489 340 l 482 339 l 483 346 l 489 347 z m 504 318 l 501 324 l 510 328 l 513 321 l 511 318 z m 638 664 l 633 664 l 635 668 l 638 668 z m 657 636 l 651 640 l 654 644 l 658 643 z m 825 82 l 826 90 l 833 90 l 832 81 z m 149 46 l 147 39 l 142 42 l 142 47 z m 224 39 l 222 46 l 231 46 l 229 40 z m 658 689 l 660 683 l 654 683 l 653 689 z m 828 553 l 822 554 l 825 558 l 831 558 z m 825 126 l 825 132 l 831 132 l 831 126 z m 808 918 l 803 918 l 803 925 l 810 922 z m 811 576 l 804 576 l 804 582 l 810 582 z m 829 769 l 825 771 l 826 774 l 829 774 z m 100 46 l 106 44 l 103 40 l 99 40 z m 868 42 l 869 47 l 872 46 l 872 40 z m 914 40 l 911 42 l 911 46 l 915 46 z m 788 253 l 783 254 l 785 258 l 789 258 z m 426 235 l 422 236 l 424 240 l 426 239 z m 806 318 l 807 324 l 810 322 l 811 318 z m 864 853 l 864 858 l 869 858 l 869 853 z m 767 836 l 763 835 l 763 838 l 767 839 z m 767 368 l 767 361 l 761 364 l 763 368 z m 846 749 l 846 754 l 851 754 l 850 747 z m 829 726 l 825 726 l 826 731 l 829 731 z m 617 514 l 611 514 l 614 519 l 618 519 z m 463 236 l 463 231 l 457 232 l 458 236 z m 360 128 l 356 128 l 356 132 l 360 132 z m 789 556 l 786 557 l 788 560 l 789 558 z m 438 211 l 438 214 l 442 214 l 440 210 z m 826 214 l 828 210 l 825 211 l 824 213 z m 826 600 l 825 599 l 824 601 l 826 601 z m 619 600 l 615 599 l 615 603 l 619 601 z m 186 40 l 182 39 l 182 46 l 188 46 z m 701 774 l 697 772 l 697 776 l 701 775 z m 103 83 l 99 82 l 100 88 l 103 86 z m 1000 86 l 1000 83 l 997 86 z m 954 42 l 956 46 l 957 46 l 957 43 z m 810 108 l 810 106 l 807 106 l 807 108 z m 165 65 l 164 63 l 163 64 l 163 65 z m 674 706 l 675 703 l 672 701 l 672 704 z m 846 664 l 846 667 l 849 667 l 849 664 z m 357 422 l 354 425 l 357 426 l 358 425 z m 743 857 l 740 856 l 740 858 l 742 858 z m 443 258 l 443 254 l 439 256 l 440 258 z m 381 406 l 379 404 l 378 407 l 381 407 z m 867 82 l 867 86 l 868 88 l 869 83 z m 293 67 l 294 64 l 293 63 l 290 65 z m 1010 1151 l 1021 1179 l 1018 1203 l 1003 1213 l 982 1211 l 961 1196 l 943 1175 l 931 1161 l 918 1151 l 899 1140 l 881 1136 l 861 1135 l 844 1138 l 829 1144 l 813 1156 l 799 1169 l 786 1194 l 769 1213 l 757 1213 l 742 1211 l 728 1200 l 724 1179 l 729 1153 l 739 1136 l 750 1121 l 763 1107 l 775 1096 l 789 1086 l 803 1078 l 821 1071 l 839 1068 l 861 1068 l 876 1068 l 896 1069 l 919 1076 l 946 1089 l 964 1097 l 976 1110 l 990 1124 l 1000 1136 z m 760 1178 l 751 1179 l 751 1186 l 760 1186 z m 982 1179 l 975 1179 l 974 1185 l 981 1186 z m 992 1168 l 997 1167 l 996 1164 l 992 1164 z m 804 1144 l 804 1136 l 797 1138 l 797 1144 z m 761 1136 l 756 1139 l 758 1144 l 763 1140 z m 863 1115 l 863 1121 l 871 1121 l 869 1115 z m 778 1158 l 778 1164 l 785 1164 l 783 1158 z m 929 1138 l 929 1143 l 935 1143 l 935 1138 z m 956 1164 l 956 1158 l 949 1158 l 949 1164 z m 917 1122 l 908 1121 l 907 1128 l 914 1128 z m 778 1119 l 775 1119 l 776 1124 l 779 1121 z m 793 1106 l 793 1111 l 801 1111 l 800 1106 z m 822 1092 l 822 1086 l 817 1086 l 817 1092 z m 836 1100 l 832 1107 l 829 1111 l 825 1115 l 819 1125 l 826 1125 l 833 1121 l 849 1111 l 844 1100 z m 928 1100 l 929 1113 l 940 1113 l 940 1100 z m 892 1093 l 892 1104 l 903 1106 l 903 1094 z m 871 1082 l 860 1081 l 861 1092 l 871 1092 z m 960 1121 l 960 1129 l 967 1132 l 968 1124 z m 978 1142 l 979 1149 l 986 1150 l 986 1143 z "},"":{"ha":1057,"x_min":0,"x_max":0,"o":"m 760 486 l 749 467 l 729 457 l 685 453 l 636 450 l 622 457 l 621 471 l 626 490 l 633 508 l 638 524 l 646 542 l 653 556 l 661 572 l 672 607 l 681 625 l 689 640 l 694 657 l 703 672 l 711 690 l 726 721 l 738 739 l 744 757 l 756 771 l 763 786 l 774 801 l 782 817 l 794 831 l 804 838 l 806 825 l 801 810 l 801 792 l 799 772 l 792 756 l 792 736 l 789 719 l 785 701 l 782 683 l 778 647 l 778 629 l 774 611 l 771 594 l 771 575 l 767 557 l 763 540 l 765 522 l 760 503 z m 1115 299 l 1096 286 l 1082 267 l 1075 249 l 1065 232 l 1058 215 l 1040 185 l 1032 168 l 1019 151 l 1008 140 l 999 125 l 988 111 l 976 103 l 961 93 l 943 86 l 918 85 l 894 88 l 881 97 l 869 114 l 858 129 l 856 146 l 850 164 l 846 185 l 846 203 l 843 221 l 840 249 l 842 275 l 840 293 l 836 311 l 836 329 l 839 347 l 839 367 l 842 403 l 842 418 l 839 439 l 842 456 l 846 510 l 847 529 l 850 549 l 849 567 l 861 656 l 865 672 l 867 692 l 867 710 l 869 726 l 875 746 l 878 763 l 878 782 l 879 800 l 882 817 l 885 836 l 888 854 l 894 871 l 893 890 l 897 907 l 901 935 l 900 960 l 889 972 l 875 979 l 857 982 l 843 979 l 819 964 l 799 950 l 788 938 l 776 924 l 751 896 l 731 868 l 718 854 l 701 824 l 690 808 l 679 792 l 674 776 l 665 761 l 653 746 l 646 728 l 638 713 l 629 696 l 624 681 l 613 665 l 607 650 l 596 631 l 592 614 l 583 600 l 578 581 l 568 565 l 556 532 l 544 517 l 539 500 l 531 485 l 525 467 l 506 451 l 486 442 l 468 440 l 449 439 l 429 440 l 413 440 l 354 444 l 329 443 l 311 432 l 301 417 l 301 399 l 307 383 l 322 371 l 350 364 l 369 361 l 389 361 l 404 363 l 424 361 l 442 361 l 458 356 l 461 339 l 450 322 l 433 289 l 422 275 l 393 228 l 382 210 l 374 194 l 349 168 l 325 140 l 301 115 l 283 106 l 272 96 l 254 89 l 238 83 l 210 81 l 185 82 l 164 85 l 150 90 l 136 104 l 119 125 l 97 140 l 78 139 l 61 131 l 49 115 l 47 88 l 58 61 l 71 46 l 83 33 l 100 22 l 124 10 l 171 -1 l 186 -3 l 215 -1 l 244 1 l 278 13 l 313 28 l 328 38 l 340 50 l 361 67 l 383 85 l 392 97 l 404 113 l 418 126 l 429 142 l 440 157 l 454 172 l 461 185 l 469 203 l 482 218 l 494 232 l 503 247 l 511 264 l 519 281 l 538 311 l 546 328 l 557 344 l 575 361 l 596 371 l 615 372 l 633 374 l 654 375 l 693 376 l 707 379 l 726 381 l 744 374 l 754 356 l 754 338 l 754 321 l 754 286 l 756 271 l 753 253 l 754 225 l 758 199 l 760 181 l 765 163 l 768 143 l 775 110 l 781 92 l 789 75 l 797 61 l 811 47 l 821 33 l 833 25 l 850 14 l 882 4 l 910 1 l 935 4 l 954 7 l 971 13 l 983 22 l 1001 32 l 1013 42 l 1025 54 l 1039 68 l 1051 79 l 1075 111 l 1082 124 l 1099 157 l 1111 169 l 1125 201 l 1136 218 l 1143 236 l 1147 261 l 1143 285 l 1132 296 z m 815 629 l 814 625 l 810 618 l 804 621 l 808 628 l 811 631 l 814 632 l 818 636 l 819 644 l 824 649 l 831 647 l 832 640 l 831 636 l 828 635 l 821 633 z m 493 383 l 490 379 l 482 379 l 478 382 l 478 389 l 481 392 l 489 393 l 492 390 z m 856 874 l 853 869 l 844 869 l 842 872 l 843 881 l 846 885 l 854 885 l 856 882 z m 458 396 l 456 399 l 454 407 l 457 410 l 460 411 l 468 411 l 471 408 l 469 400 l 467 397 z m 253 64 l 257 61 l 260 57 l 263 54 l 265 51 l 268 49 l 268 42 l 263 44 l 260 47 l 257 50 l 254 53 l 251 57 l 249 61 l 249 64 z m 517 403 l 514 400 l 510 399 l 500 400 l 499 408 l 501 413 l 507 415 l 515 414 l 517 411 z m 810 456 l 813 453 l 813 444 l 808 442 l 800 443 l 799 450 l 801 453 z m 554 443 l 551 442 l 543 442 l 540 444 l 542 451 l 546 456 l 554 453 z m 532 393 l 535 390 l 533 383 l 525 382 l 522 389 l 524 393 z m 878 939 l 875 936 l 867 936 l 864 939 l 864 949 l 872 950 l 876 947 z m 789 424 l 788 421 l 778 421 l 776 425 l 776 433 l 788 435 l 790 432 z m 789 851 l 779 851 l 778 854 l 778 863 l 782 865 l 789 864 l 790 860 z m 810 414 l 811 404 l 808 401 l 801 401 l 800 410 l 801 413 z m 813 489 l 804 488 l 800 494 l 801 497 l 808 499 l 811 497 z m 804 874 l 801 876 l 801 885 l 810 888 l 813 885 l 813 876 z m 706 419 l 699 419 l 696 422 l 694 425 l 697 432 l 704 432 l 707 428 z m 514 357 l 504 357 l 499 360 l 500 369 l 510 369 l 514 367 z m 793 517 l 793 508 l 792 507 l 785 507 l 782 508 l 783 517 l 785 518 z m 533 431 l 533 422 l 532 419 l 524 418 l 522 421 l 524 429 l 525 431 z m 789 383 l 779 383 l 778 386 l 778 393 l 786 393 l 789 390 z m 618 553 l 610 553 l 608 560 l 610 563 l 615 564 l 618 561 z m 831 861 l 833 858 l 833 850 l 825 849 l 822 851 l 822 858 z m 621 433 l 621 425 l 618 422 l 611 424 l 611 431 l 614 433 z m 438 382 l 439 389 l 446 386 l 444 381 z m 833 940 l 831 938 l 822 938 l 821 944 l 824 949 l 831 949 z m 767 400 l 758 401 l 757 410 l 760 411 l 767 411 l 769 408 z m 572 390 l 575 388 l 574 382 l 565 382 l 565 389 z m 790 904 l 792 896 l 790 893 l 788 890 l 779 893 l 779 901 l 783 904 z m 851 833 l 843 832 l 843 840 l 851 842 z m 572 476 l 575 468 l 572 465 l 565 465 l 563 468 l 564 476 z m 749 426 l 746 424 l 738 424 l 735 432 l 738 433 l 744 433 l 747 432 z m 782 478 l 790 478 l 790 468 l 789 465 l 782 467 l 778 469 z m 769 874 l 763 874 l 760 881 l 767 882 l 769 881 z m 824 897 l 822 906 l 831 907 l 831 899 z m 404 167 l 397 167 l 399 174 l 406 174 z m 661 425 l 658 422 l 650 424 l 651 432 l 654 433 l 661 431 z m 767 443 l 758 443 l 758 450 l 767 450 z m 467 369 l 467 361 l 464 360 l 457 361 l 458 369 z m 575 508 l 567 508 l 568 517 l 575 515 z m 810 358 l 803 358 l 803 368 l 810 368 z m 846 788 l 843 794 l 844 797 l 851 797 l 853 789 z m 124 61 l 117 63 l 119 69 l 126 67 z m 813 535 l 806 533 l 806 540 l 813 540 z m 597 404 l 594 401 l 586 401 l 585 408 l 586 411 l 594 413 z m 589 489 l 592 497 l 599 494 l 599 488 z m 639 413 l 640 406 l 632 403 l 632 411 z m 547 496 l 554 494 l 554 486 l 546 489 z m 597 442 l 588 442 l 586 449 l 597 450 z m 811 274 l 803 274 l 804 282 l 811 281 z m 872 897 l 865 897 l 868 904 l 875 903 z m 490 294 l 483 296 l 485 303 l 492 301 z m 672 404 l 672 410 l 681 410 l 679 403 z m 789 174 l 789 167 l 783 167 l 783 172 z m 551 361 l 544 361 l 546 369 l 551 371 z m 811 240 l 813 232 l 804 231 l 803 239 z m 574 424 l 567 424 l 567 432 l 569 435 l 576 432 z m 599 574 l 592 574 l 589 581 l 597 581 z m 819 467 l 818 472 l 825 474 l 825 468 z m 829 510 l 824 511 l 824 518 l 829 517 z m 856 958 l 850 957 l 847 964 l 854 964 z m 426 192 l 421 192 l 421 197 l 428 197 z m 831 819 l 831 813 l 826 813 l 825 819 z m 724 790 l 718 790 l 718 797 l 724 796 z m 460 275 l 460 282 l 467 282 l 468 275 z m 846 915 l 846 922 l 853 925 l 853 918 z m 467 322 l 467 317 l 461 317 l 461 322 z m 829 685 l 829 679 l 824 678 l 824 683 z m 811 668 l 810 663 l 804 664 l 806 669 z m 544 403 l 543 410 l 544 411 l 553 411 l 553 403 z m 317 88 l 315 81 l 311 81 l 311 88 z m 489 429 l 489 424 l 482 424 l 482 429 z m 790 210 l 783 210 l 783 215 l 789 215 z m 851 67 l 851 63 l 846 64 l 847 68 z m 806 704 l 806 710 l 811 711 l 811 704 z m 828 426 l 824 426 l 824 431 l 828 431 z m 783 297 l 783 303 l 789 303 l 789 297 z m 811 146 l 806 146 l 806 153 l 811 153 z m 529 350 l 529 343 l 524 343 l 524 349 z m 810 189 l 804 188 l 804 194 l 810 194 z m 724 403 l 718 403 l 718 408 l 724 408 z m 789 342 l 782 342 l 782 347 l 789 347 z m 425 410 l 425 403 l 419 403 l 419 408 z m 382 149 l 376 150 l 378 154 l 383 154 z m 489 340 l 482 339 l 483 346 l 489 347 z m 504 318 l 501 324 l 510 328 l 513 321 l 511 318 z m 638 664 l 633 664 l 635 668 l 638 668 z m 657 636 l 651 640 l 654 644 l 658 643 z m 825 82 l 826 90 l 833 90 l 832 81 z m 149 46 l 147 39 l 142 42 l 142 47 z m 224 39 l 222 46 l 231 46 l 229 40 z m 658 689 l 660 683 l 654 683 l 653 689 z m 828 553 l 822 554 l 825 558 l 831 558 z m 825 126 l 825 132 l 831 132 l 831 126 z m 808 918 l 803 918 l 803 925 l 810 922 z m 811 576 l 804 576 l 804 582 l 810 582 z m 829 769 l 825 771 l 826 774 l 829 774 z m 100 46 l 106 44 l 103 40 l 99 40 z m 868 42 l 869 47 l 872 46 l 872 40 z m 914 40 l 911 42 l 911 46 l 915 46 z m 788 253 l 783 254 l 785 258 l 789 258 z m 426 235 l 422 236 l 424 240 l 426 239 z m 806 318 l 807 324 l 810 322 l 811 318 z m 864 853 l 864 858 l 869 858 l 869 853 z m 767 836 l 763 835 l 763 838 l 767 839 z m 767 368 l 767 361 l 761 364 l 763 368 z m 846 749 l 846 754 l 851 754 l 850 747 z m 829 726 l 825 726 l 826 731 l 829 731 z m 617 514 l 611 514 l 614 519 l 618 519 z m 463 236 l 463 231 l 457 232 l 458 236 z m 360 128 l 356 128 l 356 132 l 360 132 z m 789 556 l 786 557 l 788 560 l 789 558 z m 438 211 l 438 214 l 442 214 l 440 210 z m 826 214 l 828 210 l 825 211 l 824 213 z m 826 600 l 825 599 l 824 601 l 826 601 z m 619 600 l 615 599 l 615 603 l 619 601 z m 186 40 l 182 39 l 182 46 l 188 46 z m 701 774 l 697 772 l 697 776 l 701 775 z m 103 83 l 99 82 l 100 88 l 103 86 z m 1000 86 l 1000 83 l 997 86 z m 954 42 l 956 46 l 957 46 l 957 43 z m 810 108 l 810 106 l 807 106 l 807 108 z m 165 65 l 164 63 l 163 64 l 163 65 z m 674 706 l 675 703 l 672 701 l 672 704 z m 846 664 l 846 667 l 849 667 l 849 664 z m 357 422 l 354 425 l 357 426 l 358 425 z m 743 857 l 740 856 l 740 858 l 742 858 z m 443 258 l 443 254 l 439 256 l 440 258 z m 381 406 l 379 404 l 378 407 l 381 407 z m 867 82 l 867 86 l 868 88 l 869 83 z m 293 67 l 294 64 l 293 63 l 290 65 z m 1011 1085 l 1006 1108 l 989 1132 l 978 1144 l 956 1174 l 940 1188 l 922 1208 l 901 1225 l 885 1226 l 857 1217 l 839 1201 l 824 1192 l 808 1181 l 794 1169 l 776 1161 l 763 1149 l 749 1140 l 728 1122 l 715 1101 l 721 1083 l 733 1072 l 750 1068 l 774 1076 l 800 1090 l 815 1099 l 832 1110 l 846 1121 l 861 1132 l 881 1133 l 900 1124 l 915 1108 l 928 1093 l 944 1074 l 965 1063 l 985 1063 l 999 1071 z m 921 1144 l 911 1144 l 911 1154 l 921 1156 z m 879 1188 l 869 1186 l 869 1197 l 878 1197 z m 753 1100 l 753 1110 l 761 1108 l 761 1100 z m 878 1144 l 869 1144 l 871 1153 l 878 1153 z m 839 1142 l 831 1144 l 835 1153 l 842 1150 z m 899 1174 l 899 1165 l 890 1164 l 890 1172 z m 857 1168 l 850 1167 l 849 1175 l 857 1176 z m 939 1126 l 932 1126 l 932 1132 l 938 1133 z m 958 1140 l 951 1142 l 953 1147 l 958 1147 z m 774 1124 l 767 1126 l 768 1132 l 775 1131 z m 772 1089 l 769 1089 l 768 1092 l 772 1092 z m 961 1106 l 956 1106 l 956 1113 l 961 1111 z m 794 1108 l 793 1104 l 788 1106 l 788 1110 z m 933 1167 l 935 1172 l 939 1172 l 938 1165 z m 918 1186 l 914 1186 l 913 1189 l 918 1190 z m 818 1132 l 818 1124 l 811 1124 l 811 1132 z m 800 1150 l 794 1144 l 790 1144 l 790 1149 l 799 1151 l 803 1158 l 806 1164 l 815 1165 l 813 1156 l 807 1154 z m 836 1171 l 829 1169 l 828 1178 l 836 1179 z "},"":{"ha":1057,"x_min":0,"x_max":0,"o":"m 760 486 l 749 467 l 729 457 l 685 453 l 636 450 l 622 457 l 621 471 l 626 490 l 633 508 l 638 524 l 646 542 l 653 556 l 661 572 l 672 607 l 681 625 l 689 640 l 694 657 l 703 672 l 711 690 l 726 721 l 738 739 l 744 757 l 756 771 l 763 786 l 774 801 l 782 817 l 794 831 l 804 838 l 806 825 l 801 810 l 801 792 l 799 772 l 792 756 l 792 736 l 789 719 l 785 701 l 782 683 l 778 647 l 778 629 l 774 611 l 771 594 l 771 575 l 767 557 l 763 540 l 765 522 l 760 503 z m 1115 299 l 1096 286 l 1082 267 l 1075 249 l 1065 232 l 1058 215 l 1040 185 l 1032 168 l 1019 151 l 1008 140 l 999 125 l 988 111 l 976 103 l 961 93 l 943 86 l 918 85 l 894 88 l 881 97 l 869 114 l 858 129 l 856 146 l 850 164 l 846 185 l 846 203 l 843 221 l 840 249 l 842 275 l 840 293 l 836 311 l 836 329 l 839 347 l 839 367 l 842 403 l 842 418 l 839 439 l 842 456 l 846 510 l 847 529 l 850 549 l 849 567 l 861 656 l 865 672 l 867 692 l 867 710 l 869 726 l 875 746 l 878 763 l 878 782 l 879 800 l 882 817 l 885 836 l 888 854 l 894 871 l 893 890 l 897 907 l 901 935 l 900 960 l 889 972 l 875 979 l 857 982 l 843 979 l 819 964 l 799 950 l 788 938 l 776 924 l 751 896 l 731 868 l 718 854 l 701 824 l 690 808 l 679 792 l 674 776 l 665 761 l 653 746 l 646 728 l 638 713 l 629 696 l 624 681 l 613 665 l 607 650 l 596 631 l 592 614 l 583 600 l 578 581 l 568 565 l 556 532 l 544 517 l 539 500 l 531 485 l 525 467 l 506 451 l 486 442 l 468 440 l 449 439 l 429 440 l 413 440 l 354 444 l 329 443 l 311 432 l 301 417 l 301 399 l 307 383 l 322 371 l 350 364 l 369 361 l 389 361 l 404 363 l 424 361 l 442 361 l 458 356 l 461 339 l 450 322 l 433 289 l 422 275 l 393 228 l 382 210 l 374 194 l 349 168 l 325 140 l 301 115 l 283 106 l 272 96 l 254 89 l 238 83 l 210 81 l 185 82 l 164 85 l 150 90 l 136 104 l 119 125 l 97 140 l 78 139 l 61 131 l 49 115 l 47 88 l 58 61 l 71 46 l 83 33 l 100 22 l 124 10 l 171 -1 l 186 -3 l 215 -1 l 244 1 l 278 13 l 313 28 l 328 38 l 340 50 l 361 67 l 383 85 l 392 97 l 404 113 l 418 126 l 429 142 l 440 157 l 454 172 l 461 185 l 469 203 l 482 218 l 494 232 l 503 247 l 511 264 l 519 281 l 538 311 l 546 328 l 557 344 l 575 361 l 596 371 l 615 372 l 633 374 l 654 375 l 693 376 l 707 379 l 726 381 l 744 374 l 754 356 l 754 338 l 754 321 l 754 286 l 756 271 l 753 253 l 754 225 l 758 199 l 760 181 l 765 163 l 768 143 l 775 110 l 781 92 l 789 75 l 797 61 l 811 47 l 821 33 l 833 25 l 850 14 l 882 4 l 910 1 l 935 4 l 954 7 l 971 13 l 983 22 l 1001 32 l 1013 42 l 1025 54 l 1039 68 l 1051 79 l 1075 111 l 1082 124 l 1099 157 l 1111 169 l 1125 201 l 1136 218 l 1143 236 l 1147 261 l 1143 285 l 1132 296 z m 815 629 l 814 625 l 810 618 l 804 621 l 808 628 l 811 631 l 814 632 l 818 636 l 819 644 l 824 649 l 831 647 l 832 640 l 831 636 l 828 635 l 821 633 z m 493 383 l 490 379 l 482 379 l 478 382 l 478 389 l 481 392 l 489 393 l 492 390 z m 856 874 l 853 869 l 844 869 l 842 872 l 843 881 l 846 885 l 854 885 l 856 882 z m 458 396 l 456 399 l 454 407 l 457 410 l 460 411 l 468 411 l 471 408 l 469 400 l 467 397 z m 253 64 l 257 61 l 260 57 l 263 54 l 265 51 l 268 49 l 268 42 l 263 44 l 260 47 l 257 50 l 254 53 l 251 57 l 249 61 l 249 64 z m 517 403 l 514 400 l 510 399 l 500 400 l 499 408 l 501 413 l 507 415 l 515 414 l 517 411 z m 810 456 l 813 453 l 813 444 l 808 442 l 800 443 l 799 450 l 801 453 z m 554 443 l 551 442 l 543 442 l 540 444 l 542 451 l 546 456 l 554 453 z m 532 393 l 535 390 l 533 383 l 525 382 l 522 389 l 524 393 z m 878 939 l 875 936 l 867 936 l 864 939 l 864 949 l 872 950 l 876 947 z m 789 424 l 788 421 l 778 421 l 776 425 l 776 433 l 788 435 l 790 432 z m 789 851 l 779 851 l 778 854 l 778 863 l 782 865 l 789 864 l 790 860 z m 810 414 l 811 404 l 808 401 l 801 401 l 800 410 l 801 413 z m 813 489 l 804 488 l 800 494 l 801 497 l 808 499 l 811 497 z m 804 874 l 801 876 l 801 885 l 810 888 l 813 885 l 813 876 z m 706 419 l 699 419 l 696 422 l 694 425 l 697 432 l 704 432 l 707 428 z m 514 357 l 504 357 l 499 360 l 500 369 l 510 369 l 514 367 z m 793 517 l 793 508 l 792 507 l 785 507 l 782 508 l 783 517 l 785 518 z m 533 431 l 533 422 l 532 419 l 524 418 l 522 421 l 524 429 l 525 431 z m 789 383 l 779 383 l 778 386 l 778 393 l 786 393 l 789 390 z m 618 553 l 610 553 l 608 560 l 610 563 l 615 564 l 618 561 z m 831 861 l 833 858 l 833 850 l 825 849 l 822 851 l 822 858 z m 621 433 l 621 425 l 618 422 l 611 424 l 611 431 l 614 433 z m 438 382 l 439 389 l 446 386 l 444 381 z m 833 940 l 831 938 l 822 938 l 821 944 l 824 949 l 831 949 z m 767 400 l 758 401 l 757 410 l 760 411 l 767 411 l 769 408 z m 572 390 l 575 388 l 574 382 l 565 382 l 565 389 z m 790 904 l 792 896 l 790 893 l 788 890 l 779 893 l 779 901 l 783 904 z m 851 833 l 843 832 l 843 840 l 851 842 z m 572 476 l 575 468 l 572 465 l 565 465 l 563 468 l 564 476 z m 749 426 l 746 424 l 738 424 l 735 432 l 738 433 l 744 433 l 747 432 z m 782 478 l 790 478 l 790 468 l 789 465 l 782 467 l 778 469 z m 769 874 l 763 874 l 760 881 l 767 882 l 769 881 z m 824 897 l 822 906 l 831 907 l 831 899 z m 404 167 l 397 167 l 399 174 l 406 174 z m 661 425 l 658 422 l 650 424 l 651 432 l 654 433 l 661 431 z m 767 443 l 758 443 l 758 450 l 767 450 z m 467 369 l 467 361 l 464 360 l 457 361 l 458 369 z m 575 508 l 567 508 l 568 517 l 575 515 z m 810 358 l 803 358 l 803 368 l 810 368 z m 846 788 l 843 794 l 844 797 l 851 797 l 853 789 z m 124 61 l 117 63 l 119 69 l 126 67 z m 813 535 l 806 533 l 806 540 l 813 540 z m 597 404 l 594 401 l 586 401 l 585 408 l 586 411 l 594 413 z m 589 489 l 592 497 l 599 494 l 599 488 z m 639 413 l 640 406 l 632 403 l 632 411 z m 547 496 l 554 494 l 554 486 l 546 489 z m 597 442 l 588 442 l 586 449 l 597 450 z m 811 274 l 803 274 l 804 282 l 811 281 z m 872 897 l 865 897 l 868 904 l 875 903 z m 490 294 l 483 296 l 485 303 l 492 301 z m 672 404 l 672 410 l 681 410 l 679 403 z m 789 174 l 789 167 l 783 167 l 783 172 z m 551 361 l 544 361 l 546 369 l 551 371 z m 811 240 l 813 232 l 804 231 l 803 239 z m 574 424 l 567 424 l 567 432 l 569 435 l 576 432 z m 599 574 l 592 574 l 589 581 l 597 581 z m 819 467 l 818 472 l 825 474 l 825 468 z m 829 510 l 824 511 l 824 518 l 829 517 z m 856 958 l 850 957 l 847 964 l 854 964 z m 426 192 l 421 192 l 421 197 l 428 197 z m 831 819 l 831 813 l 826 813 l 825 819 z m 724 790 l 718 790 l 718 797 l 724 796 z m 460 275 l 460 282 l 467 282 l 468 275 z m 846 915 l 846 922 l 853 925 l 853 918 z m 467 322 l 467 317 l 461 317 l 461 322 z m 829 685 l 829 679 l 824 678 l 824 683 z m 811 668 l 810 663 l 804 664 l 806 669 z m 544 403 l 543 410 l 544 411 l 553 411 l 553 403 z m 317 88 l 315 81 l 311 81 l 311 88 z m 489 429 l 489 424 l 482 424 l 482 429 z m 790 210 l 783 210 l 783 215 l 789 215 z m 851 67 l 851 63 l 846 64 l 847 68 z m 806 704 l 806 710 l 811 711 l 811 704 z m 828 426 l 824 426 l 824 431 l 828 431 z m 783 297 l 783 303 l 789 303 l 789 297 z m 811 146 l 806 146 l 806 153 l 811 153 z m 529 350 l 529 343 l 524 343 l 524 349 z m 810 189 l 804 188 l 804 194 l 810 194 z m 724 403 l 718 403 l 718 408 l 724 408 z m 789 342 l 782 342 l 782 347 l 789 347 z m 425 410 l 425 403 l 419 403 l 419 408 z m 382 149 l 376 150 l 378 154 l 383 154 z m 489 340 l 482 339 l 483 346 l 489 347 z m 504 318 l 501 324 l 510 328 l 513 321 l 511 318 z m 638 664 l 633 664 l 635 668 l 638 668 z m 657 636 l 651 640 l 654 644 l 658 643 z m 825 82 l 826 90 l 833 90 l 832 81 z m 149 46 l 147 39 l 142 42 l 142 47 z m 224 39 l 222 46 l 231 46 l 229 40 z m 658 689 l 660 683 l 654 683 l 653 689 z m 828 553 l 822 554 l 825 558 l 831 558 z m 825 126 l 825 132 l 831 132 l 831 126 z m 808 918 l 803 918 l 803 925 l 810 922 z m 811 576 l 804 576 l 804 582 l 810 582 z m 829 769 l 825 771 l 826 774 l 829 774 z m 100 46 l 106 44 l 103 40 l 99 40 z m 868 42 l 869 47 l 872 46 l 872 40 z m 914 40 l 911 42 l 911 46 l 915 46 z m 788 253 l 783 254 l 785 258 l 789 258 z m 426 235 l 422 236 l 424 240 l 426 239 z m 806 318 l 807 324 l 810 322 l 811 318 z m 864 853 l 864 858 l 869 858 l 869 853 z m 767 836 l 763 835 l 763 838 l 767 839 z m 767 368 l 767 361 l 761 364 l 763 368 z m 846 749 l 846 754 l 851 754 l 850 747 z m 829 726 l 825 726 l 826 731 l 829 731 z m 617 514 l 611 514 l 614 519 l 618 519 z m 463 236 l 463 231 l 457 232 l 458 236 z m 360 128 l 356 128 l 356 132 l 360 132 z m 789 556 l 786 557 l 788 560 l 789 558 z m 438 211 l 438 214 l 442 214 l 440 210 z m 826 214 l 828 210 l 825 211 l 824 213 z m 826 600 l 825 599 l 824 601 l 826 601 z m 619 600 l 615 599 l 615 603 l 619 601 z m 186 40 l 182 39 l 182 46 l 188 46 z m 701 774 l 697 772 l 697 776 l 701 775 z m 103 83 l 99 82 l 100 88 l 103 86 z m 1000 86 l 1000 83 l 997 86 z m 954 42 l 956 46 l 957 46 l 957 43 z m 810 108 l 810 106 l 807 106 l 807 108 z m 165 65 l 164 63 l 163 64 l 163 65 z m 674 706 l 675 703 l 672 701 l 672 704 z m 846 664 l 846 667 l 849 667 l 849 664 z m 357 422 l 354 425 l 357 426 l 358 425 z m 743 857 l 740 856 l 740 858 l 742 858 z m 443 258 l 443 254 l 439 256 l 440 258 z m 381 406 l 379 404 l 378 407 l 381 407 z m 867 82 l 867 86 l 868 88 l 869 83 z m 293 67 l 294 64 l 293 63 l 290 65 z m 761 1078 l 786 1074 l 813 1081 l 829 1092 l 835 1118 l 828 1144 l 814 1158 l 786 1163 l 761 1160 l 744 1144 l 739 1119 l 744 1093 z m 929 1078 l 957 1074 l 985 1078 l 999 1092 l 1004 1118 l 996 1146 l 982 1158 l 954 1164 l 929 1161 l 915 1146 l 913 1119 l 915 1092 z m 796 1138 l 797 1126 l 786 1126 l 786 1136 z m 772 1103 l 763 1103 l 764 1115 l 775 1113 z m 967 1100 l 954 1101 l 956 1115 l 968 1113 z m 986 1133 l 986 1125 l 979 1124 l 979 1132 z m 936 1125 l 936 1133 l 944 1131 l 944 1124 z m 801 1099 l 792 1099 l 792 1108 l 801 1110 z m 965 1149 l 965 1140 l 957 1139 l 957 1147 z "},"":{"ha":1057,"x_min":0,"x_max":0,"o":"m 760 486 l 749 467 l 729 457 l 685 453 l 636 450 l 622 457 l 621 471 l 626 490 l 633 508 l 638 524 l 646 542 l 653 556 l 661 572 l 672 607 l 681 625 l 689 640 l 694 657 l 703 672 l 711 690 l 726 721 l 738 739 l 744 757 l 756 771 l 763 786 l 774 801 l 782 817 l 794 831 l 804 838 l 806 825 l 801 810 l 801 792 l 799 772 l 792 756 l 792 736 l 789 719 l 785 701 l 782 683 l 778 647 l 778 629 l 774 611 l 771 594 l 771 575 l 767 557 l 763 540 l 765 522 l 760 503 z m 1115 299 l 1096 286 l 1082 267 l 1075 249 l 1065 232 l 1058 215 l 1040 185 l 1032 168 l 1019 151 l 1008 140 l 999 125 l 988 111 l 976 103 l 961 93 l 943 86 l 918 85 l 894 88 l 881 97 l 869 114 l 858 129 l 856 146 l 850 164 l 846 185 l 846 203 l 843 221 l 840 249 l 842 275 l 840 293 l 836 311 l 836 329 l 839 347 l 839 367 l 842 403 l 842 418 l 839 439 l 842 456 l 846 510 l 847 529 l 850 549 l 849 567 l 861 656 l 865 672 l 867 692 l 867 710 l 869 726 l 875 746 l 878 763 l 878 782 l 879 800 l 882 817 l 885 836 l 888 854 l 894 871 l 893 890 l 897 907 l 901 935 l 900 960 l 889 972 l 875 979 l 857 982 l 843 979 l 819 964 l 799 950 l 788 938 l 776 924 l 751 896 l 731 868 l 718 854 l 701 824 l 690 808 l 679 792 l 674 776 l 665 761 l 653 746 l 646 728 l 638 713 l 629 696 l 624 681 l 613 665 l 607 650 l 596 631 l 592 614 l 583 600 l 578 581 l 568 565 l 556 532 l 544 517 l 539 500 l 531 485 l 525 467 l 506 451 l 486 442 l 468 440 l 449 439 l 429 440 l 413 440 l 354 444 l 329 443 l 311 432 l 301 417 l 301 399 l 307 383 l 322 371 l 350 364 l 369 361 l 389 361 l 404 363 l 424 361 l 442 361 l 458 356 l 461 339 l 450 322 l 433 289 l 422 275 l 393 228 l 382 210 l 374 194 l 349 168 l 325 140 l 301 115 l 283 106 l 272 96 l 254 89 l 238 83 l 210 81 l 185 82 l 164 85 l 150 90 l 136 104 l 119 125 l 97 140 l 78 139 l 61 131 l 49 115 l 47 88 l 58 61 l 71 46 l 83 33 l 100 22 l 124 10 l 171 -1 l 186 -3 l 215 -1 l 244 1 l 278 13 l 313 28 l 328 38 l 340 50 l 361 67 l 383 85 l 392 97 l 404 113 l 418 126 l 429 142 l 440 157 l 454 172 l 461 185 l 469 203 l 482 218 l 494 232 l 503 247 l 511 264 l 519 281 l 538 311 l 546 328 l 557 344 l 575 361 l 596 371 l 615 372 l 633 374 l 654 375 l 693 376 l 707 379 l 726 381 l 744 374 l 754 356 l 754 338 l 754 321 l 754 286 l 756 271 l 753 253 l 754 225 l 758 199 l 760 181 l 765 163 l 768 143 l 775 110 l 781 92 l 789 75 l 797 61 l 811 47 l 821 33 l 833 25 l 850 14 l 882 4 l 910 1 l 935 4 l 954 7 l 971 13 l 983 22 l 1001 32 l 1013 42 l 1025 54 l 1039 68 l 1051 79 l 1075 111 l 1082 124 l 1099 157 l 1111 169 l 1125 201 l 1136 218 l 1143 236 l 1147 261 l 1143 285 l 1132 296 z m 815 629 l 814 625 l 810 618 l 804 621 l 808 628 l 811 631 l 814 632 l 818 636 l 819 644 l 824 649 l 831 647 l 832 640 l 831 636 l 828 635 l 821 633 z m 493 383 l 490 379 l 482 379 l 478 382 l 478 389 l 481 392 l 489 393 l 492 390 z m 856 874 l 853 869 l 844 869 l 842 872 l 843 881 l 846 885 l 854 885 l 856 882 z m 458 396 l 456 399 l 454 407 l 457 410 l 460 411 l 468 411 l 471 408 l 469 400 l 467 397 z m 253 64 l 257 61 l 260 57 l 263 54 l 265 51 l 268 49 l 268 42 l 263 44 l 260 47 l 257 50 l 254 53 l 251 57 l 249 61 l 249 64 z m 517 403 l 514 400 l 510 399 l 500 400 l 499 408 l 501 413 l 507 415 l 515 414 l 517 411 z m 810 456 l 813 453 l 813 444 l 808 442 l 800 443 l 799 450 l 801 453 z m 554 443 l 551 442 l 543 442 l 540 444 l 542 451 l 546 456 l 554 453 z m 532 393 l 535 390 l 533 383 l 525 382 l 522 389 l 524 393 z m 878 939 l 875 936 l 867 936 l 864 939 l 864 949 l 872 950 l 876 947 z m 789 424 l 788 421 l 778 421 l 776 425 l 776 433 l 788 435 l 790 432 z m 789 851 l 779 851 l 778 854 l 778 863 l 782 865 l 789 864 l 790 860 z m 810 414 l 811 404 l 808 401 l 801 401 l 800 410 l 801 413 z m 813 489 l 804 488 l 800 494 l 801 497 l 808 499 l 811 497 z m 804 874 l 801 876 l 801 885 l 810 888 l 813 885 l 813 876 z m 706 419 l 699 419 l 696 422 l 694 425 l 697 432 l 704 432 l 707 428 z m 514 357 l 504 357 l 499 360 l 500 369 l 510 369 l 514 367 z m 793 517 l 793 508 l 792 507 l 785 507 l 782 508 l 783 517 l 785 518 z m 533 431 l 533 422 l 532 419 l 524 418 l 522 421 l 524 429 l 525 431 z m 789 383 l 779 383 l 778 386 l 778 393 l 786 393 l 789 390 z m 618 553 l 610 553 l 608 560 l 610 563 l 615 564 l 618 561 z m 831 861 l 833 858 l 833 850 l 825 849 l 822 851 l 822 858 z m 621 433 l 621 425 l 618 422 l 611 424 l 611 431 l 614 433 z m 438 382 l 439 389 l 446 386 l 444 381 z m 833 940 l 831 938 l 822 938 l 821 944 l 824 949 l 831 949 z m 767 400 l 758 401 l 757 410 l 760 411 l 767 411 l 769 408 z m 572 390 l 575 388 l 574 382 l 565 382 l 565 389 z m 790 904 l 792 896 l 790 893 l 788 890 l 779 893 l 779 901 l 783 904 z m 851 833 l 843 832 l 843 840 l 851 842 z m 572 476 l 575 468 l 572 465 l 565 465 l 563 468 l 564 476 z m 749 426 l 746 424 l 738 424 l 735 432 l 738 433 l 744 433 l 747 432 z m 782 478 l 790 478 l 790 468 l 789 465 l 782 467 l 778 469 z m 769 874 l 763 874 l 760 881 l 767 882 l 769 881 z m 824 897 l 822 906 l 831 907 l 831 899 z m 404 167 l 397 167 l 399 174 l 406 174 z m 661 425 l 658 422 l 650 424 l 651 432 l 654 433 l 661 431 z m 767 443 l 758 443 l 758 450 l 767 450 z m 467 369 l 467 361 l 464 360 l 457 361 l 458 369 z m 575 508 l 567 508 l 568 517 l 575 515 z m 810 358 l 803 358 l 803 368 l 810 368 z m 846 788 l 843 794 l 844 797 l 851 797 l 853 789 z m 124 61 l 117 63 l 119 69 l 126 67 z m 813 535 l 806 533 l 806 540 l 813 540 z m 597 404 l 594 401 l 586 401 l 585 408 l 586 411 l 594 413 z m 589 489 l 592 497 l 599 494 l 599 488 z m 639 413 l 640 406 l 632 403 l 632 411 z m 547 496 l 554 494 l 554 486 l 546 489 z m 597 442 l 588 442 l 586 449 l 597 450 z m 811 274 l 803 274 l 804 282 l 811 281 z m 872 897 l 865 897 l 868 904 l 875 903 z m 490 294 l 483 296 l 485 303 l 492 301 z m 672 404 l 672 410 l 681 410 l 679 403 z m 789 174 l 789 167 l 783 167 l 783 172 z m 551 361 l 544 361 l 546 369 l 551 371 z m 811 240 l 813 232 l 804 231 l 803 239 z m 574 424 l 567 424 l 567 432 l 569 435 l 576 432 z m 599 574 l 592 574 l 589 581 l 597 581 z m 819 467 l 818 472 l 825 474 l 825 468 z m 829 510 l 824 511 l 824 518 l 829 517 z m 856 958 l 850 957 l 847 964 l 854 964 z m 426 192 l 421 192 l 421 197 l 428 197 z m 831 819 l 831 813 l 826 813 l 825 819 z m 724 790 l 718 790 l 718 797 l 724 796 z m 460 275 l 460 282 l 467 282 l 468 275 z m 846 915 l 846 922 l 853 925 l 853 918 z m 467 322 l 467 317 l 461 317 l 461 322 z m 829 685 l 829 679 l 824 678 l 824 683 z m 811 668 l 810 663 l 804 664 l 806 669 z m 544 403 l 543 410 l 544 411 l 553 411 l 553 403 z m 317 88 l 315 81 l 311 81 l 311 88 z m 489 429 l 489 424 l 482 424 l 482 429 z m 790 210 l 783 210 l 783 215 l 789 215 z m 851 67 l 851 63 l 846 64 l 847 68 z m 806 704 l 806 710 l 811 711 l 811 704 z m 828 426 l 824 426 l 824 431 l 828 431 z m 783 297 l 783 303 l 789 303 l 789 297 z m 811 146 l 806 146 l 806 153 l 811 153 z m 529 350 l 529 343 l 524 343 l 524 349 z m 810 189 l 804 188 l 804 194 l 810 194 z m 724 403 l 718 403 l 718 408 l 724 408 z m 789 342 l 782 342 l 782 347 l 789 347 z m 425 410 l 425 403 l 419 403 l 419 408 z m 382 149 l 376 150 l 378 154 l 383 154 z m 489 340 l 482 339 l 483 346 l 489 347 z m 504 318 l 501 324 l 510 328 l 513 321 l 511 318 z m 638 664 l 633 664 l 635 668 l 638 668 z m 657 636 l 651 640 l 654 644 l 658 643 z m 825 82 l 826 90 l 833 90 l 832 81 z m 149 46 l 147 39 l 142 42 l 142 47 z m 224 39 l 222 46 l 231 46 l 229 40 z m 658 689 l 660 683 l 654 683 l 653 689 z m 828 553 l 822 554 l 825 558 l 831 558 z m 825 126 l 825 132 l 831 132 l 831 126 z m 808 918 l 803 918 l 803 925 l 810 922 z m 811 576 l 804 576 l 804 582 l 810 582 z m 829 769 l 825 771 l 826 774 l 829 774 z m 100 46 l 106 44 l 103 40 l 99 40 z m 868 42 l 869 47 l 872 46 l 872 40 z m 914 40 l 911 42 l 911 46 l 915 46 z m 788 253 l 783 254 l 785 258 l 789 258 z m 426 235 l 422 236 l 424 240 l 426 239 z m 806 318 l 807 324 l 810 322 l 811 318 z m 864 853 l 864 858 l 869 858 l 869 853 z m 767 836 l 763 835 l 763 838 l 767 839 z m 767 368 l 767 361 l 761 364 l 763 368 z m 846 749 l 846 754 l 851 754 l 850 747 z m 829 726 l 825 726 l 826 731 l 829 731 z m 617 514 l 611 514 l 614 519 l 618 519 z m 463 236 l 463 231 l 457 232 l 458 236 z m 360 128 l 356 128 l 356 132 l 360 132 z m 789 556 l 786 557 l 788 560 l 789 558 z m 438 211 l 438 214 l 442 214 l 440 210 z m 826 214 l 828 210 l 825 211 l 824 213 z m 826 600 l 825 599 l 824 601 l 826 601 z m 619 600 l 615 599 l 615 603 l 619 601 z m 186 40 l 182 39 l 182 46 l 188 46 z m 701 774 l 697 772 l 697 776 l 701 775 z m 103 83 l 99 82 l 100 88 l 103 86 z m 1000 86 l 1000 83 l 997 86 z m 954 42 l 956 46 l 957 46 l 957 43 z m 810 108 l 810 106 l 807 106 l 807 108 z m 165 65 l 164 63 l 163 64 l 163 65 z m 674 706 l 675 703 l 672 701 l 672 704 z m 846 664 l 846 667 l 849 667 l 849 664 z m 357 422 l 354 425 l 357 426 l 358 425 z m 743 857 l 740 856 l 740 858 l 742 858 z m 443 258 l 443 254 l 439 256 l 440 258 z m 381 406 l 379 404 l 378 407 l 381 407 z m 867 82 l 867 86 l 868 88 l 869 83 z m 293 67 l 294 64 l 293 63 l 290 65 z m 818 1203 l 799 1219 l 779 1235 l 760 1235 l 743 1228 l 736 1215 l 732 1199 l 744 1176 l 763 1156 l 774 1144 l 785 1132 l 799 1119 l 810 1107 l 824 1094 l 842 1075 l 864 1064 l 885 1064 l 899 1075 l 903 1090 l 896 1114 l 879 1135 l 868 1149 l 856 1161 l 844 1176 l 828 1188 z m 822 1129 l 815 1132 l 806 1143 l 811 1154 l 822 1151 l 826 1140 l 828 1133 l 836 1125 l 844 1121 l 846 1110 l 833 1110 l 829 1118 z m 758 1188 l 758 1199 l 768 1197 l 768 1186 z m 861 1083 l 861 1093 l 869 1093 l 869 1085 z m 835 1171 l 840 1167 l 840 1163 l 833 1165 z m 790 1164 l 785 1165 l 788 1171 l 792 1169 z "},"":{"ha":1057,"x_min":0,"x_max":0,"o":"m 760 486 l 749 467 l 729 457 l 685 453 l 636 450 l 622 457 l 621 471 l 626 490 l 633 508 l 638 524 l 646 542 l 653 556 l 661 572 l 672 607 l 681 625 l 689 640 l 694 657 l 703 672 l 711 690 l 726 721 l 738 739 l 744 757 l 756 771 l 763 786 l 774 801 l 782 817 l 794 831 l 804 838 l 806 825 l 801 810 l 801 792 l 799 772 l 792 756 l 792 736 l 789 719 l 785 701 l 782 683 l 778 647 l 778 629 l 774 611 l 771 594 l 771 575 l 767 557 l 763 540 l 765 522 l 760 503 z m 1115 299 l 1096 286 l 1082 267 l 1075 249 l 1065 232 l 1058 215 l 1040 185 l 1032 168 l 1019 151 l 1008 140 l 999 125 l 988 111 l 976 103 l 961 93 l 943 86 l 918 85 l 894 88 l 881 97 l 869 114 l 858 129 l 856 146 l 850 164 l 846 185 l 846 203 l 843 221 l 840 249 l 842 275 l 840 293 l 836 311 l 836 329 l 839 347 l 839 367 l 842 403 l 842 418 l 839 439 l 842 456 l 846 510 l 847 529 l 850 549 l 849 567 l 861 656 l 865 672 l 867 692 l 867 710 l 869 726 l 875 746 l 878 763 l 878 782 l 879 800 l 882 817 l 885 836 l 888 854 l 894 871 l 893 890 l 897 907 l 901 935 l 900 960 l 889 972 l 875 979 l 857 982 l 843 979 l 819 964 l 799 950 l 788 938 l 776 924 l 751 896 l 731 868 l 718 854 l 701 824 l 690 808 l 679 792 l 674 776 l 665 761 l 653 746 l 646 728 l 638 713 l 629 696 l 624 681 l 613 665 l 607 650 l 596 631 l 592 614 l 583 600 l 578 581 l 568 565 l 556 532 l 544 517 l 539 500 l 531 485 l 525 467 l 506 451 l 486 442 l 468 440 l 449 439 l 429 440 l 413 440 l 354 444 l 329 443 l 311 432 l 301 417 l 301 399 l 307 383 l 322 371 l 350 364 l 369 361 l 389 361 l 404 363 l 424 361 l 442 361 l 458 356 l 461 339 l 450 322 l 433 289 l 422 275 l 393 228 l 382 210 l 374 194 l 349 168 l 325 140 l 301 115 l 283 106 l 272 96 l 254 89 l 238 83 l 210 81 l 185 82 l 164 85 l 150 90 l 136 104 l 119 125 l 97 140 l 78 139 l 61 131 l 49 115 l 47 88 l 58 61 l 71 46 l 83 33 l 100 22 l 124 10 l 171 -1 l 186 -3 l 215 -1 l 244 1 l 278 13 l 313 28 l 328 38 l 340 50 l 361 67 l 383 85 l 392 97 l 404 113 l 418 126 l 429 142 l 440 157 l 454 172 l 461 185 l 469 203 l 482 218 l 494 232 l 503 247 l 511 264 l 519 281 l 538 311 l 546 328 l 557 344 l 575 361 l 596 371 l 615 372 l 633 374 l 654 375 l 693 376 l 707 379 l 726 381 l 744 374 l 754 356 l 754 338 l 754 321 l 754 286 l 756 271 l 753 253 l 754 225 l 758 199 l 760 181 l 765 163 l 768 143 l 775 110 l 781 92 l 789 75 l 797 61 l 811 47 l 821 33 l 833 25 l 850 14 l 882 4 l 910 1 l 935 4 l 954 7 l 971 13 l 983 22 l 1001 32 l 1013 42 l 1025 54 l 1039 68 l 1051 79 l 1075 111 l 1082 124 l 1099 157 l 1111 169 l 1125 201 l 1136 218 l 1143 236 l 1147 261 l 1143 285 l 1132 296 z m 815 629 l 814 625 l 810 618 l 804 621 l 808 628 l 811 631 l 814 632 l 818 636 l 819 644 l 824 649 l 831 647 l 832 640 l 831 636 l 828 635 l 821 633 z m 493 383 l 490 379 l 482 379 l 478 382 l 478 389 l 481 392 l 489 393 l 492 390 z m 856 874 l 853 869 l 844 869 l 842 872 l 843 881 l 846 885 l 854 885 l 856 882 z m 458 396 l 456 399 l 454 407 l 457 410 l 460 411 l 468 411 l 471 408 l 469 400 l 467 397 z m 253 64 l 257 61 l 260 57 l 263 54 l 265 51 l 268 49 l 268 42 l 263 44 l 260 47 l 257 50 l 254 53 l 251 57 l 249 61 l 249 64 z m 517 403 l 514 400 l 510 399 l 500 400 l 499 408 l 501 413 l 507 415 l 515 414 l 517 411 z m 810 456 l 813 453 l 813 444 l 808 442 l 800 443 l 799 450 l 801 453 z m 554 443 l 551 442 l 543 442 l 540 444 l 542 451 l 546 456 l 554 453 z m 532 393 l 535 390 l 533 383 l 525 382 l 522 389 l 524 393 z m 878 939 l 875 936 l 867 936 l 864 939 l 864 949 l 872 950 l 876 947 z m 789 424 l 788 421 l 778 421 l 776 425 l 776 433 l 788 435 l 790 432 z m 789 851 l 779 851 l 778 854 l 778 863 l 782 865 l 789 864 l 790 860 z m 810 414 l 811 404 l 808 401 l 801 401 l 800 410 l 801 413 z m 813 489 l 804 488 l 800 494 l 801 497 l 808 499 l 811 497 z m 804 874 l 801 876 l 801 885 l 810 888 l 813 885 l 813 876 z m 706 419 l 699 419 l 696 422 l 694 425 l 697 432 l 704 432 l 707 428 z m 514 357 l 504 357 l 499 360 l 500 369 l 510 369 l 514 367 z m 793 517 l 793 508 l 792 507 l 785 507 l 782 508 l 783 517 l 785 518 z m 533 431 l 533 422 l 532 419 l 524 418 l 522 421 l 524 429 l 525 431 z m 789 383 l 779 383 l 778 386 l 778 393 l 786 393 l 789 390 z m 618 553 l 610 553 l 608 560 l 610 563 l 615 564 l 618 561 z m 831 861 l 833 858 l 833 850 l 825 849 l 822 851 l 822 858 z m 621 433 l 621 425 l 618 422 l 611 424 l 611 431 l 614 433 z m 438 382 l 439 389 l 446 386 l 444 381 z m 833 940 l 831 938 l 822 938 l 821 944 l 824 949 l 831 949 z m 767 400 l 758 401 l 757 410 l 760 411 l 767 411 l 769 408 z m 572 390 l 575 388 l 574 382 l 565 382 l 565 389 z m 790 904 l 792 896 l 790 893 l 788 890 l 779 893 l 779 901 l 783 904 z m 851 833 l 843 832 l 843 840 l 851 842 z m 572 476 l 575 468 l 572 465 l 565 465 l 563 468 l 564 476 z m 749 426 l 746 424 l 738 424 l 735 432 l 738 433 l 744 433 l 747 432 z m 782 478 l 790 478 l 790 468 l 789 465 l 782 467 l 778 469 z m 769 874 l 763 874 l 760 881 l 767 882 l 769 881 z m 824 897 l 822 906 l 831 907 l 831 899 z m 404 167 l 397 167 l 399 174 l 406 174 z m 661 425 l 658 422 l 650 424 l 651 432 l 654 433 l 661 431 z m 767 443 l 758 443 l 758 450 l 767 450 z m 467 369 l 467 361 l 464 360 l 457 361 l 458 369 z m 575 508 l 567 508 l 568 517 l 575 515 z m 810 358 l 803 358 l 803 368 l 810 368 z m 846 788 l 843 794 l 844 797 l 851 797 l 853 789 z m 124 61 l 117 63 l 119 69 l 126 67 z m 813 535 l 806 533 l 806 540 l 813 540 z m 597 404 l 594 401 l 586 401 l 585 408 l 586 411 l 594 413 z m 589 489 l 592 497 l 599 494 l 599 488 z m 639 413 l 640 406 l 632 403 l 632 411 z m 547 496 l 554 494 l 554 486 l 546 489 z m 597 442 l 588 442 l 586 449 l 597 450 z m 811 274 l 803 274 l 804 282 l 811 281 z m 872 897 l 865 897 l 868 904 l 875 903 z m 490 294 l 483 296 l 485 303 l 492 301 z m 672 404 l 672 410 l 681 410 l 679 403 z m 789 174 l 789 167 l 783 167 l 783 172 z m 551 361 l 544 361 l 546 369 l 551 371 z m 811 240 l 813 232 l 804 231 l 803 239 z m 574 424 l 567 424 l 567 432 l 569 435 l 576 432 z m 599 574 l 592 574 l 589 581 l 597 581 z m 819 467 l 818 472 l 825 474 l 825 468 z m 829 510 l 824 511 l 824 518 l 829 517 z m 856 958 l 850 957 l 847 964 l 854 964 z m 426 192 l 421 192 l 421 197 l 428 197 z m 831 819 l 831 813 l 826 813 l 825 819 z m 724 790 l 718 790 l 718 797 l 724 796 z m 460 275 l 460 282 l 467 282 l 468 275 z m 846 915 l 846 922 l 853 925 l 853 918 z m 467 322 l 467 317 l 461 317 l 461 322 z m 829 685 l 829 679 l 824 678 l 824 683 z m 811 668 l 810 663 l 804 664 l 806 669 z m 544 403 l 543 410 l 544 411 l 553 411 l 553 403 z m 317 88 l 315 81 l 311 81 l 311 88 z m 489 429 l 489 424 l 482 424 l 482 429 z m 790 210 l 783 210 l 783 215 l 789 215 z m 851 67 l 851 63 l 846 64 l 847 68 z m 806 704 l 806 710 l 811 711 l 811 704 z m 828 426 l 824 426 l 824 431 l 828 431 z m 783 297 l 783 303 l 789 303 l 789 297 z m 811 146 l 806 146 l 806 153 l 811 153 z m 529 350 l 529 343 l 524 343 l 524 349 z m 810 189 l 804 188 l 804 194 l 810 194 z m 724 403 l 718 403 l 718 408 l 724 408 z m 789 342 l 782 342 l 782 347 l 789 347 z m 425 410 l 425 403 l 419 403 l 419 408 z m 382 149 l 376 150 l 378 154 l 383 154 z m 489 340 l 482 339 l 483 346 l 489 347 z m 504 318 l 501 324 l 510 328 l 513 321 l 511 318 z m 638 664 l 633 664 l 635 668 l 638 668 z m 657 636 l 651 640 l 654 644 l 658 643 z m 825 82 l 826 90 l 833 90 l 832 81 z m 149 46 l 147 39 l 142 42 l 142 47 z m 224 39 l 222 46 l 231 46 l 229 40 z m 658 689 l 660 683 l 654 683 l 653 689 z m 828 553 l 822 554 l 825 558 l 831 558 z m 825 126 l 825 132 l 831 132 l 831 126 z m 808 918 l 803 918 l 803 925 l 810 922 z m 811 576 l 804 576 l 804 582 l 810 582 z m 829 769 l 825 771 l 826 774 l 829 774 z m 100 46 l 106 44 l 103 40 l 99 40 z m 868 42 l 869 47 l 872 46 l 872 40 z m 914 40 l 911 42 l 911 46 l 915 46 z m 788 253 l 783 254 l 785 258 l 789 258 z m 426 235 l 422 236 l 424 240 l 426 239 z m 806 318 l 807 324 l 810 322 l 811 318 z m 864 853 l 864 858 l 869 858 l 869 853 z m 767 836 l 763 835 l 763 838 l 767 839 z m 767 368 l 767 361 l 761 364 l 763 368 z m 846 749 l 846 754 l 851 754 l 850 747 z m 829 726 l 825 726 l 826 731 l 829 731 z m 617 514 l 611 514 l 614 519 l 618 519 z m 463 236 l 463 231 l 457 232 l 458 236 z m 360 128 l 356 128 l 356 132 l 360 132 z m 789 556 l 786 557 l 788 560 l 789 558 z m 438 211 l 438 214 l 442 214 l 440 210 z m 826 214 l 828 210 l 825 211 l 824 213 z m 826 600 l 825 599 l 824 601 l 826 601 z m 619 600 l 615 599 l 615 603 l 619 601 z m 186 40 l 182 39 l 182 46 l 188 46 z m 701 774 l 697 772 l 697 776 l 701 775 z m 103 83 l 99 82 l 100 88 l 103 86 z m 1000 86 l 1000 83 l 997 86 z m 954 42 l 956 46 l 957 46 l 957 43 z m 810 108 l 810 106 l 807 106 l 807 108 z m 165 65 l 164 63 l 163 64 l 163 65 z m 674 706 l 675 703 l 672 701 l 672 704 z m 846 664 l 846 667 l 849 667 l 849 664 z m 357 422 l 354 425 l 357 426 l 358 425 z m 743 857 l 740 856 l 740 858 l 742 858 z m 443 258 l 443 254 l 439 256 l 440 258 z m 381 406 l 379 404 l 378 407 l 381 407 z m 867 82 l 867 86 l 868 88 l 869 83 z m 293 67 l 294 64 l 293 63 l 290 65 z m 742 1101 l 767 1094 l 792 1090 l 847 1092 l 871 1090 l 897 1092 l 915 1090 l 931 1089 l 950 1090 l 976 1092 l 1000 1101 l 1010 1117 l 1004 1132 l 993 1144 l 969 1153 l 943 1151 l 929 1153 l 910 1153 l 890 1153 l 865 1153 l 849 1151 l 821 1154 l 794 1156 l 760 1153 l 736 1146 l 729 1132 l 729 1115 z m 765 1118 l 760 1110 l 754 1117 l 764 1121 l 768 1124 l 774 1133 l 782 1135 l 782 1126 l 772 1124 z m 931 1129 l 922 1128 l 921 1138 l 931 1139 z m 883 1126 l 875 1128 l 875 1136 l 883 1136 z m 906 1107 l 899 1106 l 899 1114 l 906 1115 z m 807 1106 l 800 1106 l 800 1111 l 807 1111 z m 974 1131 l 969 1133 l 972 1138 l 975 1135 z m 833 1136 l 832 1128 l 825 1129 l 825 1136 z m 953 1107 l 946 1107 l 946 1114 l 953 1114 z m 856 1104 l 850 1104 l 850 1111 l 857 1111 z "},"":{"ha":1057,"x_min":0,"x_max":0,"o":"m 644 451 l 619 458 l 618 474 l 625 490 l 635 507 l 639 524 l 647 540 l 653 557 l 658 574 l 669 590 l 675 610 l 682 624 l 694 658 l 710 692 l 719 707 l 726 724 l 744 756 l 753 772 l 783 818 l 792 833 l 801 836 l 807 828 l 801 811 l 800 793 l 796 775 l 794 757 l 790 738 l 788 719 l 778 649 l 778 631 l 772 613 l 771 593 l 768 578 l 767 542 l 764 524 l 764 504 l 761 488 l 750 469 l 731 457 l 711 457 l 692 456 l 663 451 z m 1049 -228 l 1065 -208 l 1076 -187 l 1071 -174 l 1056 -162 l 1032 -164 l 1008 -176 l 990 -181 l 975 -179 l 956 -171 l 947 -158 l 942 -131 l 942 -104 l 944 -89 l 951 -71 l 956 -54 l 964 -39 l 971 -24 l 981 -7 l 990 7 l 1001 19 l 1014 33 l 1031 54 l 1079 122 l 1088 138 l 1096 154 l 1117 186 l 1122 203 l 1143 236 l 1150 261 l 1146 286 l 1131 296 l 1115 303 l 1096 289 l 1082 265 l 1072 247 l 1057 215 l 1051 199 l 1039 185 l 1029 169 l 1021 154 l 1011 139 l 988 114 l 975 103 l 961 94 l 944 86 l 919 82 l 894 86 l 881 99 l 869 113 l 861 129 l 854 147 l 851 167 l 850 183 l 844 201 l 844 221 l 842 247 l 842 276 l 838 294 l 840 313 l 840 331 l 839 347 l 839 365 l 840 383 l 840 403 l 839 419 l 843 440 l 843 456 l 844 475 l 844 494 l 847 531 l 850 547 l 849 567 l 853 583 l 853 603 l 856 619 l 858 638 l 861 654 l 861 674 l 864 693 l 868 711 l 872 729 l 875 746 l 876 764 l 881 782 l 879 800 l 882 818 l 888 838 l 889 854 l 893 871 l 896 892 l 903 933 l 900 958 l 892 972 l 876 981 l 861 981 l 843 978 l 822 965 l 786 936 l 761 910 l 751 896 l 740 885 l 728 868 l 721 854 l 697 825 l 690 808 l 671 779 l 664 761 l 653 746 l 646 728 l 639 714 l 629 699 l 615 664 l 596 632 l 571 565 l 560 550 l 553 526 l 538 493 l 524 469 l 508 451 l 483 443 l 465 442 l 446 442 l 410 440 l 393 442 l 372 443 l 356 444 l 332 442 l 307 433 l 301 418 l 299 399 l 303 383 l 324 369 l 350 364 l 386 361 l 404 363 l 425 361 l 444 364 l 463 357 l 463 340 l 450 324 l 443 306 l 433 292 l 424 275 l 393 229 l 385 213 l 372 197 l 360 182 l 349 169 l 340 154 l 321 135 l 301 117 l 283 106 l 269 97 l 254 90 l 236 85 l 211 81 l 183 82 l 165 85 l 150 92 l 136 103 l 100 142 l 79 139 l 61 129 l 49 115 l 49 88 l 63 61 l 72 46 l 83 35 l 99 22 l 117 15 l 132 7 l 171 0 l 189 0 l 246 1 l 263 6 l 278 14 l 296 21 l 325 40 l 338 51 l 356 61 l 365 74 l 379 88 l 393 99 l 407 114 l 419 126 l 436 149 l 451 172 l 463 186 l 469 201 l 482 218 l 492 235 l 503 249 l 522 279 l 528 296 l 539 313 l 547 329 l 558 344 l 574 363 l 597 371 l 626 375 l 643 375 l 681 378 l 700 381 l 715 381 l 743 375 l 753 357 l 751 322 l 754 304 l 753 288 l 753 271 l 756 251 l 758 225 l 758 201 l 761 182 l 763 165 l 771 129 l 775 113 l 783 94 l 789 78 l 794 64 l 819 38 l 833 24 l 844 17 l 861 8 l 878 4 l 899 0 l 908 -6 l 908 -22 l 889 -53 l 886 -68 l 878 -85 l 872 -146 l 876 -175 l 882 -193 l 890 -208 l 915 -233 l 929 -240 l 946 -249 l 983 -251 l 1001 -250 l 1021 -244 l 1033 -236 z m 815 629 l 814 625 l 810 618 l 804 621 l 808 628 l 811 631 l 814 632 l 818 636 l 819 644 l 824 649 l 831 647 l 832 640 l 831 636 l 828 635 l 821 633 z m 493 383 l 490 379 l 482 379 l 478 382 l 478 389 l 481 392 l 489 393 l 492 390 z m 856 874 l 853 869 l 844 869 l 842 872 l 843 881 l 846 885 l 854 885 l 856 882 z m 458 396 l 456 399 l 454 407 l 457 410 l 460 411 l 468 411 l 471 408 l 469 400 l 467 397 z m 253 64 l 257 61 l 260 57 l 263 54 l 265 51 l 268 49 l 268 42 l 263 44 l 260 47 l 257 50 l 254 53 l 251 57 l 249 61 l 249 64 z m 517 403 l 514 400 l 510 399 l 500 400 l 499 408 l 501 413 l 507 415 l 515 414 l 517 411 z m 810 456 l 813 453 l 813 444 l 808 442 l 800 443 l 799 450 l 801 453 z m 554 443 l 551 442 l 543 442 l 540 444 l 542 451 l 546 456 l 554 453 z m 532 393 l 535 390 l 533 383 l 525 382 l 522 389 l 524 393 z m 878 939 l 875 936 l 867 936 l 864 939 l 864 949 l 872 950 l 876 947 z m 789 424 l 788 421 l 778 421 l 776 425 l 776 433 l 788 435 l 790 432 z m 789 851 l 779 851 l 778 854 l 778 863 l 782 865 l 789 864 l 790 860 z m 810 414 l 811 404 l 808 401 l 801 401 l 800 410 l 801 413 z m 813 489 l 804 488 l 800 494 l 801 497 l 808 499 l 811 497 z m 804 874 l 801 876 l 801 885 l 810 888 l 813 885 l 813 876 z m 706 419 l 699 419 l 696 422 l 694 425 l 697 432 l 704 432 l 707 428 z m 514 357 l 504 357 l 499 360 l 500 369 l 510 369 l 514 367 z m 793 517 l 793 508 l 792 507 l 785 507 l 782 508 l 783 517 l 785 518 z m 533 431 l 533 422 l 532 419 l 524 418 l 522 421 l 524 429 l 525 431 z m 789 383 l 779 383 l 778 386 l 778 393 l 786 393 l 789 390 z m 618 553 l 610 553 l 608 560 l 610 563 l 615 564 l 618 561 z m 831 861 l 833 858 l 833 850 l 825 849 l 822 851 l 822 858 z m 621 433 l 621 425 l 618 422 l 611 424 l 611 431 l 614 433 z m 438 382 l 439 389 l 446 386 l 444 381 z m 833 940 l 831 938 l 822 938 l 821 944 l 824 949 l 831 949 z m 767 400 l 758 401 l 757 410 l 760 411 l 767 411 l 769 408 z m 572 390 l 575 388 l 574 382 l 565 382 l 565 389 z m 790 904 l 792 896 l 790 893 l 788 890 l 779 893 l 779 901 l 783 904 z m 851 833 l 843 832 l 843 840 l 851 842 z m 572 476 l 575 468 l 572 465 l 565 465 l 563 468 l 564 476 z m 749 426 l 746 424 l 738 424 l 735 432 l 738 433 l 744 433 l 747 432 z m 782 478 l 790 478 l 790 468 l 789 465 l 782 467 l 778 469 z m 769 874 l 763 874 l 760 881 l 767 882 l 769 881 z m 824 897 l 822 906 l 831 907 l 831 899 z m 404 167 l 397 167 l 399 174 l 406 174 z m 661 425 l 658 422 l 650 424 l 651 432 l 654 433 l 661 431 z m 767 443 l 758 443 l 758 450 l 767 450 z m 467 369 l 467 361 l 464 360 l 457 361 l 458 369 z m 575 508 l 567 508 l 568 517 l 575 515 z m 810 358 l 803 358 l 803 368 l 810 368 z m 846 788 l 843 794 l 844 797 l 851 797 l 853 789 z m 124 61 l 117 63 l 119 69 l 126 67 z m 813 535 l 806 533 l 806 540 l 813 540 z m 597 404 l 594 401 l 586 401 l 585 408 l 586 411 l 594 413 z m 589 489 l 592 497 l 599 494 l 599 488 z m 639 413 l 640 406 l 632 403 l 632 411 z m 547 496 l 554 494 l 554 486 l 546 489 z m 597 442 l 588 442 l 586 449 l 597 450 z m 811 274 l 803 274 l 804 282 l 811 281 z m 872 897 l 865 897 l 868 904 l 875 903 z m 490 294 l 483 296 l 485 303 l 492 301 z m 672 404 l 672 410 l 681 410 l 679 403 z m 789 174 l 789 167 l 783 167 l 783 172 z m 551 361 l 544 361 l 546 369 l 551 371 z m 811 240 l 813 232 l 804 231 l 803 239 z m 574 424 l 567 424 l 567 432 l 569 435 l 576 432 z m 599 574 l 592 574 l 589 581 l 597 581 z m 819 467 l 818 472 l 825 474 l 825 468 z m 829 510 l 824 511 l 824 518 l 829 517 z m 856 958 l 850 957 l 847 964 l 854 964 z m 426 192 l 421 192 l 421 197 l 428 197 z m 831 819 l 831 813 l 826 813 l 825 819 z m 724 790 l 718 790 l 718 797 l 724 796 z m 460 275 l 460 282 l 467 282 l 468 275 z m 846 915 l 846 922 l 853 925 l 853 918 z m 467 322 l 467 317 l 461 317 l 461 322 z m 829 685 l 829 679 l 824 678 l 824 683 z m 811 668 l 810 663 l 804 664 l 806 669 z m 544 403 l 543 410 l 544 411 l 553 411 l 553 403 z m 317 88 l 315 81 l 311 81 l 311 88 z m 489 429 l 489 424 l 482 424 l 482 429 z m 790 210 l 783 210 l 783 215 l 789 215 z m 851 67 l 851 63 l 846 64 l 847 68 z m 806 704 l 806 710 l 811 711 l 811 704 z m 828 426 l 824 426 l 824 431 l 828 431 z m 783 297 l 783 303 l 789 303 l 789 297 z m 811 146 l 806 146 l 806 153 l 811 153 z m 529 350 l 529 343 l 524 343 l 524 349 z m 810 189 l 804 188 l 804 194 l 810 194 z m 724 403 l 718 403 l 718 408 l 724 408 z m 789 342 l 782 342 l 782 347 l 789 347 z m 425 410 l 425 403 l 419 403 l 419 408 z m 382 149 l 376 150 l 378 154 l 383 154 z m 489 340 l 482 339 l 483 346 l 489 347 z m 504 318 l 501 324 l 510 328 l 513 321 l 511 318 z m 638 664 l 633 664 l 635 668 l 638 668 z m 657 636 l 651 640 l 654 644 l 658 643 z m 825 82 l 826 90 l 833 90 l 832 81 z m 149 46 l 147 39 l 142 42 l 142 47 z m 224 39 l 222 46 l 231 46 l 229 40 z m 658 689 l 660 683 l 654 683 l 653 689 z m 828 553 l 822 554 l 825 558 l 831 558 z m 825 126 l 825 132 l 831 132 l 831 126 z m 808 918 l 803 918 l 803 925 l 810 922 z m 811 576 l 804 576 l 804 582 l 810 582 z m 829 769 l 825 771 l 826 774 l 829 774 z m 100 46 l 106 44 l 103 40 l 99 40 z m 868 42 l 869 47 l 872 46 l 872 40 z m 914 40 l 911 42 l 911 46 l 915 46 z m 788 253 l 783 254 l 785 258 l 789 258 z m 426 235 l 422 236 l 424 240 l 426 239 z m 806 318 l 807 324 l 810 322 l 811 318 z m 864 853 l 864 858 l 869 858 l 869 853 z m 767 836 l 763 835 l 763 838 l 767 839 z m 767 368 l 767 361 l 761 364 l 763 368 z m 846 749 l 846 754 l 851 754 l 850 747 z m 829 726 l 825 726 l 826 731 l 829 731 z m 617 514 l 611 514 l 614 519 l 618 519 z m 463 236 l 463 231 l 457 232 l 458 236 z m 360 128 l 356 128 l 356 132 l 360 132 z m 789 556 l 786 557 l 788 560 l 789 558 z m 438 211 l 438 214 l 442 214 l 440 210 z m 826 214 l 828 210 l 825 211 l 824 213 z m 826 600 l 825 599 l 824 601 l 826 601 z m 619 600 l 615 599 l 615 603 l 619 601 z m 186 40 l 182 39 l 182 46 l 188 46 z m 701 774 l 697 772 l 697 776 l 701 775 z m 103 83 l 99 82 l 100 88 l 103 86 z m 1000 86 l 1000 83 l 997 86 z m 954 42 l 956 46 l 957 46 l 957 43 z m 810 108 l 810 106 l 807 106 l 807 108 z m 165 65 l 164 63 l 163 64 l 163 65 z m 674 706 l 675 703 l 672 701 l 672 704 z m 846 664 l 846 667 l 849 667 l 849 664 z m 357 422 l 354 425 l 357 426 l 358 425 z m 743 857 l 740 856 l 740 858 l 742 858 z m 443 258 l 443 254 l 439 256 l 440 258 z m 381 406 l 379 404 l 378 407 l 381 407 z m 867 82 l 867 86 l 868 88 l 869 83 z m 293 67 l 294 64 l 293 63 l 290 65 z m 904 -114 l 908 -124 l 915 -128 l 922 -136 l 917 -144 l 906 -137 l 903 -133 l 899 -128 l 892 -121 l 896 -112 z m 922 -53 l 928 -60 l 931 -65 l 933 -71 l 939 -79 l 933 -83 l 926 -74 l 921 -69 l 913 -61 l 917 -53 z m 928 -26 l 933 -29 l 939 -32 l 944 -40 l 939 -44 l 929 -42 l 925 -36 l 922 -31 l 919 -22 z m 922 -185 l 913 -185 l 913 -174 l 922 -172 z m 903 -85 l 894 -83 l 894 -74 l 904 -75 z m 903 -150 l 903 -160 l 893 -161 l 893 -151 z m 919 -104 l 910 -104 l 913 -94 l 921 -94 z m 953 -25 l 951 -17 l 960 -15 l 958 -22 z m 972 -204 l 972 -197 l 982 -197 l 982 -206 z m 960 -222 l 953 -222 l 954 -212 l 961 -212 z m 1001 -222 l 994 -219 l 994 -212 l 1001 -214 z m 960 14 l 956 18 l 957 22 l 961 21 z m 1019 -193 l 1019 -201 l 1013 -201 l 1013 -196 z m 901 -200 l 899 -197 l 900 -193 l 904 -197 z m 975 38 l 978 40 l 982 40 l 981 38 z "},"":{"ha":1057,"x_min":0,"x_max":0,"o":"m 760 486 l 749 467 l 729 457 l 685 453 l 636 450 l 622 457 l 621 471 l 626 490 l 633 508 l 638 524 l 646 542 l 653 556 l 661 572 l 672 607 l 681 625 l 689 640 l 694 657 l 703 672 l 711 690 l 726 721 l 738 739 l 744 757 l 756 771 l 763 786 l 774 801 l 782 817 l 794 831 l 804 838 l 806 825 l 801 810 l 801 792 l 799 772 l 792 756 l 792 736 l 789 719 l 785 701 l 782 683 l 778 647 l 778 629 l 774 611 l 771 594 l 771 575 l 767 557 l 763 540 l 765 522 l 760 503 z m 1115 299 l 1096 286 l 1082 267 l 1075 249 l 1065 232 l 1058 215 l 1040 185 l 1032 168 l 1019 151 l 1008 140 l 999 125 l 988 111 l 976 103 l 961 93 l 943 86 l 918 85 l 894 88 l 881 97 l 869 114 l 858 129 l 856 146 l 850 164 l 846 185 l 846 203 l 843 221 l 840 249 l 842 275 l 840 293 l 836 311 l 836 329 l 839 347 l 839 367 l 842 403 l 842 418 l 839 439 l 842 456 l 846 510 l 847 529 l 850 549 l 849 567 l 861 656 l 865 672 l 867 692 l 867 710 l 869 726 l 875 746 l 878 763 l 878 782 l 879 800 l 882 817 l 885 836 l 888 854 l 894 871 l 893 890 l 897 907 l 901 935 l 900 960 l 889 972 l 875 979 l 857 982 l 843 979 l 819 964 l 799 950 l 788 938 l 776 924 l 751 896 l 731 868 l 718 854 l 701 824 l 690 808 l 679 792 l 674 776 l 665 761 l 653 746 l 646 728 l 638 713 l 629 696 l 624 681 l 613 665 l 607 650 l 596 631 l 592 614 l 583 600 l 578 581 l 568 565 l 556 532 l 544 517 l 539 500 l 531 485 l 525 467 l 506 451 l 486 442 l 468 440 l 449 439 l 429 440 l 413 440 l 354 444 l 329 443 l 311 432 l 301 417 l 301 399 l 307 383 l 322 371 l 350 364 l 369 361 l 389 361 l 404 363 l 424 361 l 442 361 l 458 356 l 461 339 l 450 322 l 433 289 l 422 275 l 393 228 l 382 210 l 374 194 l 349 168 l 325 140 l 301 115 l 283 106 l 272 96 l 254 89 l 238 83 l 210 81 l 185 82 l 164 85 l 150 90 l 136 104 l 119 125 l 97 140 l 78 139 l 61 131 l 49 115 l 47 88 l 58 61 l 71 46 l 83 33 l 100 22 l 124 10 l 171 -1 l 186 -3 l 215 -1 l 244 1 l 278 13 l 313 28 l 328 38 l 340 50 l 361 67 l 383 85 l 392 97 l 404 113 l 418 126 l 429 142 l 440 157 l 454 172 l 461 185 l 469 203 l 482 218 l 494 232 l 503 247 l 511 264 l 519 281 l 538 311 l 546 328 l 557 344 l 575 361 l 596 371 l 615 372 l 633 374 l 654 375 l 693 376 l 707 379 l 726 381 l 744 374 l 754 356 l 754 338 l 754 321 l 754 286 l 756 271 l 753 253 l 754 225 l 758 199 l 760 181 l 765 163 l 768 143 l 775 110 l 781 92 l 789 75 l 797 61 l 811 47 l 821 33 l 833 25 l 850 14 l 882 4 l 910 1 l 935 4 l 954 7 l 971 13 l 983 22 l 1001 32 l 1013 42 l 1025 54 l 1039 68 l 1051 79 l 1075 111 l 1082 124 l 1099 157 l 1111 169 l 1125 201 l 1136 218 l 1143 236 l 1147 261 l 1143 285 l 1132 296 z m 815 629 l 814 625 l 810 618 l 804 621 l 808 628 l 811 631 l 814 632 l 818 636 l 819 644 l 824 649 l 831 647 l 832 640 l 831 636 l 828 635 l 821 633 z m 493 383 l 490 379 l 482 379 l 478 382 l 478 389 l 481 392 l 489 393 l 492 390 z m 856 874 l 853 869 l 844 869 l 842 872 l 843 881 l 846 885 l 854 885 l 856 882 z m 458 396 l 456 399 l 454 407 l 457 410 l 460 411 l 468 411 l 471 408 l 469 400 l 467 397 z m 253 64 l 257 61 l 260 57 l 263 54 l 265 51 l 268 49 l 268 42 l 263 44 l 260 47 l 257 50 l 254 53 l 251 57 l 249 61 l 249 64 z m 517 403 l 514 400 l 510 399 l 500 400 l 499 408 l 501 413 l 507 415 l 515 414 l 517 411 z m 810 456 l 813 453 l 813 444 l 808 442 l 800 443 l 799 450 l 801 453 z m 554 443 l 551 442 l 543 442 l 540 444 l 542 451 l 546 456 l 554 453 z m 532 393 l 535 390 l 533 383 l 525 382 l 522 389 l 524 393 z m 878 939 l 875 936 l 867 936 l 864 939 l 864 949 l 872 950 l 876 947 z m 789 424 l 788 421 l 778 421 l 776 425 l 776 433 l 788 435 l 790 432 z m 789 851 l 779 851 l 778 854 l 778 863 l 782 865 l 789 864 l 790 860 z m 810 414 l 811 404 l 808 401 l 801 401 l 800 410 l 801 413 z m 813 489 l 804 488 l 800 494 l 801 497 l 808 499 l 811 497 z m 804 874 l 801 876 l 801 885 l 810 888 l 813 885 l 813 876 z m 706 419 l 699 419 l 696 422 l 694 425 l 697 432 l 704 432 l 707 428 z m 514 357 l 504 357 l 499 360 l 500 369 l 510 369 l 514 367 z m 793 517 l 793 508 l 792 507 l 785 507 l 782 508 l 783 517 l 785 518 z m 533 431 l 533 422 l 532 419 l 524 418 l 522 421 l 524 429 l 525 431 z m 789 383 l 779 383 l 778 386 l 778 393 l 786 393 l 789 390 z m 618 553 l 610 553 l 608 560 l 610 563 l 615 564 l 618 561 z m 831 861 l 833 858 l 833 850 l 825 849 l 822 851 l 822 858 z m 621 433 l 621 425 l 618 422 l 611 424 l 611 431 l 614 433 z m 438 382 l 439 389 l 446 386 l 444 381 z m 833 940 l 831 938 l 822 938 l 821 944 l 824 949 l 831 949 z m 767 400 l 758 401 l 757 410 l 760 411 l 767 411 l 769 408 z m 572 390 l 575 388 l 574 382 l 565 382 l 565 389 z m 790 904 l 792 896 l 790 893 l 788 890 l 779 893 l 779 901 l 783 904 z m 851 833 l 843 832 l 843 840 l 851 842 z m 572 476 l 575 468 l 572 465 l 565 465 l 563 468 l 564 476 z m 749 426 l 746 424 l 738 424 l 735 432 l 738 433 l 744 433 l 747 432 z m 782 478 l 790 478 l 790 468 l 789 465 l 782 467 l 778 469 z m 769 874 l 763 874 l 760 881 l 767 882 l 769 881 z m 824 897 l 822 906 l 831 907 l 831 899 z m 404 167 l 397 167 l 399 174 l 406 174 z m 661 425 l 658 422 l 650 424 l 651 432 l 654 433 l 661 431 z m 767 443 l 758 443 l 758 450 l 767 450 z m 467 369 l 467 361 l 464 360 l 457 361 l 458 369 z m 575 508 l 567 508 l 568 517 l 575 515 z m 810 358 l 803 358 l 803 368 l 810 368 z m 846 788 l 843 794 l 844 797 l 851 797 l 853 789 z m 124 61 l 117 63 l 119 69 l 126 67 z m 813 535 l 806 533 l 806 540 l 813 540 z m 597 404 l 594 401 l 586 401 l 585 408 l 586 411 l 594 413 z m 589 489 l 592 497 l 599 494 l 599 488 z m 639 413 l 640 406 l 632 403 l 632 411 z m 547 496 l 554 494 l 554 486 l 546 489 z m 597 442 l 588 442 l 586 449 l 597 450 z m 811 274 l 803 274 l 804 282 l 811 281 z m 872 897 l 865 897 l 868 904 l 875 903 z m 490 294 l 483 296 l 485 303 l 492 301 z m 672 404 l 672 410 l 681 410 l 679 403 z m 789 174 l 789 167 l 783 167 l 783 172 z m 551 361 l 544 361 l 546 369 l 551 371 z m 811 240 l 813 232 l 804 231 l 803 239 z m 574 424 l 567 424 l 567 432 l 569 435 l 576 432 z m 599 574 l 592 574 l 589 581 l 597 581 z m 819 467 l 818 472 l 825 474 l 825 468 z m 829 510 l 824 511 l 824 518 l 829 517 z m 856 958 l 850 957 l 847 964 l 854 964 z m 426 192 l 421 192 l 421 197 l 428 197 z m 831 819 l 831 813 l 826 813 l 825 819 z m 724 790 l 718 790 l 718 797 l 724 796 z m 460 275 l 460 282 l 467 282 l 468 275 z m 846 915 l 846 922 l 853 925 l 853 918 z m 467 322 l 467 317 l 461 317 l 461 322 z m 829 685 l 829 679 l 824 678 l 824 683 z m 811 668 l 810 663 l 804 664 l 806 669 z m 544 403 l 543 410 l 544 411 l 553 411 l 553 403 z m 317 88 l 315 81 l 311 81 l 311 88 z m 489 429 l 489 424 l 482 424 l 482 429 z m 790 210 l 783 210 l 783 215 l 789 215 z m 851 67 l 851 63 l 846 64 l 847 68 z m 806 704 l 806 710 l 811 711 l 811 704 z m 828 426 l 824 426 l 824 431 l 828 431 z m 783 297 l 783 303 l 789 303 l 789 297 z m 811 146 l 806 146 l 806 153 l 811 153 z m 529 350 l 529 343 l 524 343 l 524 349 z m 810 189 l 804 188 l 804 194 l 810 194 z m 724 403 l 718 403 l 718 408 l 724 408 z m 789 342 l 782 342 l 782 347 l 789 347 z m 425 410 l 425 403 l 419 403 l 419 408 z m 382 149 l 376 150 l 378 154 l 383 154 z m 489 340 l 482 339 l 483 346 l 489 347 z m 504 318 l 501 324 l 510 328 l 513 321 l 511 318 z m 638 664 l 633 664 l 635 668 l 638 668 z m 657 636 l 651 640 l 654 644 l 658 643 z m 825 82 l 826 90 l 833 90 l 832 81 z m 149 46 l 147 39 l 142 42 l 142 47 z m 224 39 l 222 46 l 231 46 l 229 40 z m 658 689 l 660 683 l 654 683 l 653 689 z m 828 553 l 822 554 l 825 558 l 831 558 z m 825 126 l 825 132 l 831 132 l 831 126 z m 808 918 l 803 918 l 803 925 l 810 922 z m 811 576 l 804 576 l 804 582 l 810 582 z m 829 769 l 825 771 l 826 774 l 829 774 z m 100 46 l 106 44 l 103 40 l 99 40 z m 868 42 l 869 47 l 872 46 l 872 40 z m 914 40 l 911 42 l 911 46 l 915 46 z m 788 253 l 783 254 l 785 258 l 789 258 z m 426 235 l 422 236 l 424 240 l 426 239 z m 806 318 l 807 324 l 810 322 l 811 318 z m 864 853 l 864 858 l 869 858 l 869 853 z m 767 836 l 763 835 l 763 838 l 767 839 z m 767 368 l 767 361 l 761 364 l 763 368 z m 846 749 l 846 754 l 851 754 l 850 747 z m 829 726 l 825 726 l 826 731 l 829 731 z m 617 514 l 611 514 l 614 519 l 618 519 z m 463 236 l 463 231 l 457 232 l 458 236 z m 360 128 l 356 128 l 356 132 l 360 132 z m 789 556 l 786 557 l 788 560 l 789 558 z m 438 211 l 438 214 l 442 214 l 440 210 z m 826 214 l 828 210 l 825 211 l 824 213 z m 826 600 l 825 599 l 824 601 l 826 601 z m 619 600 l 615 599 l 615 603 l 619 601 z m 186 40 l 182 39 l 182 46 l 188 46 z m 701 774 l 697 772 l 697 776 l 701 775 z m 103 83 l 99 82 l 100 88 l 103 86 z m 1000 86 l 1000 83 l 997 86 z m 954 42 l 956 46 l 957 46 l 957 43 z m 810 108 l 810 106 l 807 106 l 807 108 z m 165 65 l 164 63 l 163 64 l 163 65 z m 674 706 l 675 703 l 672 701 l 672 704 z m 846 664 l 846 667 l 849 667 l 849 664 z m 357 422 l 354 425 l 357 426 l 358 425 z m 743 857 l 740 856 l 740 858 l 742 858 z m 443 258 l 443 254 l 439 256 l 440 258 z m 381 406 l 379 404 l 378 407 l 381 407 z m 867 82 l 867 86 l 868 88 l 869 83 z m 293 67 l 294 64 l 293 63 l 290 65 z m 911 1240 l 883 1243 l 858 1239 l 842 1235 l 822 1225 l 806 1214 l 794 1200 l 786 1185 l 775 1169 l 768 1143 l 765 1115 l 774 1097 l 779 1081 l 786 1065 l 801 1054 l 817 1046 l 831 1040 l 860 1039 l 888 1042 l 908 1047 l 921 1056 l 936 1067 l 950 1079 l 961 1094 l 968 1111 l 974 1139 l 978 1165 l 972 1183 l 964 1197 l 956 1214 l 942 1226 l 926 1235 z m 853 1179 l 879 1182 l 906 1178 l 914 1165 l 917 1140 l 908 1114 l 890 1100 l 865 1096 l 840 1101 l 831 1111 l 831 1138 l 836 1164 z m 946 1147 l 938 1153 l 932 1157 l 928 1161 l 924 1167 l 918 1176 l 926 1181 l 933 1171 l 936 1167 l 940 1163 l 949 1156 z m 803 1132 l 794 1129 l 793 1138 l 801 1140 z m 886 1219 l 888 1210 l 878 1210 l 876 1218 z m 821 1158 l 821 1150 l 813 1150 l 814 1158 z m 940 1117 l 947 1115 l 946 1108 l 939 1110 z m 867 1201 l 865 1194 l 857 1193 l 858 1201 z m 928 1133 l 928 1128 l 921 1129 l 924 1135 z m 863 1067 l 856 1071 l 858 1076 l 865 1074 z m 926 1219 l 925 1211 l 918 1214 l 919 1221 z m 794 1169 l 797 1176 l 804 1175 l 803 1168 z m 835 1086 l 833 1094 l 840 1094 l 843 1088 z m 819 1192 l 814 1194 l 817 1199 l 821 1196 z m 949 1194 l 940 1193 l 940 1200 l 947 1201 z m 819 1107 l 813 1108 l 815 1114 l 821 1114 z m 800 1092 l 794 1092 l 794 1097 l 800 1096 z m 906 1193 l 900 1196 l 903 1201 l 908 1199 z "},"":{"ha":1057,"x_min":0,"x_max":0,"o":"m 760 486 l 749 467 l 729 457 l 685 453 l 636 450 l 622 457 l 621 471 l 626 490 l 633 508 l 638 524 l 646 542 l 653 556 l 661 572 l 672 607 l 681 625 l 689 640 l 694 657 l 703 672 l 711 690 l 726 721 l 738 739 l 744 757 l 756 771 l 763 786 l 774 801 l 782 817 l 794 831 l 804 838 l 806 825 l 801 810 l 801 792 l 799 772 l 792 756 l 792 736 l 789 719 l 785 701 l 782 683 l 778 647 l 778 629 l 774 611 l 771 594 l 771 575 l 767 557 l 763 540 l 765 522 l 760 503 z m 1115 299 l 1096 286 l 1082 267 l 1075 249 l 1065 232 l 1058 215 l 1040 185 l 1032 168 l 1019 151 l 1008 140 l 999 125 l 988 111 l 976 103 l 961 93 l 943 86 l 918 85 l 894 88 l 881 97 l 869 114 l 858 129 l 856 146 l 850 164 l 846 185 l 846 203 l 843 221 l 840 249 l 842 275 l 840 293 l 836 311 l 836 329 l 839 347 l 839 367 l 842 403 l 842 418 l 839 439 l 842 456 l 846 510 l 847 529 l 850 549 l 849 567 l 861 656 l 865 672 l 867 692 l 867 710 l 869 726 l 875 746 l 878 763 l 878 782 l 879 800 l 882 817 l 885 836 l 888 854 l 894 871 l 893 890 l 897 907 l 901 935 l 900 960 l 889 972 l 875 979 l 857 982 l 843 979 l 819 964 l 799 950 l 788 938 l 776 924 l 751 896 l 731 868 l 718 854 l 701 824 l 690 808 l 679 792 l 674 776 l 665 761 l 653 746 l 646 728 l 638 713 l 629 696 l 624 681 l 613 665 l 607 650 l 596 631 l 592 614 l 583 600 l 578 581 l 568 565 l 556 532 l 544 517 l 539 500 l 531 485 l 525 467 l 506 451 l 486 442 l 468 440 l 449 439 l 429 440 l 413 440 l 354 444 l 329 443 l 311 432 l 301 417 l 301 399 l 307 383 l 322 371 l 350 364 l 369 361 l 389 361 l 404 363 l 424 361 l 442 361 l 458 356 l 461 339 l 450 322 l 433 289 l 422 275 l 393 228 l 382 210 l 374 194 l 349 168 l 325 140 l 301 115 l 283 106 l 272 96 l 254 89 l 238 83 l 210 81 l 185 82 l 164 85 l 150 90 l 136 104 l 119 125 l 97 140 l 78 139 l 61 131 l 49 115 l 47 88 l 58 61 l 71 46 l 83 33 l 100 22 l 124 10 l 171 -1 l 186 -3 l 215 -1 l 244 1 l 278 13 l 313 28 l 328 38 l 340 50 l 361 67 l 383 85 l 392 97 l 404 113 l 418 126 l 429 142 l 440 157 l 454 172 l 461 185 l 469 203 l 482 218 l 494 232 l 503 247 l 511 264 l 519 281 l 538 311 l 546 328 l 557 344 l 575 361 l 596 371 l 615 372 l 633 374 l 654 375 l 693 376 l 707 379 l 726 381 l 744 374 l 754 356 l 754 338 l 754 321 l 754 286 l 756 271 l 753 253 l 754 225 l 758 199 l 760 181 l 765 163 l 768 143 l 775 110 l 781 92 l 789 75 l 797 61 l 811 47 l 821 33 l 833 25 l 850 14 l 882 4 l 910 1 l 935 4 l 954 7 l 971 13 l 983 22 l 1001 32 l 1013 42 l 1025 54 l 1039 68 l 1051 79 l 1075 111 l 1082 124 l 1099 157 l 1111 169 l 1125 201 l 1136 218 l 1143 236 l 1147 261 l 1143 285 l 1132 296 z m 815 629 l 814 625 l 810 618 l 804 621 l 808 628 l 811 631 l 814 632 l 818 636 l 819 644 l 824 649 l 831 647 l 832 640 l 831 636 l 828 635 l 821 633 z m 493 383 l 490 379 l 482 379 l 478 382 l 478 389 l 481 392 l 489 393 l 492 390 z m 856 874 l 853 869 l 844 869 l 842 872 l 843 881 l 846 885 l 854 885 l 856 882 z m 458 396 l 456 399 l 454 407 l 457 410 l 460 411 l 468 411 l 471 408 l 469 400 l 467 397 z m 253 64 l 257 61 l 260 57 l 263 54 l 265 51 l 268 49 l 268 42 l 263 44 l 260 47 l 257 50 l 254 53 l 251 57 l 249 61 l 249 64 z m 517 403 l 514 400 l 510 399 l 500 400 l 499 408 l 501 413 l 507 415 l 515 414 l 517 411 z m 810 456 l 813 453 l 813 444 l 808 442 l 800 443 l 799 450 l 801 453 z m 554 443 l 551 442 l 543 442 l 540 444 l 542 451 l 546 456 l 554 453 z m 532 393 l 535 390 l 533 383 l 525 382 l 522 389 l 524 393 z m 878 939 l 875 936 l 867 936 l 864 939 l 864 949 l 872 950 l 876 947 z m 789 424 l 788 421 l 778 421 l 776 425 l 776 433 l 788 435 l 790 432 z m 789 851 l 779 851 l 778 854 l 778 863 l 782 865 l 789 864 l 790 860 z m 810 414 l 811 404 l 808 401 l 801 401 l 800 410 l 801 413 z m 813 489 l 804 488 l 800 494 l 801 497 l 808 499 l 811 497 z m 804 874 l 801 876 l 801 885 l 810 888 l 813 885 l 813 876 z m 706 419 l 699 419 l 696 422 l 694 425 l 697 432 l 704 432 l 707 428 z m 514 357 l 504 357 l 499 360 l 500 369 l 510 369 l 514 367 z m 793 517 l 793 508 l 792 507 l 785 507 l 782 508 l 783 517 l 785 518 z m 533 431 l 533 422 l 532 419 l 524 418 l 522 421 l 524 429 l 525 431 z m 789 383 l 779 383 l 778 386 l 778 393 l 786 393 l 789 390 z m 618 553 l 610 553 l 608 560 l 610 563 l 615 564 l 618 561 z m 831 861 l 833 858 l 833 850 l 825 849 l 822 851 l 822 858 z m 621 433 l 621 425 l 618 422 l 611 424 l 611 431 l 614 433 z m 438 382 l 439 389 l 446 386 l 444 381 z m 833 940 l 831 938 l 822 938 l 821 944 l 824 949 l 831 949 z m 767 400 l 758 401 l 757 410 l 760 411 l 767 411 l 769 408 z m 572 390 l 575 388 l 574 382 l 565 382 l 565 389 z m 790 904 l 792 896 l 790 893 l 788 890 l 779 893 l 779 901 l 783 904 z m 851 833 l 843 832 l 843 840 l 851 842 z m 572 476 l 575 468 l 572 465 l 565 465 l 563 468 l 564 476 z m 749 426 l 746 424 l 738 424 l 735 432 l 738 433 l 744 433 l 747 432 z m 782 478 l 790 478 l 790 468 l 789 465 l 782 467 l 778 469 z m 769 874 l 763 874 l 760 881 l 767 882 l 769 881 z m 824 897 l 822 906 l 831 907 l 831 899 z m 404 167 l 397 167 l 399 174 l 406 174 z m 661 425 l 658 422 l 650 424 l 651 432 l 654 433 l 661 431 z m 767 443 l 758 443 l 758 450 l 767 450 z m 467 369 l 467 361 l 464 360 l 457 361 l 458 369 z m 575 508 l 567 508 l 568 517 l 575 515 z m 810 358 l 803 358 l 803 368 l 810 368 z m 846 788 l 843 794 l 844 797 l 851 797 l 853 789 z m 124 61 l 117 63 l 119 69 l 126 67 z m 813 535 l 806 533 l 806 540 l 813 540 z m 597 404 l 594 401 l 586 401 l 585 408 l 586 411 l 594 413 z m 589 489 l 592 497 l 599 494 l 599 488 z m 639 413 l 640 406 l 632 403 l 632 411 z m 547 496 l 554 494 l 554 486 l 546 489 z m 597 442 l 588 442 l 586 449 l 597 450 z m 811 274 l 803 274 l 804 282 l 811 281 z m 872 897 l 865 897 l 868 904 l 875 903 z m 490 294 l 483 296 l 485 303 l 492 301 z m 672 404 l 672 410 l 681 410 l 679 403 z m 789 174 l 789 167 l 783 167 l 783 172 z m 551 361 l 544 361 l 546 369 l 551 371 z m 811 240 l 813 232 l 804 231 l 803 239 z m 574 424 l 567 424 l 567 432 l 569 435 l 576 432 z m 599 574 l 592 574 l 589 581 l 597 581 z m 819 467 l 818 472 l 825 474 l 825 468 z m 829 510 l 824 511 l 824 518 l 829 517 z m 856 958 l 850 957 l 847 964 l 854 964 z m 426 192 l 421 192 l 421 197 l 428 197 z m 831 819 l 831 813 l 826 813 l 825 819 z m 724 790 l 718 790 l 718 797 l 724 796 z m 460 275 l 460 282 l 467 282 l 468 275 z m 846 915 l 846 922 l 853 925 l 853 918 z m 467 322 l 467 317 l 461 317 l 461 322 z m 829 685 l 829 679 l 824 678 l 824 683 z m 811 668 l 810 663 l 804 664 l 806 669 z m 544 403 l 543 410 l 544 411 l 553 411 l 553 403 z m 317 88 l 315 81 l 311 81 l 311 88 z m 489 429 l 489 424 l 482 424 l 482 429 z m 790 210 l 783 210 l 783 215 l 789 215 z m 851 67 l 851 63 l 846 64 l 847 68 z m 806 704 l 806 710 l 811 711 l 811 704 z m 828 426 l 824 426 l 824 431 l 828 431 z m 783 297 l 783 303 l 789 303 l 789 297 z m 811 146 l 806 146 l 806 153 l 811 153 z m 529 350 l 529 343 l 524 343 l 524 349 z m 810 189 l 804 188 l 804 194 l 810 194 z m 724 403 l 718 403 l 718 408 l 724 408 z m 789 342 l 782 342 l 782 347 l 789 347 z m 425 410 l 425 403 l 419 403 l 419 408 z m 382 149 l 376 150 l 378 154 l 383 154 z m 489 340 l 482 339 l 483 346 l 489 347 z m 504 318 l 501 324 l 510 328 l 513 321 l 511 318 z m 638 664 l 633 664 l 635 668 l 638 668 z m 657 636 l 651 640 l 654 644 l 658 643 z m 825 82 l 826 90 l 833 90 l 832 81 z m 149 46 l 147 39 l 142 42 l 142 47 z m 224 39 l 222 46 l 231 46 l 229 40 z m 658 689 l 660 683 l 654 683 l 653 689 z m 828 553 l 822 554 l 825 558 l 831 558 z m 825 126 l 825 132 l 831 132 l 831 126 z m 808 918 l 803 918 l 803 925 l 810 922 z m 811 576 l 804 576 l 804 582 l 810 582 z m 829 769 l 825 771 l 826 774 l 829 774 z m 100 46 l 106 44 l 103 40 l 99 40 z m 868 42 l 869 47 l 872 46 l 872 40 z m 914 40 l 911 42 l 911 46 l 915 46 z m 788 253 l 783 254 l 785 258 l 789 258 z m 426 235 l 422 236 l 424 240 l 426 239 z m 806 318 l 807 324 l 810 322 l 811 318 z m 864 853 l 864 858 l 869 858 l 869 853 z m 767 836 l 763 835 l 763 838 l 767 839 z m 767 368 l 767 361 l 761 364 l 763 368 z m 846 749 l 846 754 l 851 754 l 850 747 z m 829 726 l 825 726 l 826 731 l 829 731 z m 617 514 l 611 514 l 614 519 l 618 519 z m 463 236 l 463 231 l 457 232 l 458 236 z m 360 128 l 356 128 l 356 132 l 360 132 z m 789 556 l 786 557 l 788 560 l 789 558 z m 438 211 l 438 214 l 442 214 l 440 210 z m 826 214 l 828 210 l 825 211 l 824 213 z m 826 600 l 825 599 l 824 601 l 826 601 z m 619 600 l 615 599 l 615 603 l 619 601 z m 186 40 l 182 39 l 182 46 l 188 46 z m 701 774 l 697 772 l 697 776 l 701 775 z m 103 83 l 99 82 l 100 88 l 103 86 z m 1000 86 l 1000 83 l 997 86 z m 954 42 l 956 46 l 957 46 l 957 43 z m 810 108 l 810 106 l 807 106 l 807 108 z m 165 65 l 164 63 l 163 64 l 163 65 z m 674 706 l 675 703 l 672 701 l 672 704 z m 846 664 l 846 667 l 849 667 l 849 664 z m 357 422 l 354 425 l 357 426 l 358 425 z m 743 857 l 740 856 l 740 858 l 742 858 z m 443 258 l 443 254 l 439 256 l 440 258 z m 381 406 l 379 404 l 378 407 l 381 407 z m 867 82 l 867 86 l 868 88 l 869 83 z m 293 67 l 294 64 l 293 63 l 290 65 z m 993 1183 l 972 1168 l 953 1147 l 929 1143 l 906 1147 l 893 1157 l 876 1165 l 861 1175 l 843 1183 l 817 1188 l 789 1186 l 774 1182 l 760 1174 l 742 1164 l 731 1151 l 719 1129 l 718 1103 l 725 1089 l 738 1081 l 754 1081 l 772 1100 l 789 1121 l 813 1122 l 835 1118 l 851 1108 l 868 1097 l 883 1089 l 896 1081 l 922 1076 l 951 1078 l 983 1090 l 997 1101 l 1010 1114 l 1019 1140 l 1024 1168 l 1010 1179 z m 878 1142 l 889 1138 l 890 1131 l 881 1126 l 874 1136 l 864 1143 l 857 1146 l 857 1157 l 867 1156 l 869 1149 z m 946 1103 l 944 1114 l 956 1115 l 956 1106 z m 768 1149 l 771 1158 l 781 1158 l 779 1147 z m 967 1126 l 965 1135 l 974 1136 l 975 1128 z m 932 1126 l 924 1126 l 924 1133 l 931 1135 z m 844 1129 l 838 1126 l 836 1135 l 844 1136 z m 821 1156 l 819 1146 l 811 1147 l 811 1156 z m 908 1104 l 900 1106 l 901 1114 l 910 1114 z m 756 1135 l 756 1128 l 749 1126 l 749 1133 z m 799 1132 l 793 1133 l 796 1138 l 800 1136 z "},"":{"ha":1383,"x_min":0,"x_max":0,"o":"m 604 390 l 592 397 l 588 411 l 594 428 l 608 451 l 619 474 l 624 490 l 629 506 l 647 542 l 654 557 l 665 592 l 674 610 l 683 625 l 688 640 l 699 658 l 706 675 l 715 692 l 729 724 l 736 739 l 744 756 l 757 771 l 774 804 l 783 818 l 796 833 l 807 836 l 808 828 l 803 811 l 799 790 l 790 718 l 790 700 l 786 683 l 778 611 l 774 593 l 771 574 l 771 557 l 772 539 l 768 521 l 765 504 l 767 486 l 764 468 l 764 449 l 756 428 l 733 413 l 710 406 l 692 403 l 674 399 l 656 394 l 640 393 l 621 393 z m 1090 -29 l 1119 -25 l 1144 -24 l 1163 -22 l 1179 -17 l 1207 -11 l 1242 1 l 1282 21 l 1300 32 l 1315 39 l 1343 64 l 1371 86 l 1383 100 l 1396 115 l 1403 129 l 1413 144 l 1426 160 l 1433 175 l 1446 190 l 1453 204 l 1461 221 l 1471 239 l 1476 263 l 1471 285 l 1458 296 l 1443 300 l 1424 289 l 1401 251 l 1390 236 l 1383 221 l 1375 206 l 1360 190 l 1344 168 l 1326 147 l 1317 135 l 1301 122 l 1290 113 l 1274 103 l 1257 94 l 1244 86 l 1228 78 l 1210 71 l 1193 67 l 1176 61 l 1157 58 l 1140 56 l 1088 51 l 1068 50 l 1050 53 l 1018 58 l 999 64 l 983 74 l 967 79 l 950 89 l 910 124 l 893 153 l 883 169 l 879 186 l 871 204 l 869 221 l 864 239 l 863 265 l 867 293 l 865 310 l 871 346 l 882 371 l 889 396 l 899 411 l 910 426 l 918 439 l 931 454 l 947 465 l 961 475 l 972 485 l 988 496 l 1007 503 l 1021 511 l 1039 517 l 1060 521 l 1074 525 l 1129 533 l 1154 539 l 1175 550 l 1181 564 l 1178 579 l 1169 596 l 1121 614 l 1106 624 l 1079 651 l 1068 667 l 1064 683 l 1057 700 l 1050 717 l 1047 735 l 1047 782 l 1051 810 l 1061 825 l 1068 843 l 1081 857 l 1092 869 l 1106 881 l 1118 889 l 1135 897 l 1182 903 l 1210 903 l 1225 897 l 1243 893 l 1257 883 l 1272 871 l 1283 856 l 1293 824 l 1294 804 l 1293 786 l 1289 769 l 1285 743 l 1288 721 l 1301 708 l 1315 703 l 1332 704 l 1351 724 l 1364 746 l 1375 761 l 1385 776 l 1392 792 l 1403 808 l 1424 839 l 1435 854 l 1446 868 l 1461 889 l 1469 910 l 1461 925 l 1450 939 l 1436 946 l 1413 935 l 1394 919 l 1385 903 l 1369 882 l 1354 867 l 1347 876 l 1342 894 l 1329 911 l 1318 928 l 1310 940 l 1278 963 l 1263 971 l 1243 976 l 1228 982 l 1201 983 l 1179 985 l 1151 982 l 1136 979 l 1117 978 l 1082 965 l 1051 949 l 1035 939 l 1019 925 l 1008 911 l 981 868 l 961 818 l 957 790 l 953 763 l 953 743 l 956 726 l 960 708 l 964 692 l 969 675 l 978 658 l 985 644 l 1006 614 l 1018 600 l 1022 589 l 1010 576 l 975 565 l 943 549 l 925 540 l 914 533 l 899 521 l 883 508 l 874 494 l 863 490 l 857 500 l 854 553 l 860 590 l 863 625 l 861 643 l 867 663 l 868 678 l 867 694 l 872 714 l 871 751 l 876 768 l 879 783 l 879 803 l 886 819 l 889 874 l 894 890 l 897 910 l 900 933 l 899 960 l 889 972 l 875 981 l 857 983 l 842 979 l 821 967 l 775 925 l 764 911 l 751 896 l 731 869 l 718 854 l 710 839 l 703 824 l 694 810 l 681 793 l 672 779 l 664 761 l 657 746 l 646 729 l 638 715 l 629 699 l 624 683 l 613 667 l 608 649 l 601 632 l 590 617 l 585 601 l 572 569 l 560 551 l 553 536 l 546 521 l 539 503 l 532 486 l 522 471 l 513 447 l 506 431 l 496 410 l 479 396 l 456 388 l 438 389 l 351 397 l 326 392 l 317 376 l 317 358 l 324 342 l 344 326 l 368 318 l 383 315 l 403 314 l 419 310 l 432 301 l 431 285 l 421 267 l 411 253 l 399 238 l 378 207 l 369 193 l 358 178 l 347 163 l 335 151 l 310 125 l 296 114 l 283 106 l 268 96 l 254 90 l 236 85 l 210 82 l 186 81 l 167 86 l 149 92 l 117 125 l 94 140 l 76 139 l 64 129 l 50 114 l 51 88 l 60 63 l 74 47 l 82 33 l 101 24 l 117 14 l 136 7 l 153 3 l 171 0 l 190 -3 l 218 0 l 244 0 l 260 6 l 278 10 l 293 17 l 307 25 l 322 35 l 339 44 l 350 57 l 367 68 l 379 79 l 392 94 l 404 107 l 417 122 l 425 136 l 439 150 l 447 164 l 457 178 l 468 194 l 476 208 l 488 222 l 497 238 l 508 254 l 518 269 l 524 285 l 543 301 l 564 308 l 583 308 l 603 310 l 631 315 l 657 317 l 674 318 l 692 324 l 711 328 l 728 329 l 744 333 l 764 331 l 771 315 l 771 296 l 774 281 l 771 253 l 774 228 l 782 189 l 783 171 l 796 139 l 811 106 l 821 89 l 831 76 l 842 63 l 867 36 l 882 26 l 897 17 l 915 7 l 932 -3 l 946 -8 l 967 -12 l 982 -18 l 1015 -25 l 1056 -29 l 1071 -28 z m 560 486 l 563 488 l 564 483 z m 817 146 l 810 154 l 815 163 l 825 157 l 822 147 z m 822 263 l 818 268 l 810 279 l 819 288 l 826 276 l 829 272 l 838 264 l 839 260 l 838 254 l 829 244 l 825 239 l 821 232 l 817 226 l 813 222 l 808 217 l 797 208 l 790 218 l 801 225 l 806 231 l 810 238 l 813 243 l 817 249 l 822 256 z m 1103 -4 l 1096 -8 l 1085 -1 l 1079 4 l 1074 10 l 1069 14 l 1063 24 l 1069 29 l 1078 22 l 1083 17 l 1089 13 l 1094 8 l 1103 3 z m 926 85 l 915 72 l 911 67 l 901 61 l 893 68 l 903 76 l 907 81 l 913 86 l 919 93 l 925 90 z m 1035 875 l 1040 869 l 1044 865 l 1049 860 l 1049 849 l 1039 854 l 1035 860 l 1031 864 l 1025 875 z m 904 106 l 900 104 l 893 111 l 889 117 l 881 121 l 872 126 l 875 133 l 885 129 l 892 125 l 896 119 l 900 114 z m 806 933 l 811 929 l 821 919 l 817 908 l 807 914 l 804 922 l 800 928 l 799 936 z m 1281 65 l 1278 68 l 1282 75 l 1292 81 l 1297 85 l 1304 85 l 1300 79 l 1297 74 l 1293 69 l 1289 65 z m 161 36 l 154 31 l 150 26 l 144 24 l 138 22 l 142 31 l 146 36 l 150 42 l 160 47 z m 1256 38 l 1251 32 l 1247 28 l 1239 25 l 1236 28 l 1242 35 l 1246 39 l 1250 44 l 1256 49 l 1258 47 z m 969 43 l 957 43 l 958 53 l 969 54 z m 1206 26 l 1210 22 l 1210 14 l 1201 17 l 1194 19 l 1194 29 z m 840 293 l 831 294 l 831 306 l 840 304 z m 801 338 l 788 339 l 788 350 l 801 350 z m 461 335 l 451 335 l 450 340 l 450 350 l 460 346 z m 788 507 l 788 517 l 800 518 l 800 507 z m 861 104 l 850 106 l 851 115 l 861 115 z m 767 879 l 776 879 l 779 869 l 769 869 z m 821 318 l 811 318 l 810 328 l 819 328 z m 756 847 l 747 850 l 747 858 l 757 857 z m 842 124 l 833 124 l 833 135 l 842 135 z m 801 422 l 792 422 l 788 433 l 800 433 z m 946 31 l 946 21 l 938 21 l 938 31 z m 792 381 l 792 392 l 803 390 l 801 381 z m 524 314 l 514 314 l 513 325 l 524 325 z m 851 149 l 851 158 l 861 156 l 860 146 z m 582 379 l 572 382 l 572 392 l 582 389 z m 799 293 l 790 294 l 790 304 l 800 303 z m 481 365 l 481 357 l 469 354 l 469 364 z m 1096 553 l 1088 551 l 1088 560 l 1096 561 z m 1129 -1 l 1131 7 l 1138 6 l 1136 -3 z m 839 379 l 829 379 l 831 389 l 840 388 z m 140 60 l 132 58 l 129 67 l 139 67 z m 89 58 l 88 65 l 96 68 l 97 60 z m 883 82 l 872 83 l 874 92 l 883 92 z m 799 847 l 790 849 l 788 858 l 799 857 z m 840 464 l 832 464 l 831 474 l 840 475 z m 1085 594 l 1086 603 l 1096 601 l 1094 592 z m 776 360 l 767 363 l 769 371 l 778 369 z m 415 340 l 408 339 l 407 349 l 415 349 z m 981 700 l 981 708 l 992 708 l 990 700 z m 567 358 l 556 357 l 554 368 l 564 367 z m 504 349 l 503 339 l 492 340 l 493 350 z m 1011 678 l 1003 679 l 1004 688 l 1013 686 z m 1031 793 l 1031 785 l 1022 786 l 1024 794 z m 819 447 l 811 449 l 813 456 l 821 454 z m 431 317 l 429 325 l 438 328 l 439 319 z m 501 378 l 492 379 l 493 388 l 503 388 z m 1053 590 l 1044 592 l 1046 600 l 1054 599 z m 856 403 l 857 413 l 865 411 l 864 403 z m 585 546 l 578 546 l 576 553 l 585 553 z m 840 340 l 833 340 l 833 350 l 842 349 z m 919 42 l 918 51 l 928 51 l 929 43 z m 1328 829 l 1321 831 l 1322 839 l 1329 838 z m 1013 647 l 1014 639 l 1006 638 l 1004 646 z m 842 169 l 833 168 l 832 176 l 840 178 z m 438 239 l 438 231 l 431 232 l 431 240 z m 1053 8 l 1054 0 l 1046 -1 l 1044 7 z m 1053 551 l 1044 551 l 1046 558 l 1054 558 z m 818 189 l 810 189 l 810 197 l 818 197 z m 1031 657 l 1024 656 l 1024 664 l 1031 665 z m 1342 806 l 1342 814 l 1350 814 l 1350 806 z m 835 892 l 835 900 l 842 901 l 842 893 z m 821 838 l 819 829 l 813 832 l 813 839 z m 833 807 l 833 815 l 840 815 l 842 807 z m 864 878 l 861 868 l 853 869 l 854 878 z m 851 361 l 850 368 l 857 369 l 858 363 z m 118 38 l 111 42 l 113 49 l 119 46 z m 818 488 l 810 488 l 808 497 l 818 496 z m 690 358 l 682 360 l 683 368 l 693 367 z m 860 838 l 861 831 l 853 829 l 851 836 z m 1363 832 l 1364 839 l 1371 839 l 1369 832 z m 1158 28 l 1158 21 l 1151 19 l 1151 26 z m 800 897 l 797 890 l 790 892 l 793 899 z m 546 379 l 538 379 l 536 388 l 546 388 z m 1043 636 l 1043 643 l 1051 643 l 1051 636 z m 478 315 l 469 315 l 469 324 l 478 324 z m 1350 854 l 1350 847 l 1343 849 l 1343 857 z m 1013 849 l 1004 847 l 1003 856 l 1011 857 z m 599 529 l 600 536 l 607 536 l 606 529 z m 836 935 l 835 942 l 842 944 l 843 938 z m 801 174 l 799 168 l 794 171 l 796 176 z m 1010 718 l 1003 719 l 1004 729 l 1013 728 z m 1093 939 l 1086 939 l 1086 944 l 1093 943 z m 992 746 l 982 744 l 982 751 l 990 751 z m 1172 936 l 1172 942 l 1181 942 l 1181 936 z m 583 507 l 576 508 l 578 517 l 585 514 z m 863 446 l 854 449 l 856 454 l 863 454 z m 394 358 l 388 360 l 388 365 l 394 365 z m 500 304 l 501 296 l 492 296 l 492 303 z m 546 432 l 546 424 l 538 424 l 539 432 z m 1203 957 l 1196 957 l 1196 964 l 1203 964 z m 479 281 l 481 272 l 474 272 l 471 281 z m 647 364 l 647 357 l 643 357 l 643 363 z m 583 464 l 576 464 l 576 471 l 583 469 z m 840 217 l 839 210 l 832 211 l 833 218 z m 840 424 l 833 424 l 833 432 l 840 432 z m 811 401 l 810 410 l 818 410 l 818 403 z m 821 369 l 821 363 l 813 361 l 813 369 z m 310 64 l 301 65 l 306 69 l 311 68 z m 858 911 l 851 910 l 851 919 l 858 919 z m 811 657 l 810 665 l 818 665 l 818 658 z m 1388 849 l 1386 856 l 1393 856 l 1393 850 z m 840 849 l 833 849 l 835 856 l 840 857 z m 351 99 l 344 99 l 346 106 l 353 104 z m 1301 892 l 1301 899 l 1307 899 l 1307 892 z m 1031 700 l 1024 701 l 1026 708 l 1032 707 z m 1011 765 l 1004 765 l 1006 774 l 1013 772 z m 839 767 l 832 765 l 832 771 l 838 772 z m 946 71 l 946 64 l 940 65 l 939 69 z m 1010 42 l 1003 43 l 1006 49 l 1011 47 z m 1326 869 l 1322 869 l 1322 875 l 1326 875 z m 196 38 l 194 46 l 201 47 l 203 39 z m 1031 829 l 1025 829 l 1025 836 l 1031 835 z m 1118 571 l 1110 572 l 1111 578 l 1118 578 z m 989 826 l 982 828 l 982 833 l 990 833 z m 600 569 l 601 575 l 607 575 l 606 568 z m 1157 954 l 1150 953 l 1150 960 l 1156 960 z m 1264 939 l 1258 938 l 1257 942 l 1263 942 z m 1222 933 l 1215 933 l 1215 940 l 1221 940 z m 1028 615 l 1028 625 l 1035 625 l 1035 617 z m 1010 814 l 1010 807 l 1003 808 l 1003 815 z m 1118 21 l 1113 21 l 1113 26 l 1118 26 z m 374 126 l 367 125 l 368 132 l 372 131 z m 736 829 l 731 828 l 729 833 l 735 833 z m 882 431 l 882 424 l 876 424 l 876 431 z m 815 869 l 810 874 l 814 879 l 819 875 z m 222 60 l 218 61 l 219 65 l 224 64 z m 433 361 l 433 357 l 428 357 l 428 363 z m 1236 954 l 1238 958 l 1242 958 l 1240 954 z m 601 365 l 608 365 l 606 358 l 600 358 z m 174 18 l 175 25 l 181 24 l 179 18 z m 586 344 l 579 343 l 578 349 l 583 350 z m 1285 913 l 1279 913 l 1279 919 l 1285 919 z m 1026 24 l 1026 29 l 1033 29 l 1032 24 z m 631 339 l 624 338 l 625 344 l 631 344 z m 756 386 l 756 379 l 749 381 l 750 388 z m 244 39 l 239 39 l 239 47 l 246 46 z m 1029 743 l 1024 744 l 1026 749 l 1031 747 z m 456 254 l 451 256 l 451 260 l 456 260 z m 1071 614 l 1065 614 l 1064 621 l 1071 619 z m 818 533 l 811 533 l 811 539 l 818 539 z m 797 253 l 792 253 l 792 258 l 799 258 z m 985 532 l 981 535 l 985 538 l 988 535 z m 811 625 l 818 622 l 817 617 l 810 617 z m 800 639 l 794 639 l 794 644 l 800 644 z m 457 296 l 451 296 l 451 301 l 457 303 z m 1072 582 l 1072 574 l 1065 575 l 1065 582 z m 265 60 l 258 63 l 260 68 l 267 65 z m 881 475 l 882 468 l 875 467 l 874 474 z m 1010 553 l 1006 551 l 1004 557 l 1008 558 z m 414 208 l 408 210 l 410 214 l 414 214 z m 396 188 l 390 188 l 390 192 l 394 192 z m 388 147 l 388 153 l 392 151 l 392 147 z m 965 1 l 960 3 l 961 7 l 965 6 z m 429 190 l 429 194 l 435 194 l 435 189 z m 863 68 l 860 65 l 857 65 l 857 69 z m 289 82 l 283 81 l 283 85 l 288 86 z m 879 49 l 881 46 l 878 44 l 876 47 z m 1221 44 l 1217 46 l 1218 50 l 1222 49 z m 331 85 l 326 86 l 328 90 l 331 89 z m 963 513 l 961 515 l 964 517 l 965 513 z m 840 685 l 838 679 l 833 681 l 835 686 z m 557 443 l 557 450 l 563 450 l 563 444 z m 776 404 l 769 404 l 771 411 l 778 411 z m 518 401 l 518 406 l 524 407 l 524 401 z m 556 403 l 557 408 l 563 408 l 561 401 z m 646 613 l 643 614 l 643 618 l 646 617 z m 714 386 l 711 381 l 707 382 l 708 386 z m 708 764 l 710 768 l 714 767 l 713 764 z m 814 746 l 815 750 l 819 749 l 819 746 z m 1326 794 l 1328 788 l 1324 788 l 1324 793 z m 817 708 l 818 703 l 813 703 l 811 707 z m 1367 151 l 1364 153 l 1364 157 l 1368 156 z m 797 556 l 792 556 l 792 560 l 796 561 z m 1347 131 l 1344 129 l 1343 133 l 1346 133 z m 833 639 l 833 643 l 838 643 l 838 639 z m 626 638 l 622 640 l 626 643 l 628 640 z m 988 22 l 982 24 l 985 28 l 989 26 z m 774 319 l 772 322 l 775 325 l 778 321 z m 735 364 l 731 363 l 731 368 l 735 368 z m 1051 897 l 1051 893 l 1047 892 l 1047 896 z m 1069 876 l 1069 872 l 1065 871 l 1065 875 z m 988 786 l 981 786 l 981 790 l 988 790 z m 799 472 l 799 467 l 794 467 l 793 471 z m 538 342 l 538 346 l 542 346 l 542 342 z m 517 364 l 518 367 l 522 365 l 519 363 z "},"B":{"ha":900,"x_min":0,"x_max":0,"o":"m 263 -4 l 276 17 l 283 43 l 281 60 l 285 94 l 288 115 l 292 186 l 296 206 l 297 224 l 300 242 l 300 258 l 307 297 l 308 333 l 311 351 l 311 367 l 315 386 l 319 406 l 319 424 l 328 478 l 333 494 l 333 513 l 339 532 l 346 549 l 353 586 l 356 604 l 360 621 l 365 638 l 374 654 l 379 672 l 386 690 l 390 706 l 400 724 l 406 740 l 415 757 l 443 800 l 458 822 l 489 853 l 504 864 l 517 872 l 532 882 l 549 886 l 567 894 l 583 897 l 607 899 l 633 899 l 654 896 l 671 889 l 683 878 l 693 865 l 704 850 l 706 831 l 711 813 l 713 793 l 710 776 l 708 757 l 683 708 l 674 693 l 661 679 l 651 663 l 596 615 l 546 586 l 488 558 l 469 544 l 464 529 l 467 511 l 476 497 l 501 488 l 528 482 l 574 479 l 594 476 l 622 471 l 639 464 l 676 450 l 692 440 l 704 428 l 719 418 l 746 389 l 754 375 l 764 360 l 768 342 l 772 324 l 776 306 l 776 288 l 779 269 l 778 254 l 775 236 l 769 217 l 765 200 l 756 185 l 738 153 l 726 140 l 706 121 l 669 94 l 654 86 l 633 82 l 601 74 l 581 72 l 564 72 l 547 74 l 529 78 l 511 81 l 493 86 l 476 93 l 444 108 l 428 121 l 403 131 l 381 135 l 371 121 l 364 106 l 360 88 l 371 67 l 393 49 l 407 42 l 421 32 l 436 24 l 472 13 l 490 6 l 524 -3 l 544 -4 l 563 -7 l 579 -7 l 600 -6 l 618 -4 l 635 -1 l 653 1 l 669 7 l 688 14 l 706 19 l 721 28 l 736 38 l 760 53 l 776 71 l 789 86 l 804 99 l 814 113 l 831 144 l 842 163 l 846 178 l 853 194 l 857 211 l 864 247 l 867 267 l 867 286 l 857 339 l 853 358 l 847 374 l 842 392 l 831 408 l 825 422 l 813 438 l 801 450 l 786 464 l 775 478 l 761 489 l 744 497 l 728 508 l 701 519 l 674 528 l 660 533 l 631 538 l 614 546 l 621 554 l 636 561 l 654 572 l 667 581 l 697 604 l 713 614 l 726 626 l 742 647 l 757 671 l 768 683 l 781 718 l 789 735 l 793 753 l 797 768 l 797 786 l 797 803 l 797 821 l 796 839 l 790 856 l 789 874 l 772 906 l 763 921 l 750 933 l 739 943 l 725 954 l 710 964 l 692 971 l 675 976 l 658 981 l 639 983 l 603 982 l 576 981 l 550 975 l 535 968 l 517 965 l 503 956 l 457 929 l 442 917 l 426 906 l 417 893 l 404 876 l 389 856 l 375 833 l 363 818 l 357 801 l 338 769 l 331 753 l 328 735 l 321 719 l 315 701 l 311 683 l 299 650 l 290 614 l 288 594 l 288 578 l 283 568 l 282 578 l 281 635 l 275 671 l 274 688 l 274 707 l 268 735 l 263 760 l 260 779 l 258 796 l 250 813 l 244 831 l 238 847 l 232 864 l 226 879 l 217 897 l 196 926 l 185 943 l 172 954 l 158 968 l 147 981 l 121 993 l 97 996 l 81 988 l 69 972 l 69 953 l 79 932 l 108 907 l 125 890 l 138 876 l 146 860 l 154 844 l 161 828 l 167 810 l 172 793 l 178 776 l 185 761 l 189 742 l 190 724 l 194 708 l 199 689 l 204 664 l 208 638 l 207 619 l 211 600 l 210 583 l 211 565 l 213 547 l 214 531 l 214 511 l 214 493 l 218 456 l 214 440 l 215 404 l 217 388 l 215 368 l 215 350 l 211 332 l 214 314 l 213 296 l 211 260 l 210 242 l 211 224 l 208 207 l 207 153 l 203 135 l 204 115 l 203 99 l 200 81 l 197 61 l 199 46 l 203 19 l 213 -3 l 228 -7 l 246 -8 z m 249 538 l 244 528 l 235 526 l 235 535 l 243 543 l 249 550 l 256 563 l 267 556 l 261 547 l 256 544 z m 588 546 l 590 553 l 599 554 l 599 547 l 590 544 l 586 538 l 582 525 l 571 526 l 569 538 l 582 543 z m 278 443 l 279 454 l 282 458 l 286 463 l 290 467 l 294 472 l 306 474 l 304 463 l 300 458 l 296 454 l 292 450 l 288 446 z m 724 465 l 715 469 l 711 474 l 706 478 l 703 482 l 699 492 l 707 490 l 713 486 l 717 481 l 722 475 z m 792 397 l 779 389 l 771 385 l 768 386 l 772 393 l 776 399 l 781 403 l 790 407 z m 810 249 l 804 244 l 799 240 l 794 236 l 796 244 l 799 250 l 801 256 l 811 260 z m 238 750 l 240 738 l 232 739 l 229 743 l 228 751 z m 197 824 l 188 824 l 188 832 l 197 832 z m 264 506 l 253 504 l 251 517 l 264 518 z m 835 190 l 824 190 l 828 200 l 836 201 z m 181 888 l 171 888 l 171 897 l 181 897 z m 686 929 l 675 928 l 678 939 l 689 940 z m 814 168 l 804 168 l 804 176 l 814 176 z m 560 557 l 560 549 l 550 549 l 550 557 z m 263 593 l 253 594 l 254 603 l 264 601 z m 751 736 l 742 736 l 740 746 l 750 747 z m 769 124 l 761 122 l 761 132 l 769 132 z m 835 233 l 825 233 l 825 243 l 835 243 z m 263 176 l 264 168 l 254 167 l 254 175 z m 304 507 l 293 507 l 294 517 l 306 518 z m 265 421 l 256 419 l 253 431 l 264 432 z m 621 951 l 613 949 l 610 958 l 619 960 z m 286 314 l 278 315 l 279 325 l 288 324 z m 276 526 l 275 536 l 283 539 l 285 529 z m 750 107 l 742 107 l 743 115 l 751 114 z m 242 699 l 235 697 l 235 706 l 240 707 z m 825 358 l 826 365 l 835 363 l 833 357 z m 803 219 l 811 218 l 811 208 l 803 211 z m 729 90 l 731 81 l 722 82 l 719 90 z m 729 719 l 721 718 l 722 726 l 729 728 z m 804 381 l 806 389 l 814 389 l 813 381 z m 729 675 l 719 675 l 719 685 l 728 683 z m 833 315 l 825 314 l 826 322 l 835 324 z m 189 864 l 190 874 l 199 874 l 197 865 z m 835 274 l 825 272 l 825 281 l 833 282 z m 265 251 l 257 251 l 256 261 l 265 261 z m 242 654 l 235 654 l 235 661 l 240 661 z m 282 272 l 275 271 l 274 279 l 282 281 z m 235 407 l 240 406 l 239 399 l 233 400 z m 726 888 l 718 888 l 719 897 l 728 896 z m 560 931 l 551 931 l 551 940 l 560 939 z m 793 156 l 793 146 l 785 147 l 785 156 z m 593 507 l 593 515 l 600 515 l 601 507 z m 704 910 l 697 910 l 696 917 l 704 919 z m 814 294 l 806 296 l 806 304 l 815 304 z m 242 146 l 235 146 l 235 154 l 242 153 z m 238 568 l 231 565 l 232 575 l 239 576 z m 286 486 l 276 486 l 278 496 l 286 497 z m 326 535 l 326 528 l 319 528 l 318 536 z m 579 568 l 572 567 l 572 574 l 579 575 z m 768 844 l 761 844 l 761 851 l 768 851 z m 685 40 l 678 42 l 679 49 l 686 47 z m 813 346 l 811 336 l 804 336 l 804 344 z m 642 42 l 635 42 l 635 49 l 642 49 z m 742 826 l 742 832 l 750 832 l 749 826 z m 256 339 l 256 347 l 264 346 l 264 338 z m 642 506 l 635 504 l 635 511 l 640 513 z m 282 235 l 276 235 l 276 242 l 282 242 z m 254 465 l 256 474 l 264 472 l 263 465 z m 303 379 l 296 381 l 297 389 l 306 388 z m 283 401 l 275 400 l 276 408 l 285 408 z m 367 699 l 363 699 l 363 704 l 367 704 z m 750 703 l 749 696 l 743 696 l 743 703 z m 750 443 l 742 442 l 742 450 l 750 450 z m 621 528 l 614 528 l 613 533 l 619 535 z m 664 67 l 663 60 l 657 61 l 657 68 z m 451 65 l 444 64 l 443 71 l 450 71 z m 635 929 l 635 938 l 644 938 l 643 929 z m 572 951 l 574 958 l 581 957 l 579 951 z m 263 126 l 256 126 l 256 132 l 263 132 z m 242 486 l 235 488 l 235 494 l 242 493 z m 535 526 l 528 529 l 529 535 l 536 533 z m 281 189 l 274 190 l 276 197 l 282 194 z m 769 806 l 763 804 l 763 811 l 769 813 z m 285 358 l 278 360 l 279 367 l 285 365 z m 596 928 l 594 936 l 601 936 l 601 929 z m 363 742 l 364 747 l 367 746 l 367 740 z m 572 910 l 571 915 l 578 915 l 578 910 z m 660 22 l 656 22 l 657 29 l 661 28 z m 767 85 l 761 86 l 763 90 l 767 89 z m 235 444 l 235 451 l 240 450 l 240 443 z m 239 360 l 235 360 l 235 364 l 239 364 z m 749 872 l 749 867 l 743 867 l 743 872 z m 263 633 l 257 633 l 257 640 l 263 639 z m 467 885 l 467 892 l 472 890 l 471 885 z m 239 613 l 235 613 l 235 618 l 239 618 z m 661 611 l 657 614 l 658 618 l 663 617 z m 508 39 l 508 44 l 514 44 l 514 39 z m 494 63 l 488 63 l 490 68 l 496 68 z m 217 811 l 217 804 l 211 804 l 211 811 z m 744 64 l 740 67 l 740 72 l 746 69 z m 219 849 l 218 844 l 214 846 l 215 850 z m 575 22 l 575 28 l 581 28 l 581 22 z m 663 488 l 657 486 l 657 492 l 661 493 z m 133 931 l 129 931 l 129 936 l 133 936 z m 538 910 l 532 910 l 532 915 l 538 915 z m 157 910 l 151 908 l 150 914 l 156 914 z m 238 106 l 233 106 l 233 111 l 238 111 z m 404 825 l 404 829 l 408 828 l 407 825 z m 236 782 l 235 785 l 239 785 l 240 782 z m 533 26 l 533 22 l 529 21 l 529 25 z m 793 361 l 788 361 l 788 367 l 793 367 z m 261 210 l 256 213 l 257 218 l 263 215 z m 242 272 l 236 272 l 236 278 l 242 278 z m 654 915 l 656 919 l 658 917 l 657 914 z m 726 931 l 724 926 l 719 928 l 721 932 z m 235 192 l 235 196 l 240 194 l 239 190 z m 239 238 l 242 232 l 235 231 l 235 236 z m 296 346 l 300 344 l 300 340 l 294 342 z m 789 111 l 790 107 l 786 106 l 785 110 z m 297 421 l 297 426 l 303 426 l 303 421 z m 263 385 l 261 379 l 254 379 l 257 386 z m 767 722 l 763 721 l 763 725 l 765 726 z m 767 428 l 768 424 l 764 424 l 763 428 z m 658 953 l 657 953 l 657 957 l 660 956 z m 344 681 l 346 678 l 343 678 l 342 681 z m 429 853 l 431 849 l 426 847 l 425 851 z m 471 43 l 467 44 l 468 49 l 471 49 z m 263 297 l 257 297 l 257 301 l 261 303 z "},"C":{"ha":765,"x_min":0,"x_max":0,"o":"m 826 300 l 803 288 l 783 253 l 775 235 l 763 221 l 753 206 l 742 189 l 732 174 l 721 161 l 706 149 l 696 136 l 679 122 l 657 108 l 644 99 l 621 85 l 604 79 l 582 69 l 489 54 l 447 56 l 428 58 l 411 63 l 390 68 l 376 74 l 361 82 l 338 96 l 314 113 l 288 136 l 268 167 l 263 185 l 254 199 l 247 218 l 239 235 l 238 253 l 231 269 l 229 286 l 226 306 l 225 324 l 222 342 l 224 358 l 224 376 l 225 394 l 225 413 l 228 442 l 229 468 l 235 485 l 239 501 l 240 519 l 243 539 l 250 556 l 264 608 l 272 625 l 281 640 l 285 657 l 293 674 l 301 689 l 310 706 l 317 722 l 329 736 l 358 782 l 393 821 l 408 835 l 422 846 l 443 863 l 468 875 l 482 882 l 499 890 l 514 894 l 533 900 l 549 901 l 575 901 l 603 899 l 619 890 l 629 882 l 640 867 l 649 851 l 653 833 l 653 815 l 656 800 l 650 782 l 649 764 l 644 747 l 635 731 l 629 715 l 624 689 l 624 664 l 642 654 l 658 649 l 683 661 l 699 682 l 714 714 l 724 729 l 732 765 l 735 783 l 738 803 l 740 821 l 739 838 l 740 854 l 731 890 l 724 904 l 711 921 l 690 946 l 675 957 l 657 967 l 643 975 l 625 979 l 608 983 l 578 985 l 554 985 l 533 982 l 517 978 l 497 976 l 482 969 l 449 958 l 432 950 l 417 942 l 399 935 l 383 924 l 368 913 l 354 901 l 329 876 l 315 864 l 279 825 l 269 808 l 247 779 l 239 761 l 229 746 l 222 731 l 211 714 l 206 699 l 196 681 l 190 664 l 182 649 l 178 629 l 171 613 l 168 596 l 154 561 l 149 542 l 149 525 l 143 508 l 142 490 l 135 444 l 131 397 l 129 378 l 129 363 l 131 343 l 131 325 l 135 307 l 133 289 l 138 269 l 139 253 l 146 236 l 150 218 l 153 201 l 160 186 l 174 150 l 183 136 l 190 118 l 199 104 l 210 89 l 221 76 l 249 50 l 274 29 l 289 19 l 306 10 l 354 -11 l 375 -15 l 392 -19 l 443 -26 l 463 -26 l 554 -18 l 569 -14 l 588 -8 l 604 -4 l 619 1 l 685 33 l 700 43 l 713 53 l 738 78 l 753 90 l 764 101 l 775 117 l 789 132 l 797 146 l 817 175 l 826 189 l 842 221 l 849 238 l 858 263 l 856 286 l 842 294 z m 600 40 l 597 36 l 594 32 l 592 28 l 589 25 l 582 24 l 583 31 l 585 35 l 589 36 l 593 38 l 600 40 l 603 44 l 607 49 l 613 47 l 611 43 l 604 42 z m 215 464 l 215 458 l 215 454 l 214 450 l 213 447 l 204 446 l 201 449 l 200 453 l 199 457 l 193 461 l 185 463 l 181 465 l 178 474 l 181 478 l 189 483 l 192 486 l 194 489 l 194 493 l 193 497 l 190 500 l 182 506 l 181 508 l 181 513 l 186 519 l 190 518 l 193 515 l 199 508 l 201 504 l 208 499 l 211 496 l 214 493 l 214 489 l 211 486 l 208 483 l 200 478 l 199 474 l 197 469 l 197 465 l 201 463 l 206 464 l 211 464 z m 181 353 l 189 350 l 192 347 l 193 343 l 189 335 l 181 335 l 179 338 l 178 340 l 176 349 l 172 354 l 169 356 l 161 357 l 158 360 l 160 368 l 168 369 l 171 368 l 176 364 l 176 360 l 176 357 z m 167 194 l 169 204 l 172 207 l 174 211 l 176 214 l 179 218 l 181 221 l 183 224 l 186 228 l 189 231 l 192 233 l 194 236 l 199 239 l 206 243 l 210 243 l 215 239 l 217 236 l 213 229 l 210 226 l 200 218 l 196 217 l 193 214 l 190 211 l 186 208 l 183 206 l 181 203 l 179 200 l 176 197 l 174 192 z m 167 231 l 163 233 l 160 236 l 164 243 l 167 247 l 169 250 l 172 253 l 175 257 l 178 260 l 179 263 l 186 268 l 190 267 l 196 260 l 194 256 l 189 251 l 185 249 l 182 246 l 179 243 l 176 240 l 175 238 l 172 231 z m 214 278 l 211 275 l 208 275 l 204 275 l 197 279 l 194 282 l 192 285 l 189 288 l 185 289 l 179 294 l 178 299 l 179 303 l 183 310 l 188 310 l 192 307 l 196 300 l 199 297 l 201 293 l 204 292 l 213 289 l 215 286 z m 383 25 l 376 21 l 371 25 l 367 28 l 358 36 l 354 39 l 349 46 l 350 50 l 357 54 l 361 51 l 367 46 l 369 43 l 372 40 l 375 38 l 382 33 z m 297 64 l 294 63 l 288 67 l 285 69 l 282 72 l 279 75 l 276 78 l 274 82 l 271 85 l 267 90 l 267 94 l 274 99 l 279 92 l 281 89 l 283 86 l 286 83 l 289 81 l 292 78 l 296 75 l 300 69 z m 714 789 l 713 783 l 710 779 l 708 776 l 706 772 l 703 769 l 701 765 l 696 761 l 692 761 l 686 767 l 690 774 l 693 776 l 696 779 l 699 782 l 700 786 l 703 789 l 708 793 l 713 793 z m 204 189 l 201 193 l 206 200 l 208 203 l 211 206 l 214 208 l 217 211 l 219 214 l 222 217 l 228 221 l 231 219 l 231 211 l 229 208 l 226 204 l 224 201 l 221 197 l 218 194 l 215 192 l 213 189 z m 524 4 l 521 10 l 526 15 l 529 18 l 532 21 l 535 25 l 538 28 l 543 33 l 547 35 l 553 31 l 549 24 l 546 19 l 543 17 l 540 14 l 538 11 l 535 10 l 531 7 z m 439 4 l 432 6 l 428 8 l 425 13 l 422 15 l 419 18 l 417 22 l 414 28 l 417 32 l 422 29 l 425 26 l 428 24 l 431 21 l 433 18 l 435 14 l 438 11 z m 254 146 l 251 144 l 243 144 l 240 147 l 240 156 l 243 158 l 251 158 l 254 154 z m 236 132 l 233 128 l 225 129 l 224 131 l 224 139 l 228 142 l 236 140 z m 172 286 l 174 283 l 172 276 l 169 274 l 163 274 l 160 276 l 158 279 l 160 288 l 164 289 z m 678 908 l 675 906 l 667 906 l 665 907 l 665 915 l 667 917 l 675 917 z m 183 549 l 181 551 l 179 558 l 182 561 l 190 561 l 193 553 l 190 550 z m 700 846 l 699 844 l 690 843 l 686 846 l 686 854 l 689 856 l 697 856 l 700 853 z m 258 111 l 256 107 l 253 106 l 246 106 l 243 108 l 244 117 l 249 119 l 257 119 l 258 118 z m 193 381 l 192 379 l 183 379 l 181 382 l 182 390 l 190 392 l 193 389 z m 171 415 l 172 414 l 172 406 l 169 401 l 161 401 l 158 410 l 160 413 l 163 415 z m 208 146 l 204 149 l 203 157 l 206 160 l 214 161 l 217 157 l 217 149 z m 403 897 l 406 893 l 403 885 l 393 888 l 394 897 z m 715 836 l 715 828 l 708 826 l 708 836 z m 233 169 l 226 167 l 225 169 l 224 176 l 225 179 l 231 179 l 233 176 z m 288 783 l 289 792 l 297 790 l 296 782 z m 317 53 l 319 44 l 311 43 l 308 51 z m 697 804 l 690 801 l 688 804 l 686 811 l 689 813 l 696 814 l 697 811 z m 465 24 l 458 22 l 456 25 l 456 33 l 463 35 l 465 32 z m 257 651 l 249 651 l 246 654 l 247 663 l 254 663 l 256 660 z m 174 317 l 165 314 l 163 317 l 161 324 l 164 325 l 172 325 z m 228 592 l 228 600 l 236 599 l 235 592 z m 338 75 l 339 74 l 340 65 l 332 64 l 329 67 l 331 75 z m 228 674 l 225 676 l 225 683 l 228 688 l 235 685 l 235 675 z m 317 761 l 310 761 l 310 769 l 317 769 z m 172 446 l 171 442 l 164 442 l 161 444 l 161 451 l 164 454 l 172 454 z m 676 828 l 674 825 l 667 826 l 667 835 l 674 835 z m 193 421 l 186 418 l 182 421 l 182 429 l 190 431 l 193 428 z m 172 485 l 164 485 l 161 488 l 163 494 l 171 494 l 172 493 z m 372 864 l 374 874 l 381 872 l 382 869 l 381 863 z m 625 907 l 625 914 l 632 915 l 632 908 z m 710 113 l 711 118 l 715 118 l 715 111 z m 246 696 l 246 704 l 254 706 l 254 697 z m 464 908 l 457 910 l 458 915 l 465 917 z m 656 931 l 653 928 l 646 931 l 646 936 l 649 939 l 656 936 z m 654 899 l 653 890 l 646 890 l 646 897 z m 211 529 l 203 531 l 201 538 l 210 539 l 213 536 z m 317 806 l 310 804 l 310 814 l 317 814 z m 204 571 l 204 578 l 213 579 l 215 576 l 214 571 z m 676 747 l 676 740 l 668 740 l 671 749 z m 210 410 l 211 408 l 210 401 l 203 401 l 203 410 z m 232 633 l 224 632 l 225 640 l 232 642 z m 699 89 l 690 89 l 693 94 l 699 96 z m 190 596 l 185 596 l 185 603 l 190 601 z m 401 47 l 400 42 l 393 43 l 394 50 z m 274 128 l 267 128 l 268 135 l 274 133 z m 149 349 l 147 340 l 142 340 l 142 347 z m 422 910 l 415 911 l 417 917 l 422 915 z m 736 131 l 731 131 l 731 138 l 738 136 z m 594 949 l 586 949 l 586 957 l 592 957 z m 675 68 l 669 68 l 668 74 l 674 75 z m 669 785 l 669 792 l 676 792 l 676 786 z m 479 929 l 479 936 l 486 936 l 486 929 z m 215 663 l 213 657 l 206 657 l 207 664 z m 192 179 l 190 172 l 185 174 l 185 179 z m 696 722 l 689 724 l 692 731 l 697 728 z m 274 761 l 267 761 l 268 768 l 274 768 z m 294 742 l 289 743 l 289 749 l 296 749 z m 696 894 l 693 888 l 688 889 l 689 896 z m 144 297 l 146 304 l 151 306 l 151 299 z m 507 910 l 500 910 l 500 915 l 506 915 z m 675 867 l 668 867 l 669 876 l 676 875 z m 207 326 l 210 321 l 204 318 l 201 325 z m 293 107 l 289 106 l 289 113 l 294 113 z m 267 719 l 267 725 l 275 726 l 275 721 z m 479 3 l 481 8 l 486 8 l 485 3 z m 147 382 l 142 383 l 143 388 l 147 386 z m 757 151 l 753 153 l 754 158 l 758 157 z m 778 171 l 774 172 l 775 178 l 779 176 z m 438 897 l 443 897 l 442 892 l 438 892 z m 507 31 l 507 26 l 501 26 l 501 32 z m 335 786 l 329 785 l 329 789 l 333 790 z m 569 49 l 565 47 l 564 51 l 568 53 z m 674 708 l 675 704 l 671 703 l 669 707 z m 653 46 l 649 47 l 650 50 l 653 50 z m 231 551 l 224 551 l 225 558 l 231 557 z m 521 931 l 521 938 l 528 938 l 528 931 z m 506 956 l 506 951 l 503 951 l 503 956 z m 629 953 l 625 956 l 626 960 l 631 958 z m 544 950 l 544 956 l 550 956 l 550 950 z m 207 361 l 203 361 l 203 365 l 207 367 z m 613 932 l 607 931 l 608 938 l 614 936 z m 568 929 l 563 929 l 563 933 l 567 935 z m 164 531 l 165 535 l 169 536 l 169 531 z m 271 681 l 272 676 l 268 678 l 269 681 z m 394 4 l 396 10 l 400 8 l 400 4 z m 247 615 l 246 617 l 246 618 l 249 618 z m 210 621 l 210 618 l 207 618 l 207 621 z m 338 33 l 338 28 l 332 28 l 332 33 z m 796 199 l 799 201 l 800 199 l 799 197 z m 335 831 l 335 828 l 333 828 l 333 829 z m 251 744 l 249 744 l 250 747 l 253 746 z m 317 88 l 313 89 l 313 93 l 317 92 z m 421 869 l 418 871 l 419 874 l 422 874 z m 631 72 l 631 71 l 629 69 z m 253 72 l 251 71 l 250 74 l 251 74 z m 439 931 l 438 933 l 440 933 l 442 932 z m 358 851 l 357 847 l 353 850 l 356 851 z m 571 10 l 568 8 l 567 13 l 569 14 z m 354 8 l 354 11 l 358 13 l 358 8 z "},"":{"ha":765,"x_min":0,"x_max":0,"o":"m 826 300 l 803 288 l 783 253 l 775 235 l 763 221 l 753 206 l 742 189 l 732 174 l 721 161 l 706 149 l 696 136 l 679 122 l 657 108 l 644 99 l 621 85 l 604 79 l 582 69 l 489 54 l 447 56 l 428 58 l 411 63 l 390 68 l 376 74 l 361 82 l 338 96 l 314 113 l 288 136 l 268 167 l 263 185 l 254 199 l 247 218 l 239 235 l 238 253 l 231 269 l 229 286 l 226 306 l 225 324 l 222 342 l 224 358 l 224 376 l 225 394 l 225 413 l 228 442 l 229 468 l 235 485 l 239 501 l 240 519 l 243 539 l 250 556 l 264 608 l 272 625 l 281 640 l 285 657 l 293 674 l 301 689 l 310 706 l 317 722 l 329 736 l 358 782 l 393 821 l 408 835 l 422 846 l 443 863 l 468 875 l 482 882 l 499 890 l 514 894 l 533 900 l 549 901 l 575 901 l 603 899 l 619 890 l 629 882 l 640 867 l 649 851 l 653 833 l 653 815 l 656 800 l 650 782 l 649 764 l 644 747 l 635 731 l 629 715 l 624 689 l 624 664 l 642 654 l 658 649 l 683 661 l 699 682 l 714 714 l 724 729 l 732 765 l 735 783 l 738 803 l 740 821 l 739 838 l 740 854 l 731 890 l 724 904 l 711 921 l 690 946 l 675 957 l 657 967 l 643 975 l 625 979 l 608 983 l 578 985 l 554 985 l 533 982 l 517 978 l 497 976 l 482 969 l 449 958 l 432 950 l 417 942 l 399 935 l 383 924 l 368 913 l 354 901 l 329 876 l 315 864 l 279 825 l 269 808 l 247 779 l 239 761 l 229 746 l 222 731 l 211 714 l 206 699 l 196 681 l 190 664 l 182 649 l 178 629 l 171 613 l 168 596 l 154 561 l 149 542 l 149 525 l 143 508 l 142 490 l 135 444 l 131 397 l 129 378 l 129 363 l 131 343 l 131 325 l 135 307 l 133 289 l 138 269 l 139 253 l 146 236 l 150 218 l 153 201 l 160 186 l 174 150 l 183 136 l 190 118 l 199 104 l 210 89 l 221 76 l 249 50 l 274 29 l 289 19 l 306 10 l 354 -11 l 375 -15 l 392 -19 l 443 -26 l 463 -26 l 554 -18 l 569 -14 l 588 -8 l 604 -4 l 619 1 l 685 33 l 700 43 l 713 53 l 738 78 l 753 90 l 764 101 l 775 117 l 789 132 l 797 146 l 817 175 l 826 189 l 842 221 l 849 238 l 858 263 l 856 286 l 842 294 z m 600 40 l 597 36 l 594 32 l 592 28 l 589 25 l 582 24 l 583 31 l 585 35 l 589 36 l 593 38 l 600 40 l 603 44 l 607 49 l 613 47 l 611 43 l 604 42 z m 215 464 l 215 458 l 215 454 l 214 450 l 213 447 l 204 446 l 201 449 l 200 453 l 199 457 l 193 461 l 185 463 l 181 465 l 178 474 l 181 478 l 189 483 l 192 486 l 194 489 l 194 493 l 193 497 l 190 500 l 182 506 l 181 508 l 181 513 l 186 519 l 190 518 l 193 515 l 199 508 l 201 504 l 208 499 l 211 496 l 214 493 l 214 489 l 211 486 l 208 483 l 200 478 l 199 474 l 197 469 l 197 465 l 201 463 l 206 464 l 211 464 z m 181 353 l 189 350 l 192 347 l 193 343 l 189 335 l 181 335 l 179 338 l 178 340 l 176 349 l 172 354 l 169 356 l 161 357 l 158 360 l 160 368 l 168 369 l 171 368 l 176 364 l 176 360 l 176 357 z m 167 194 l 169 204 l 172 207 l 174 211 l 176 214 l 179 218 l 181 221 l 183 224 l 186 228 l 189 231 l 192 233 l 194 236 l 199 239 l 206 243 l 210 243 l 215 239 l 217 236 l 213 229 l 210 226 l 200 218 l 196 217 l 193 214 l 190 211 l 186 208 l 183 206 l 181 203 l 179 200 l 176 197 l 174 192 z m 167 231 l 163 233 l 160 236 l 164 243 l 167 247 l 169 250 l 172 253 l 175 257 l 178 260 l 179 263 l 186 268 l 190 267 l 196 260 l 194 256 l 189 251 l 185 249 l 182 246 l 179 243 l 176 240 l 175 238 l 172 231 z m 214 278 l 211 275 l 208 275 l 204 275 l 197 279 l 194 282 l 192 285 l 189 288 l 185 289 l 179 294 l 178 299 l 179 303 l 183 310 l 188 310 l 192 307 l 196 300 l 199 297 l 201 293 l 204 292 l 213 289 l 215 286 z m 383 25 l 376 21 l 371 25 l 367 28 l 358 36 l 354 39 l 349 46 l 350 50 l 357 54 l 361 51 l 367 46 l 369 43 l 372 40 l 375 38 l 382 33 z m 297 64 l 294 63 l 288 67 l 285 69 l 282 72 l 279 75 l 276 78 l 274 82 l 271 85 l 267 90 l 267 94 l 274 99 l 279 92 l 281 89 l 283 86 l 286 83 l 289 81 l 292 78 l 296 75 l 300 69 z m 714 789 l 713 783 l 710 779 l 708 776 l 706 772 l 703 769 l 701 765 l 696 761 l 692 761 l 686 767 l 690 774 l 693 776 l 696 779 l 699 782 l 700 786 l 703 789 l 708 793 l 713 793 z m 204 189 l 201 193 l 206 200 l 208 203 l 211 206 l 214 208 l 217 211 l 219 214 l 222 217 l 228 221 l 231 219 l 231 211 l 229 208 l 226 204 l 224 201 l 221 197 l 218 194 l 215 192 l 213 189 z m 524 4 l 521 10 l 526 15 l 529 18 l 532 21 l 535 25 l 538 28 l 543 33 l 547 35 l 553 31 l 549 24 l 546 19 l 543 17 l 540 14 l 538 11 l 535 10 l 531 7 z m 439 4 l 432 6 l 428 8 l 425 13 l 422 15 l 419 18 l 417 22 l 414 28 l 417 32 l 422 29 l 425 26 l 428 24 l 431 21 l 433 18 l 435 14 l 438 11 z m 254 146 l 251 144 l 243 144 l 240 147 l 240 156 l 243 158 l 251 158 l 254 154 z m 236 132 l 233 128 l 225 129 l 224 131 l 224 139 l 228 142 l 236 140 z m 172 286 l 174 283 l 172 276 l 169 274 l 163 274 l 160 276 l 158 279 l 160 288 l 164 289 z m 678 908 l 675 906 l 667 906 l 665 907 l 665 915 l 667 917 l 675 917 z m 183 549 l 181 551 l 179 558 l 182 561 l 190 561 l 193 553 l 190 550 z m 700 846 l 699 844 l 690 843 l 686 846 l 686 854 l 689 856 l 697 856 l 700 853 z m 258 111 l 256 107 l 253 106 l 246 106 l 243 108 l 244 117 l 249 119 l 257 119 l 258 118 z m 193 381 l 192 379 l 183 379 l 181 382 l 182 390 l 190 392 l 193 389 z m 171 415 l 172 414 l 172 406 l 169 401 l 161 401 l 158 410 l 160 413 l 163 415 z m 208 146 l 204 149 l 203 157 l 206 160 l 214 161 l 217 157 l 217 149 z m 403 897 l 406 893 l 403 885 l 393 888 l 394 897 z m 715 836 l 715 828 l 708 826 l 708 836 z m 233 169 l 226 167 l 225 169 l 224 176 l 225 179 l 231 179 l 233 176 z m 288 783 l 289 792 l 297 790 l 296 782 z m 317 53 l 319 44 l 311 43 l 308 51 z m 697 804 l 690 801 l 688 804 l 686 811 l 689 813 l 696 814 l 697 811 z m 465 24 l 458 22 l 456 25 l 456 33 l 463 35 l 465 32 z m 257 651 l 249 651 l 246 654 l 247 663 l 254 663 l 256 660 z m 174 317 l 165 314 l 163 317 l 161 324 l 164 325 l 172 325 z m 228 592 l 228 600 l 236 599 l 235 592 z m 338 75 l 339 74 l 340 65 l 332 64 l 329 67 l 331 75 z m 228 674 l 225 676 l 225 683 l 228 688 l 235 685 l 235 675 z m 317 761 l 310 761 l 310 769 l 317 769 z m 172 446 l 171 442 l 164 442 l 161 444 l 161 451 l 164 454 l 172 454 z m 676 828 l 674 825 l 667 826 l 667 835 l 674 835 z m 193 421 l 186 418 l 182 421 l 182 429 l 190 431 l 193 428 z m 172 485 l 164 485 l 161 488 l 163 494 l 171 494 l 172 493 z m 372 864 l 374 874 l 381 872 l 382 869 l 381 863 z m 625 907 l 625 914 l 632 915 l 632 908 z m 710 113 l 711 118 l 715 118 l 715 111 z m 246 696 l 246 704 l 254 706 l 254 697 z m 464 908 l 457 910 l 458 915 l 465 917 z m 656 931 l 653 928 l 646 931 l 646 936 l 649 939 l 656 936 z m 654 899 l 653 890 l 646 890 l 646 897 z m 211 529 l 203 531 l 201 538 l 210 539 l 213 536 z m 317 806 l 310 804 l 310 814 l 317 814 z m 204 571 l 204 578 l 213 579 l 215 576 l 214 571 z m 676 747 l 676 740 l 668 740 l 671 749 z m 210 410 l 211 408 l 210 401 l 203 401 l 203 410 z m 232 633 l 224 632 l 225 640 l 232 642 z m 699 89 l 690 89 l 693 94 l 699 96 z m 190 596 l 185 596 l 185 603 l 190 601 z m 401 47 l 400 42 l 393 43 l 394 50 z m 274 128 l 267 128 l 268 135 l 274 133 z m 149 349 l 147 340 l 142 340 l 142 347 z m 422 910 l 415 911 l 417 917 l 422 915 z m 736 131 l 731 131 l 731 138 l 738 136 z m 594 949 l 586 949 l 586 957 l 592 957 z m 675 68 l 669 68 l 668 74 l 674 75 z m 669 785 l 669 792 l 676 792 l 676 786 z m 479 929 l 479 936 l 486 936 l 486 929 z m 215 663 l 213 657 l 206 657 l 207 664 z m 192 179 l 190 172 l 185 174 l 185 179 z m 696 722 l 689 724 l 692 731 l 697 728 z m 274 761 l 267 761 l 268 768 l 274 768 z m 294 742 l 289 743 l 289 749 l 296 749 z m 696 894 l 693 888 l 688 889 l 689 896 z m 144 297 l 146 304 l 151 306 l 151 299 z m 507 910 l 500 910 l 500 915 l 506 915 z m 675 867 l 668 867 l 669 876 l 676 875 z m 207 326 l 210 321 l 204 318 l 201 325 z m 293 107 l 289 106 l 289 113 l 294 113 z m 267 719 l 267 725 l 275 726 l 275 721 z m 479 3 l 481 8 l 486 8 l 485 3 z m 147 382 l 142 383 l 143 388 l 147 386 z m 757 151 l 753 153 l 754 158 l 758 157 z m 778 171 l 774 172 l 775 178 l 779 176 z m 438 897 l 443 897 l 442 892 l 438 892 z m 507 31 l 507 26 l 501 26 l 501 32 z m 335 786 l 329 785 l 329 789 l 333 790 z m 569 49 l 565 47 l 564 51 l 568 53 z m 674 708 l 675 704 l 671 703 l 669 707 z m 653 46 l 649 47 l 650 50 l 653 50 z m 231 551 l 224 551 l 225 558 l 231 557 z m 521 931 l 521 938 l 528 938 l 528 931 z m 506 956 l 506 951 l 503 951 l 503 956 z m 629 953 l 625 956 l 626 960 l 631 958 z m 544 950 l 544 956 l 550 956 l 550 950 z m 207 361 l 203 361 l 203 365 l 207 367 z m 613 932 l 607 931 l 608 938 l 614 936 z m 568 929 l 563 929 l 563 933 l 567 935 z m 164 531 l 165 535 l 169 536 l 169 531 z m 271 681 l 272 676 l 268 678 l 269 681 z m 394 4 l 396 10 l 400 8 l 400 4 z m 247 615 l 246 617 l 246 618 l 249 618 z m 210 621 l 210 618 l 207 618 l 207 621 z m 338 33 l 338 28 l 332 28 l 332 33 z m 796 199 l 799 201 l 800 199 l 799 197 z m 335 831 l 335 828 l 333 828 l 333 829 z m 251 744 l 249 744 l 250 747 l 253 746 z m 317 88 l 313 89 l 313 93 l 317 92 z m 421 869 l 418 871 l 419 874 l 422 874 z m 631 72 l 631 71 l 629 69 z m 253 72 l 251 71 l 250 74 l 251 74 z m 439 931 l 438 933 l 440 933 l 442 932 z m 358 851 l 357 847 l 353 850 l 356 851 z m 571 10 l 568 8 l 567 13 l 569 14 z m 354 8 l 354 11 l 358 13 l 358 8 z m 658 1233 l 639 1219 l 621 1200 l 608 1186 l 592 1174 l 583 1158 l 571 1147 l 556 1133 l 542 1111 l 533 1086 l 540 1072 l 553 1063 l 574 1063 l 596 1075 l 617 1092 l 628 1104 l 642 1118 l 653 1132 l 667 1142 l 679 1156 l 697 1174 l 707 1199 l 703 1214 l 694 1225 l 676 1233 z m 596 1106 l 588 1106 l 588 1114 l 597 1115 l 599 1107 z m 675 1197 l 682 1197 l 682 1189 l 674 1189 z m 665 1178 l 663 1169 l 656 1171 l 656 1178 l 658 1181 z m 618 1136 l 618 1128 l 611 1128 l 611 1136 z m 633 1156 l 640 1157 l 642 1150 l 633 1149 z m 633 1183 l 631 1192 l 638 1194 l 642 1188 z m 597 1149 l 592 1143 l 588 1143 l 588 1147 l 596 1150 l 600 1157 l 603 1163 l 613 1164 l 610 1154 l 604 1153 z m 554 1086 l 557 1096 l 560 1100 l 563 1106 l 571 1114 l 576 1103 l 567 1094 l 561 1089 z "}}}
